<svg width="240" height="246" viewBox="0 0 240 246" fill="none" xmlns="http://www.w3.org/2000/svg">
<g clip-path="url(#clip0_10_706)">
<path fill-rule="evenodd" clip-rule="evenodd" d="M147.692 136.226C148.791 162.311 149.305 176.75 149.231 179.54C148.936 189.46 146.958 197.801 143.297 204.559C143.002 205 142.782 205.22 142.637 205.22C142.418 205.22 142.308 204.744 142.308 203.788C142.382 203.051 142.492 202.059 142.637 200.812C143.002 197.871 143.262 194.494 143.407 190.672C143.481 187.22 142.932 170.503 141.758 140.524C141.683 139.056 141.648 137.584 141.648 136.116C140.33 97.6858 139.705 77.1152 139.78 74.3951C139.855 70.9432 139.415 68.0379 138.462 65.6882C138.536 64.2201 139.635 61.2443 141.758 56.7607C141.978 56.2449 142.198 55.9892 142.418 55.9892C142.712 55.9892 142.967 56.2846 143.187 56.8709C143.701 58.1186 144.91 61.5749 146.813 67.2312C149.451 74.8713 150.769 79.2446 150.769 80.3468C150.694 80.8626 150.514 81.1183 150.22 81.1183C149.56 81.0433 148.207 79.7604 146.154 77.2607C146.009 77.1152 145.899 77.0403 145.824 77.0403C145.679 77.0403 145.604 77.3357 145.604 77.922C145.604 78.2879 146.299 97.7255 147.692 136.226Z" fill="#FF6106"/>
<path fill-rule="evenodd" clip-rule="evenodd" d="M11.7584 73.844C11.7584 73.7691 11.9781 73.4781 12.4177 72.9623C14.5408 70.6125 15.6045 69.0298 15.6045 68.223C15.6045 67.4868 15.2748 67.1209 14.6155 67.1209C14.2507 67.1209 13.921 67.2135 13.6265 67.3986C13.332 67.5794 13.1518 67.672 13.077 67.672H12.9672L13.077 67.0107C13.4419 65.3927 14.2507 64.5859 15.4946 64.5859C16.5935 64.5859 17.143 65.2472 17.143 66.5698C17.143 67.597 16.721 68.7388 15.8814 69.9865C15.0375 71.2341 13.9562 72.3363 12.6375 73.2929C12.1232 73.6588 11.8331 73.844 11.7584 73.844Z" fill="#00A2B5"/>
<path fill-rule="evenodd" clip-rule="evenodd" d="M21.9781 198.718C21.9781 198.643 22.1979 198.352 22.6374 197.836C24.7605 195.486 25.8242 193.903 25.8242 193.097C25.8242 192.36 25.4946 191.995 24.8352 191.995C24.4704 191.995 24.1407 192.087 23.8462 192.272C23.5517 192.453 23.3715 192.546 23.2968 192.546H23.1869L23.2968 191.884C23.6616 190.266 24.4704 189.46 25.7144 189.46C26.8133 189.46 27.3627 190.121 27.3627 191.443C27.3627 192.471 26.9407 193.613 26.1012 194.86C25.2572 196.108 24.1759 197.21 22.8572 198.167C22.3429 198.533 22.0528 198.718 21.9781 198.718Z" fill="#00A2B5"/>
<path fill-rule="evenodd" clip-rule="evenodd" d="M200 137.769C200 137.694 200.255 137.363 200.769 136.777C203.262 134.057 204.505 132.258 204.505 131.376C204.505 130.495 204.101 130.054 203.297 130.054C202.857 130.054 202.418 130.199 201.978 130.495L201.538 130.715L201.429 130.605L201.538 129.944C201.903 128.035 202.822 127.078 204.286 127.078C205.53 127.078 206.154 127.849 206.154 129.392C206.154 130.57 205.679 131.892 204.725 133.36C203.771 134.828 202.563 136.08 201.099 137.107C200.44 137.548 200.075 137.769 200 137.769Z" fill="#00A2B5"/>
<path fill-rule="evenodd" clip-rule="evenodd" d="M140.22 49.4865C140.22 49.2661 140.585 48.64 141.319 47.6128C144.835 42.5429 146.593 39.1615 146.593 37.4731V37.1424C146.374 35.8198 145.749 35.1585 144.725 35.1585C143.626 35.1585 142.782 35.4539 142.198 36.0403L141.319 36.7015C141.319 36.6266 141.209 36.5913 140.989 36.5913C141.064 36.3709 141.099 35.93 141.099 35.2687C141.393 31.8874 142.822 30.0137 145.385 29.6478H146.044C147.802 29.6478 148.826 30.8601 149.121 33.2849L149.231 34.387C149.231 36.1505 148.681 38.1696 147.582 40.4489C146.264 43.3144 144.396 45.8847 141.978 48.1639C141.024 49.0456 140.44 49.4865 140.22 49.4865Z" fill="#00A2B5"/>
<path fill-rule="evenodd" clip-rule="evenodd" d="M39.3405 146.476C39.1207 146.476 39.0108 146.18 39.0108 145.594C39.0108 144.567 38.4262 142.601 37.2526 139.7C36.0789 136.794 35.2745 135.344 34.835 135.344C34.4702 135.344 34.2504 135.454 34.1756 135.675C34.1009 135.895 33.846 136.005 33.4064 136.005C32.8218 136.005 32.1229 135.622 31.3185 134.85C30.5141 134.079 30.1097 133.47 30.1097 133.03C30.1097 132.809 30.457 132.113 31.1559 130.935C31.8504 129.758 32.2723 129.172 32.4174 129.172C34.1009 129.172 35.6218 130.182 36.98 132.205C38.3339 134.224 39.3053 136.887 39.8899 140.194V140.745H39.9998C40.0745 140.745 40.1097 140.709 40.1097 140.634C40.1097 140.559 40.1844 140.414 40.3295 140.194C40.5493 138.21 41.2086 135.309 42.3075 131.487C43.4811 128.696 44.7251 127.298 46.0438 127.298C46.7778 127.298 47.4548 127.739 48.0789 128.621C48.6987 129.503 49.0108 130.199 49.0108 130.715C49.0108 131.081 48.9009 131.654 48.6811 132.426C48.4614 133.197 48.1669 133.581 47.802 133.581C47.657 133.581 47.3273 133.25 46.813 132.589C46.2987 131.927 45.7493 131.597 45.1647 131.597C43.991 131.597 42.8921 134.462 41.868 140.194C41.4284 142.693 40.9141 144.457 40.3295 145.484C39.9647 146.145 39.635 146.476 39.3405 146.476Z" fill="#00A2B5"/>
<path fill-rule="evenodd" clip-rule="evenodd" d="M29.2308 103.161C28.9363 103.161 28.7912 102.831 28.7912 102.169C28.7912 101.142 28.2242 99.1758 27.0901 96.275C25.9517 93.3697 25.1649 91.9193 24.7253 91.9193C24.3605 91.9193 24.1231 92.0295 24.0132 92.2499C23.9033 92.4703 23.6264 92.5806 23.1868 92.5806C22.6726 92.5806 22.0132 92.197 21.2088 91.4255C20.4044 90.654 20 90.0456 20 89.6047C20 89.3843 20.3473 88.7054 21.0462 87.568C21.7407 86.4261 22.1627 85.8574 22.3077 85.8574C23.9912 85.8574 25.5121 86.8494 26.8704 88.8332C28.2242 90.8171 29.1561 93.4623 29.6704 96.7687L29.7803 96.9892V97.3198H29.8901C29.9649 97.3198 30.0176 97.2669 30.0572 97.1567C30.0923 97.0465 30.1451 96.9142 30.2198 96.7687C30.4396 94.7849 31.0989 91.884 32.1978 88.0617C33.2967 85.2711 34.5407 83.8736 35.9341 83.8736C36.6682 83.8736 37.3451 84.3144 37.9693 85.1961C38.589 86.0779 38.9011 86.7744 38.9011 87.2902C38.9011 87.7311 38.7912 88.2469 38.5715 88.8332C38.3517 89.715 38.0572 90.1558 37.6923 90.1558C37.5473 90.1558 37.2176 89.8252 36.7033 89.1639C36.189 88.5026 35.6396 88.172 35.055 88.172C33.8814 88.172 32.7824 91.0375 31.7583 96.7687C30.8792 101.032 30.0352 103.161 29.2308 103.161Z" fill="#00A2B5"/>
<path fill-rule="evenodd" clip-rule="evenodd" d="M121.978 117.048C131.574 121.973 140.584 123.697 149.011 122.228C152.892 122.228 156.668 120.796 160.33 117.93C161.354 117.123 161.868 113.962 161.868 108.452C161.868 104.925 160.954 91.3683 159.121 67.7822C157.508 43.9758 156.703 30.0137 156.703 25.9005C156.703 22.0077 156.079 18.8467 154.835 16.422C154.835 14.954 155.969 11.5373 158.242 6.17202C158.387 5.58567 158.571 5.2903 158.791 5.2903C159.011 5.2903 159.341 5.69589 159.78 6.50266C160.365 7.7503 161.793 11.4623 164.066 17.6344C164.211 18.0003 164.286 18.2957 164.286 18.5161C166.558 24.4677 167.912 28.1798 168.352 29.6478C168.716 30.8955 168.901 31.7066 168.901 32.0726C168.901 33.6905 167.178 32.6589 163.736 28.9865C163.297 28.4002 163.077 28.6206 163.077 29.6478C163.077 29.8683 163.921 40.4136 165.604 61.2795C166.998 82.0749 167.692 94.4895 167.692 98.5322C167.692 110.29 165.639 119.438 161.538 125.976C157.657 131.341 153.481 134.096 149.011 134.242C135.899 135.124 124.835 132.333 115.824 125.866L101.099 115.175C100.514 114.588 99.8153 113.962 99.0109 113.301C98.1318 112.935 97.6175 112.75 97.4724 112.75C97.2526 112.75 97.4372 113.266 98.0219 114.293C100.294 118.556 101.428 121.642 101.428 123.551C101.428 130.309 99.0856 135.419 94.3955 138.871C90.6592 141.371 82.6724 144.748 70.4394 149.011L68.2416 150.003C62.0878 152.648 58.0219 154.887 56.0438 156.726C51.723 159.812 45.679 165.984 37.912 175.242C33.2219 180.532 28.4966 183.177 23.7362 183.177C19.8548 183.177 16.4834 181.449 13.6263 177.997C10.3296 174.104 8.68121 169.475 8.68121 164.11C8.68121 156.761 11.7581 147.137 17.912 135.234C18.5713 133.986 19.0856 133.36 19.4504 133.36C19.6702 133.36 19.7801 133.581 19.7801 134.021C19.7801 135.049 18.4614 139.127 15.8241 146.255C13.112 153.455 11.7581 159.115 11.7581 163.228C11.7581 166.314 12.4922 168.774 13.9559 170.613C15.5691 172.672 17.7274 173.699 20.4395 173.699C25.3493 173.699 30.3296 171.239 35.3845 166.314L40.3296 160.473C41.7933 158.635 43.3318 156.801 44.9449 154.962C49.2658 150.188 54.7999 145.96 61.5383 142.288C65.4197 140.229 72.2724 137.473 82.0878 134.021C88.8263 131.522 93.5164 129.467 96.1537 127.849C97.3977 127.188 97.8372 126.271 97.4724 125.094C95.1999 118.481 86.1889 109.959 70.4394 99.5242L30.5493 73.293C28.7164 72.2658 26.8482 71.1636 24.9449 69.9865C24.5801 69.5457 24.3955 68.1878 24.3955 65.9086C24.3955 63.043 24.7999 59.9922 25.6043 56.7607C26.4087 53.2338 27.4373 51.0648 28.6812 50.258C37.0329 44.086 55.1296 35.8551 82.9669 25.5699C111.244 15.1347 129.89 9.91933 138.901 9.91933C141.538 9.91933 143.371 10.3249 144.395 11.1317C145.42 12.1589 145.934 13.7019 145.934 15.7607C145.934 20.4647 142.453 26.4163 135.494 33.6156L131.209 37.3629C129.965 38.3901 128.716 39.4922 127.472 40.6693C123.222 44.7826 120.365 48.089 118.901 50.5887C117.877 52.2066 117.178 53.0134 116.813 53.0134C116.593 53.0134 116.778 51.876 117.363 49.5967C117.582 48.4197 118.716 46.2903 120.769 43.2043C122.602 40.3387 124.031 38.465 125.055 37.5833C133.042 30.4546 137.837 25.755 139.45 23.4758V22.5941C139.45 21.3464 137.217 20.7204 132.747 20.7204C125.789 20.7204 109.011 25.6448 82.4175 35.4892C55.8241 45.5541 37.6175 53.7497 27.8021 60.0672C27.1427 60.508 27.2175 60.9136 28.0219 61.2795C36.668 65.6132 45.2746 70.0615 53.846 74.6156C74.1405 85.6371 92.0526 96.5131 107.582 107.239C112.272 110.471 117.068 113.742 121.978 117.048Z" fill="#FFB000"/>
<path fill-rule="evenodd" clip-rule="evenodd" d="M91.8683 77.0403C91.7233 76.6744 91.5738 76.1233 91.4288 75.3871L91.3189 75.1666C88.6068 68.4082 86.7386 61.7557 85.7145 55.2177C85.5694 53.9701 85.3848 53.2338 85.165 53.0134C84.9452 51.9862 84.3211 50.9546 83.2969 49.9274L86.7035 43.4247C87.2881 42.3975 87.8024 41.8817 88.2419 41.8817C88.4617 41.8817 88.976 42.3975 89.7804 43.4247L98.3518 54.5564C99.5958 56.0245 100.22 57.0561 100.22 57.6424C100.22 58.2288 99.8903 58.5242 99.231 58.5242C98.2068 58.5242 96.3738 57.8276 93.7364 56.4301C94.5408 60.6932 96.2991 66.0188 99.0112 72.4113C99.5958 74.0292 101.613 75.753 105.055 77.5914C108.572 79.6502 112.892 81.3034 118.022 82.551C120.075 83.2123 120.989 84.3498 120.769 85.9677L118.901 93.9032C118.681 94.7849 117.547 94.7849 115.495 93.9032C110.22 91.4785 103.701 90.2661 95.9342 90.2661C85.2397 90.2661 72.4529 94.9701 57.5826 104.374C54.2859 106.432 51.0991 108.487 48.0222 110.546L34.5057 119.804C28.7914 123.11 23.5914 124.763 18.9013 124.763C13.9914 124.763 9.67052 123 5.93425 119.473C2.05293 115.801 0.110077 111.282 0.110077 105.917C0.110077 98.3471 3.92107 88.6129 11.5386 76.7096C12.343 75.6824 12.9321 75.1666 13.2969 75.1666C13.5167 75.1666 13.6266 75.2769 13.6266 75.4973C13.6266 76.7449 11.9782 80.9331 8.6815 88.0618C5.45953 95.0406 3.84634 100.701 3.84634 105.035C3.84634 108.121 4.87052 110.581 6.92326 112.419C8.75623 114.478 11.3936 115.505 14.8354 115.505C20.4046 115.505 25.6397 114.073 30.5496 111.207C36.8485 106.873 42.9672 102.575 48.9013 98.3118C58.9364 91.6989 68.3518 86.5541 77.143 82.8817C83.8815 80.2365 88.9013 78.9139 92.198 78.9139C91.9782 78.4731 91.8683 77.8471 91.8683 77.0403Z" fill="#FFB000"/>
<path fill-rule="evenodd" clip-rule="evenodd" d="M122.308 110.766C122.308 110.621 122.673 110.14 123.407 109.333C127.143 105.291 129.011 102.575 129.011 101.177C129.011 99.9298 128.426 99.3037 127.253 99.3037C126.593 99.3037 126.026 99.4492 125.552 99.7446C125.073 100.04 124.8 100.221 124.725 100.296L124.396 100.075C124.47 100 124.541 99.6697 124.615 99.0833C125.2 96.2927 126.593 94.8951 128.791 94.8951C130.624 94.8951 131.538 96.0326 131.538 98.3118C131.538 100 130.844 101.949 129.451 104.153C128.057 106.357 126.229 108.266 123.956 109.884C123.077 110.471 122.527 110.766 122.308 110.766Z" fill="#00A2B5"/>
<path fill-rule="evenodd" clip-rule="evenodd" d="M3.05176e-05 145.704C3.05176e-05 145.559 0.404426 145.043 1.20882 144.161C5.16487 139.753 7.14289 136.812 7.14289 135.344C7.14289 133.947 6.51871 133.25 5.27476 133.25C4.54069 133.25 3.92091 133.435 3.40662 133.801C2.89234 134.167 2.60223 134.352 2.5275 134.352C2.45278 134.277 2.34289 134.242 2.19783 134.242C2.27256 134.096 2.34289 133.691 2.41761 133.03C3.07695 130.019 4.58025 128.511 6.92311 128.511C8.90113 128.511 9.89014 129.758 9.89014 132.258C9.89014 134.096 9.13849 136.208 7.63959 138.598C6.13629 140.983 4.17585 143.024 1.75827 144.712C0.734096 145.374 0.145085 145.704 3.05176e-05 145.704Z" fill="#00A2B5"/>
<path fill-rule="evenodd" clip-rule="evenodd" d="M46.0439 28.9865C46.4088 27.3685 47.1077 25.5698 48.1319 23.5859C68.0571 16.0164 88.5363 8.34098 109.56 0.550981L110.549 0.330551H110.716C110.752 0.330551 110.769 0.405497 110.769 0.550981C110.769 0.696465 110.694 0.956573 110.549 1.32249C109.815 3.08593 109.288 4.11313 108.958 4.40851C108.629 4.70388 98.756 8.48647 79.3407 15.7607C59.4857 23.2553 48.3868 27.6639 46.0439 28.9865Z" fill="#00A2B5"/>
<path fill-rule="evenodd" clip-rule="evenodd" d="M121.209 79.465C120.914 79.465 120.769 79.0594 120.769 78.2526C120.769 76.9301 120.035 74.4128 118.571 70.7051C117.108 66.9931 116.079 65.1371 115.495 65.1371C115.055 65.1371 114.782 65.2825 114.673 65.5779C114.563 65.8733 114.211 66.0188 113.626 66.0188C112.967 66.0188 112.106 65.525 111.046 64.5331C109.982 63.5411 109.451 62.7476 109.451 62.1612C109.451 61.9408 109.89 61.0767 110.769 59.5734C111.648 58.0657 112.198 57.3118 112.418 57.3118C114.615 57.3118 116.576 58.5991 118.299 61.1693C120.018 63.7395 121.209 67.1209 121.868 71.3091L121.978 71.5295V72.0806H122.088C122.163 72.0806 122.198 72.0453 122.198 71.9704C122.198 71.8954 122.273 71.675 122.418 71.3091C122.782 68.8094 123.662 65.1018 125.055 60.1774C126.519 56.6505 128.097 54.8871 129.78 54.8871C130.734 54.8871 131.613 55.4558 132.418 56.5976C133.222 57.735 133.626 58.6344 133.626 59.2957C133.626 59.8115 133.481 60.5257 133.187 61.4471C132.892 62.364 132.492 62.8225 131.978 62.8225C131.833 62.8225 131.429 62.4169 130.769 61.6102C130.11 60.8034 129.415 60.3978 128.681 60.3978C127.143 60.3978 125.714 64.0349 124.396 71.3091C123.881 74.5406 123.262 76.7846 122.527 78.0322C122.013 78.9889 121.574 79.465 121.209 79.465Z" fill="#00A2B5"/>
<path fill-rule="evenodd" clip-rule="evenodd" d="M70.989 208.196V208.086C70.989 208.011 71.2835 207.57 71.8682 206.763C74.6506 203.091 76.044 200.666 76.044 199.489C76.044 198.312 75.5297 197.726 74.5055 197.726C73.9209 197.726 73.3715 197.946 72.8572 198.387L72.1978 198.828L71.9781 198.718C72.0528 198.572 72.0879 198.277 72.0879 197.836C72.3825 195.191 73.5912 193.868 75.7143 193.868C77.1077 193.868 77.877 194.785 78.022 196.624V197.175C78.022 198.497 77.5825 200.04 76.7033 201.804C75.6044 203.863 74.1407 205.661 72.3077 207.204C71.6484 207.791 71.2088 208.121 70.989 208.196Z" fill="#00A2B5"/>
<path fill-rule="evenodd" clip-rule="evenodd" d="M105.824 142.288H105.385C103.991 141.992 103.297 141.221 103.297 139.973C103.297 137.914 104.506 135.71 106.923 133.36C108.756 131.522 110.365 130.349 111.758 129.833H111.978C112.123 129.833 112.233 129.869 112.308 129.944C112.308 130.164 112.163 130.384 111.868 130.605C110.769 131.266 109.56 132.276 108.242 133.638C106.923 134.996 106.189 136.041 106.044 136.777C106.409 136.556 106.778 136.446 107.143 136.446L107.802 136.556C109.046 136.777 109.67 137.438 109.67 138.54C109.67 139.863 109.046 140.89 107.802 141.626C107.143 142.067 106.484 142.288 105.824 142.288Z" fill="#00A2B5"/>
<path fill-rule="evenodd" clip-rule="evenodd" d="M107.472 46.2904C105.714 46.2904 104.835 45.3337 104.835 43.4248C104.835 41.6613 105.604 39.6422 107.143 37.3629C108.681 35.0837 110.075 33.5804 111.319 32.8441L111.648 32.7339C111.723 32.7339 111.776 32.7692 111.815 32.8441C111.85 32.9191 111.868 32.9896 111.868 33.0646C111.868 33.21 111.758 33.3952 111.538 33.6156C110.585 34.4974 109.595 35.7274 108.571 37.31C107.547 38.8883 107.033 40.0831 107.033 40.8898C107.472 40.449 108.022 40.2285 108.681 40.2285C110.22 40.2285 110.989 40.8898 110.989 42.2124C110.989 43.46 110.606 44.452 109.837 45.1882C109.068 45.9245 108.277 46.2904 107.472 46.2904Z" fill="#00A2B5"/>
<path fill-rule="evenodd" clip-rule="evenodd" d="M24.8745 144.451L24.9217 144.551C24.984 144.682 24.8603 145.273 24.5428 146.318C22.8626 151.843 22.3181 155.232 22.9169 156.493C23.4836 157.687 24.3309 158.014 25.4548 157.476C26.0506 157.191 26.5005 156.815 26.8029 156.343C27.1092 155.87 27.3137 155.572 27.4127 155.441L27.6585 155.446L27.8425 156.09C28.699 159.259 28.0658 161.353 25.949 162.366C24.2294 163.188 22.8632 162.538 21.8564 160.417C21.0687 158.759 20.8516 156.588 21.1975 153.898C21.5434 151.209 22.4169 148.595 23.8102 146.059C24.3887 145.05 24.7434 144.514 24.8745 144.451Z" fill="#00A2B5"/>
<path fill-rule="evenodd" clip-rule="evenodd" d="M121.758 10.25V10.1397C121.758 10.0648 121.978 9.77382 122.418 9.25802C124.835 6.6878 126.044 4.95963 126.044 4.07791C126.044 3.27114 125.679 2.86555 124.945 2.86555C124.505 2.86555 124.066 3.01103 123.626 3.30641L123.077 3.41662L123.187 2.64512C123.626 0.881675 124.541 -4.57764e-05 125.934 -4.57764e-05C127.108 -4.57764e-05 127.692 0.736191 127.692 2.20426C127.692 3.30641 127.235 4.55404 126.321 5.95157C125.402 7.34909 124.211 8.56146 122.747 9.58866C122.163 10.0295 121.833 10.25 121.758 10.25Z" fill="#00A2B5"/>
<path fill-rule="evenodd" clip-rule="evenodd" d="M134.835 174.36C133.736 174.36 132.932 173.664 132.417 172.266C132.123 171.53 131.978 170.648 131.978 169.621C131.978 168.444 132.163 167.121 132.527 165.653C133.112 163.154 133.881 161.32 134.835 160.142L135.055 159.922C135.275 159.922 135.384 160.032 135.384 160.253L135.275 160.694C134.69 161.871 134.211 163.374 133.846 165.212C133.552 166.389 133.406 167.306 133.406 167.968C133.406 168.484 133.481 168.885 133.626 169.18C134.141 168.223 134.945 167.747 136.044 167.747C136.923 167.747 137.508 168.188 137.802 169.07C138.022 169.586 138.132 170.097 138.132 170.613C138.132 171.199 137.987 171.79 137.692 172.376C137.253 173.258 136.668 173.844 135.934 174.14L134.835 174.36Z" fill="#00A2B5"/>
<path fill-rule="evenodd" clip-rule="evenodd" d="M129.89 155.293H129.78C129.78 155.148 129.965 154.632 130.33 153.75C131.723 150.148 132.418 147.653 132.418 146.255C132.418 145.889 132.382 145.594 132.308 145.374C132.013 144.637 131.574 144.271 130.989 144.271C130.185 144.271 129.525 144.637 129.011 145.374C128.717 145.74 128.536 145.925 128.462 145.925H128.242L128.022 143.831C128.022 141.992 128.756 140.82 130.22 140.304L131.099 140.083C132.123 140.083 132.932 140.82 133.517 142.288C133.811 143.024 133.956 143.866 133.956 144.823C133.956 147.834 132.932 150.884 130.879 153.97C130.365 154.777 130.035 155.218 129.89 155.293Z" fill="#00A2B5"/>
<path fill-rule="evenodd" clip-rule="evenodd" d="M73.5165 237.183C72.4924 237.108 71.9781 236.521 71.9781 235.419C71.9781 234.463 72.4176 233.325 73.2968 232.003C74.1759 230.68 74.9803 229.798 75.7144 229.357H75.8242L76.044 229.468L75.9341 229.798C75.3495 230.314 74.7605 231.028 74.1759 231.95C73.5913 232.867 73.2968 233.546 73.2968 233.987C73.5165 233.766 73.8462 233.656 74.2858 233.656C75.0902 233.656 75.4946 234.022 75.4946 234.758C75.4946 235.494 75.2748 236.081 74.8352 236.521C74.3957 236.962 73.9561 237.183 73.5165 237.183Z" fill="#00A2B5"/>
<path fill-rule="evenodd" clip-rule="evenodd" d="M111.209 227.484C111.209 227.338 111.538 226.897 112.198 226.161C115.42 222.634 117.033 220.285 117.033 219.107C117.033 218.005 116.519 217.454 115.494 217.454C114.91 217.454 114.413 217.582 114.013 217.842C113.609 218.098 113.371 218.261 113.297 218.336L113.077 218.226L113.187 217.675C113.626 214.955 114.835 213.597 116.813 213.597C118.426 213.597 119.231 214.589 119.231 216.573C119.231 218.041 118.628 219.751 117.42 221.7C116.211 223.644 114.615 225.28 112.637 226.602C111.833 227.188 111.354 227.484 111.209 227.484Z" fill="#00A2B5"/>
<path fill-rule="evenodd" clip-rule="evenodd" d="M52.8571 173.809C53.2966 172.121 53.9912 170.317 54.945 168.409C62.9318 165.397 71.134 162.347 79.5604 159.261C95.0197 153.455 102.892 150.554 103.187 150.554C103.332 150.554 103.407 150.664 103.407 150.884L103.187 151.656C102.453 153.419 101.868 154.486 101.429 154.852C87.6571 159.922 71.4637 166.24 52.8571 173.809Z" fill="#00A2B5"/>
<path fill-rule="evenodd" clip-rule="evenodd" d="M69.4505 70.7581H69.2307C62.1978 69.0696 57.2175 67.3767 54.2857 65.6882C51.9428 64.2906 50.7692 62.3068 50.7692 59.7365L50.8791 58.414C51.6132 59.6616 53.2615 61.0591 55.8241 62.6021C56.8483 63.1885 59.5956 64.2554 64.0659 65.7984C68.0219 67.1959 70.4395 68.0027 71.3186 68.2231L71.4285 67.7822C71.4285 66.5346 70.1846 65.212 67.6923 63.8145C65.7142 63.0783 63.0417 61.9408 59.6703 60.3978C57.4725 59.0753 56.3736 57.8982 56.3736 56.871C56.3736 56.1347 57.1077 55.253 58.5714 54.2258C62.0879 52.0215 65.7494 50.9193 69.5604 50.9193C71.1736 50.9193 72.3824 51.1398 73.1868 51.5806C73.9912 52.0215 74.3956 52.5373 74.3956 53.1236C74.3956 53.5645 74.2109 53.9701 73.8461 54.336C72.8219 55.3632 72.1626 55.879 71.8681 55.879H71.7582C71.7582 55.4382 71.3538 54.8121 70.5494 54.0054C70.1846 53.71 69.3406 53.5645 68.0219 53.5645C64.8703 53.5645 62.2725 53.9701 60.2197 54.7769C59.7055 54.9973 59.4505 55.2177 59.4505 55.4382C59.4505 55.879 60.2945 56.5756 61.978 57.5322C63.2219 58.2685 64.8351 59.0003 66.8131 59.7365C68.7912 60.4728 70 60.9489 70.4395 61.1693C72.712 62.417 73.8461 63.9247 73.8461 65.6882C73.8461 66.9358 73.1516 68.1878 71.7582 69.4355C70.734 70.3172 69.9648 70.7581 69.4505 70.7581Z" fill="#00A2B5"/>
<path fill-rule="evenodd" clip-rule="evenodd" d="M11.7583 109.664H11.6484C11.6484 109.518 11.9429 109.113 12.5275 108.452C15.4594 105.291 16.9231 103.161 16.9231 102.059C16.9231 101.102 16.4484 100.626 15.4945 100.626C14.9802 100.626 14.5407 100.737 14.1758 100.957C13.811 101.177 13.5912 101.288 13.5165 101.288H13.2967L13.4066 100.737C13.8462 98.3118 14.9802 97.0994 16.8132 97.0994C18.2066 97.0994 18.9011 98.0164 18.9011 99.8548C18.9011 101.177 18.3517 102.703 17.2528 104.431C16.1539 106.155 14.7253 107.645 12.9671 108.892C12.233 109.408 11.833 109.664 11.7583 109.664Z" fill="#00A2B5"/>
<path fill-rule="evenodd" clip-rule="evenodd" d="M57.5825 202.685C57.2879 202.611 57.1429 202.209 57.1429 201.473C57.1429 200.296 56.4484 197.964 55.055 194.477C53.6616 190.985 52.7121 189.239 52.1978 189.239C51.7583 189.239 51.4857 189.367 51.3759 189.627C51.266 189.883 50.9539 190.011 50.4396 190.011C49.7803 190.011 48.9583 189.552 47.9693 188.635C46.9803 187.714 46.4836 187 46.4836 186.484C46.4836 186.189 46.9055 185.346 47.7495 183.949C48.589 182.551 49.1209 181.855 49.3407 181.855C51.3934 181.855 53.222 183.067 54.8352 185.492C56.4484 187.917 57.5473 191.078 58.1319 194.97C58.2066 195.411 58.2594 195.649 58.2989 195.689C58.3341 195.724 58.3868 195.742 58.4616 195.742L58.7912 194.97C59.0857 192.621 59.855 189.129 61.0989 184.5C62.4923 181.194 63.9912 179.54 65.6044 179.54C66.4836 179.54 67.3099 180.074 68.0792 181.141C68.8484 182.203 69.2308 183.032 69.2308 183.618C69.2308 184.134 69.1209 184.756 68.9011 185.492C68.5363 186.519 68.1319 187.035 67.6923 187.035C67.5473 187.035 67.1605 186.651 66.5407 185.88C65.9165 185.108 65.2748 184.72 64.6154 184.72C63.1517 184.72 61.7934 188.172 60.5495 195.081C60.0352 198.021 59.4506 200.115 58.7912 201.363C58.3517 202.245 57.9473 202.685 57.5825 202.685Z" fill="#00A2B5"/>
<path fill-rule="evenodd" clip-rule="evenodd" d="M103.846 186.594C101.283 186.594 99.9999 184.465 99.9999 180.202C99.9999 174.986 101.503 169.511 104.505 163.78C105.31 162.382 105.789 161.685 105.934 161.685C105.934 161.981 105.714 162.788 105.275 164.11C103.371 170.062 102.417 174.25 102.417 176.675C102.417 179.906 103.261 181.524 104.945 181.524C105.969 181.524 107.143 180.277 108.461 177.777L108.901 177.226C108.976 177.226 109.011 177.446 109.011 177.887C107.987 183.693 106.264 186.594 103.846 186.594Z" fill="#00A2B5"/>
<path fill-rule="evenodd" clip-rule="evenodd" d="M82.5275 240.82L82.4176 240.71C82.4176 240.635 82.7473 240.234 83.4066 239.497C86.6286 235.97 88.2418 233.621 88.2418 232.444C88.2418 231.341 87.7275 230.79 86.7033 230.79C86.1187 230.79 85.622 230.918 85.222 231.178C84.8176 231.434 84.5802 231.562 84.5055 231.562L84.2857 231.452L84.3956 230.901C84.8352 228.255 86.0791 226.933 88.1319 226.933C89.6703 226.933 90.4396 227.925 90.4396 229.909C90.4396 231.377 89.8374 233.07 88.6286 234.978C87.4198 236.887 85.8242 238.541 83.8462 239.938C83.1121 240.524 82.6725 240.82 82.5275 240.82Z" fill="#00A2B5"/>
<path fill-rule="evenodd" clip-rule="evenodd" d="M137.802 245.78L137.692 245.669C137.692 245.524 138.097 245.008 138.901 244.126C142.857 239.863 144.835 236.998 144.835 235.53C144.835 234.207 144.211 233.546 142.967 233.546C142.233 233.546 141.631 233.691 141.156 233.987C140.677 234.282 140.365 234.463 140.22 234.538L140 234.427L140.11 233.656C140.694 230.424 142.198 228.806 144.615 228.806C146.519 228.806 147.472 230.019 147.472 232.444C147.472 234.282 146.738 236.358 145.275 238.673C143.811 240.987 141.868 242.989 139.45 244.677C138.497 245.414 137.947 245.78 137.802 245.78Z" fill="#00A2B5"/>
<path fill-rule="evenodd" clip-rule="evenodd" d="M160.44 240.489C158.242 240.489 157.143 238.616 157.143 234.868C157.143 230.385 158.462 225.645 161.099 220.651C161.758 219.403 162.163 218.777 162.308 218.777C162.308 219.072 162.123 219.769 161.758 220.871C160.075 226.086 159.231 229.723 159.231 231.782C159.231 234.648 159.965 236.081 161.429 236.081C162.308 236.081 163.332 234.978 164.505 232.774C164.58 232.554 164.69 232.408 164.835 232.333L165.055 232.554L164.945 232.884C164.066 237.954 162.563 240.489 160.44 240.489Z" fill="#00A2B5"/>
<path fill-rule="evenodd" clip-rule="evenodd" d="M128.981 207.118C127.388 206.491 127.121 204.821 128.18 202.109C129.447 198.863 131.742 195.808 135.066 192.943C135.897 192.228 136.367 191.89 136.472 191.932C136.389 192.145 136.058 192.597 135.482 193.291C132.787 196.587 131.148 198.979 130.566 200.47C129.756 202.544 129.883 203.791 130.944 204.208C131.582 204.459 132.636 203.953 134.109 202.692C134.226 202.554 134.347 202.48 134.473 202.467L134.57 202.689L134.397 202.897C132.327 206.317 130.52 207.723 128.981 207.118Z" fill="#00A2B5"/>
<path fill-rule="evenodd" clip-rule="evenodd" d="M181.868 231.231C181.648 231.231 181.539 230.936 181.539 230.349C181.539 229.393 180.989 227.541 179.89 224.786C178.791 222.03 178.022 220.651 177.582 220.651C177.218 220.651 176.998 220.743 176.923 220.928C176.848 221.109 176.593 221.202 176.154 221.202C175.64 221.202 175.002 220.836 174.233 220.099C173.464 219.363 173.077 218.777 173.077 218.336C173.077 218.191 173.407 217.547 174.066 216.409C174.725 215.268 175.13 214.699 175.275 214.699C176.888 214.699 178.334 215.673 179.618 217.622C180.897 219.566 181.793 222.083 182.308 225.169C182.382 225.465 182.418 225.645 182.418 225.72H182.528C182.602 225.645 182.673 225.465 182.747 225.169C183.042 223.331 183.701 220.576 184.725 216.903C185.75 214.258 186.923 212.935 188.242 212.935C188.901 212.935 189.543 213.359 190.167 214.205C190.787 215.047 191.099 215.691 191.099 216.132C191.099 216.498 190.989 217.049 190.769 217.785C190.55 218.521 190.255 218.887 189.89 218.887C189.745 218.887 189.433 218.574 188.958 217.952C188.479 217.326 187.987 217.013 187.473 217.013C186.299 217.013 185.24 219.734 184.286 225.169C183.552 229.212 182.747 231.231 181.868 231.231Z" fill="#00A2B5"/>
<path fill-rule="evenodd" clip-rule="evenodd" d="M200.879 194.75C200.879 194.604 201.174 194.199 201.758 193.538C204.98 190.011 206.593 187.661 206.593 186.484C206.593 185.307 206.079 184.72 205.055 184.72C204.541 184.72 204.084 184.866 203.684 185.161C203.279 185.457 203.002 185.602 202.857 185.602L202.637 185.492L202.747 184.831C203.262 182.26 204.505 180.973 206.484 180.973C208.097 180.973 208.901 181.965 208.901 183.949C208.901 185.417 208.277 187.11 207.033 189.019C205.789 190.928 204.176 192.581 202.198 193.978C201.464 194.494 201.024 194.75 200.879 194.75Z" fill="#00A2B5"/>
<path fill-rule="evenodd" clip-rule="evenodd" d="M195.934 38.465C194.47 38.465 193.736 37.6582 193.736 36.0402C193.736 34.6427 194.431 32.9542 195.824 30.9703C196.998 29.2069 198.097 27.9945 199.121 27.3333H199.341C199.486 27.3333 199.56 27.4082 199.56 27.5537C199.56 27.6992 199.486 27.8491 199.341 27.9945C198.536 28.7308 197.71 29.7403 196.87 31.0277C196.026 32.3106 195.604 33.2849 195.604 33.9462C195.969 33.6508 196.448 33.5053 197.033 33.5053C198.277 33.5053 198.901 34.0564 198.901 35.1585C198.901 36.1152 198.571 36.9043 197.912 37.5303C197.253 38.152 196.593 38.465 195.934 38.465Z" fill="#00A2B5"/>
<path fill-rule="evenodd" clip-rule="evenodd" d="M204.176 170.723C202.343 170.723 201.429 169.145 201.429 165.984C201.429 162.162 202.527 158.159 204.725 153.97L205.714 152.317L205.824 152.427C205.824 152.648 205.64 153.234 205.275 154.191C203.881 158.599 203.187 161.685 203.187 163.449C203.187 165.799 203.811 166.976 205.055 166.976C205.789 166.976 206.629 166.059 207.582 164.22L208.022 163.779V164.331C207.218 168.594 205.934 170.723 204.176 170.723Z" fill="#00A2B5"/>
<path fill-rule="evenodd" clip-rule="evenodd" d="M194.945 98.7527C192.453 98.7527 191.209 96.4029 191.209 91.699C191.209 90.3764 191.354 88.9436 191.648 87.4006C191.868 86.2984 192.822 83.1022 194.506 77.8119C195.604 74.6509 196.154 70.9036 196.154 66.5699L196.044 63.1533C195.824 57.2766 193.222 51.8364 188.242 46.8414C188.022 46.621 187.912 46.4006 187.912 46.1801C187.912 45.9597 188.571 44.6724 189.89 42.3226C190.035 42.1771 190.145 42.1022 190.22 42.1022C190.365 42.1022 190.514 42.1771 190.659 42.3226C193.736 45.3337 195.789 48.0891 196.813 50.5887C197.618 52.7181 198.167 56.1348 198.462 60.8387C198.607 61.9409 198.681 62.9681 198.681 63.9248C198.681 67.5971 197.802 72.1159 196.044 77.4812C194.286 82.8465 193.407 86.6291 193.407 88.8334C193.407 91.9943 194.321 93.5726 196.154 93.5726C197.178 93.5726 198.352 92.325 199.67 89.8253C199.89 89.3844 200.075 89.164 200.22 89.164V89.9355C199.121 95.8122 197.363 98.7527 194.945 98.7527Z" fill="#00A2B5"/>
<path fill-rule="evenodd" clip-rule="evenodd" d="M156.813 151.986C154.541 151.986 153.407 150.884 153.407 148.68C153.407 147.137 154.321 144.822 156.154 141.736C157.987 138.65 159.525 137.107 160.769 137.107C161.868 137.107 162.84 137.606 163.684 138.598C164.523 139.589 164.945 140.819 164.945 142.288C164.945 144.492 164.158 146.661 162.585 148.79C161.007 150.92 159.086 151.986 156.813 151.986ZM158.462 147.468C161.464 147.468 162.967 146.586 162.967 144.822C162.892 142.693 161.464 141.626 158.681 141.626C158.242 141.626 157.565 142.288 156.651 143.61C155.732 144.933 155.275 145.85 155.275 146.365C155.569 147.102 156.629 147.468 158.462 147.468Z" fill="#00A2B5"/>
<path fill-rule="evenodd" clip-rule="evenodd" d="M150.22 167.196C150.659 165.433 151.354 163.559 152.308 161.575C160.075 158.855 168.536 155.844 177.692 152.538C178.132 152.392 178.462 152.317 178.681 152.317C178.826 152.317 178.901 152.392 178.901 152.538C178.901 152.758 178.826 153.014 178.681 153.309C177.947 155.072 177.363 156.139 176.923 156.505C169.231 159.225 160.33 162.788 150.22 167.196Z" fill="#00A2B5"/>
<path fill-rule="evenodd" clip-rule="evenodd" d="M156.154 191.223C156.079 191.223 156.009 191.113 155.934 190.892C156.079 190.011 156.229 189.186 156.374 188.415C156.519 187.643 157.767 186.374 160.11 184.61C157.178 183.583 155.714 182.26 155.714 180.642C155.714 178.879 156.483 177.08 158.022 175.242C160.954 171.715 163.407 169.952 165.385 169.952C167.143 169.952 168.022 170.944 168.022 172.927C168.022 174.03 167.547 175.352 166.593 176.895C166.519 177.041 166.409 177.116 166.264 177.116C166.189 177.116 166.079 177.005 165.934 176.785C165.349 175.608 164.615 175.021 163.736 175.021C163.002 175.021 162.163 175.352 161.209 176.013C160.255 176.675 159.78 177.301 159.78 177.887C159.78 178.473 160.365 179.082 161.538 179.708C162.712 180.329 163.661 180.642 164.396 180.642C165.055 180.642 166.229 180.166 167.912 179.21C168.716 178.623 169.525 178.107 170.33 177.667L171.429 176.895C172.382 176.454 172.932 176.234 173.077 176.234C173.222 176.309 173.297 176.454 173.297 176.675L173.077 177.556C172.712 179.245 172.233 180.347 171.648 180.863C169.45 182.185 164.65 185.382 157.253 190.452L156.154 191.223Z" fill="#00A2B5"/>
<path fill-rule="evenodd" clip-rule="evenodd" d="M168.791 137.769C168.646 137.769 168.572 137.733 168.572 137.658C168.572 137.293 170.035 136.261 172.967 134.572L184.506 127.739C190.145 124.287 194.361 121.091 197.143 118.15C193.481 116.241 191.648 114.218 191.648 112.089C191.648 109.518 192.822 107.164 195.165 105.035C196.998 103.346 198.572 102.5 199.89 102.5C201.943 102.5 202.967 103.968 202.967 106.908C202.967 109.038 202.528 111.427 201.648 114.072C203.552 115.175 204.725 116.092 205.165 116.828C205.165 117.855 204.321 119.583 202.637 122.008C202.198 121.272 201.064 120.355 199.231 119.253C197.178 122.118 194.541 124.728 191.319 127.078C187.728 129.798 184.396 131.817 181.319 133.14C180.659 133.506 177.143 134.868 170.769 137.218C169.815 137.584 169.156 137.769 168.791 137.769ZM199.451 112.97C199.67 112.234 199.78 111.502 199.78 110.766C199.78 108.637 199.156 107.57 197.912 107.57C197.473 107.57 196.87 107.773 196.101 108.178C195.332 108.579 194.945 109.003 194.945 109.443C194.945 110.325 196.448 111.502 199.451 112.97Z" fill="#00A2B5"/>
<path fill-rule="evenodd" clip-rule="evenodd" d="M62.967 129.613L62.6373 129.503C59.6351 127.153 56.5582 124.984 53.4066 123L53.2967 122.78L57.1428 114.403C57.4373 113.962 57.6923 113.742 57.912 113.742C58.3516 113.742 59.8373 114.606 62.3648 116.334C64.8923 118.058 66.5582 119.288 67.3626 120.024L70.4395 113.742C70.6593 113.301 70.9142 113.081 71.2087 113.081C71.6483 113.081 73.3714 114.108 76.3736 116.167C79.3758 118.225 80.8791 119.438 80.8791 119.804C80.8791 121.201 79.5604 124.067 76.923 128.4C76.7033 128.696 76.4835 128.841 76.2637 128.841C76.1186 128.841 76.0087 128.806 75.934 128.731C73.2967 126.822 70.2945 124.763 66.923 122.559C65.8241 125.129 64.7252 127.298 63.6263 129.062C63.4066 129.428 63.1868 129.613 62.967 129.613Z" fill="#00A2B5"/>
<path fill-rule="evenodd" clip-rule="evenodd" d="M184.286 153.309L183.956 153.199C180.954 150.92 177.877 148.755 174.725 146.696L174.615 146.476C174.615 146.33 175.934 143.535 178.572 138.099C178.791 137.659 179.046 137.438 179.341 137.438C179.706 137.438 181.174 138.302 183.736 140.03C186.299 141.754 187.947 142.984 188.681 143.72L191.758 137.438C192.053 136.997 192.308 136.777 192.528 136.777C192.967 136.777 194.708 137.804 197.75 139.863C200.787 141.922 202.308 143.134 202.308 143.5C202.308 144.897 200.954 147.763 198.242 152.097C198.022 152.392 197.837 152.538 197.692 152.538L197.253 152.427C194.615 150.518 191.648 148.46 188.352 146.255C186.229 150.959 184.87 153.309 184.286 153.309Z" fill="#00A2B5"/>
<path fill-rule="evenodd" clip-rule="evenodd" d="M86.2638 191.333L85.9342 191.223C82.932 188.944 79.855 186.779 76.7034 184.72L76.5935 184.5L80.4397 176.124C80.7342 175.683 80.9891 175.462 81.2089 175.462C81.6485 175.462 83.3891 176.512 86.4309 178.606C89.4682 180.7 90.9891 181.89 90.9891 182.185C90.9891 183.583 89.6353 186.449 86.9232 190.782C86.7034 191.148 86.4836 191.333 86.2638 191.333Z" fill="#00A2B5"/>
<path fill-rule="evenodd" clip-rule="evenodd" d="M178.681 129.392C178.462 129.317 178.352 128.766 178.352 127.739C178.352 126.932 178.426 125.83 178.571 124.433C179.011 121.201 179.231 117.454 179.231 113.191C179.231 109.298 178.426 96.0325 176.813 73.4032C175.2 50.7738 174.396 37.8037 174.396 34.4973C174.396 30.6045 173.811 27.4082 172.637 24.9086C172.637 23.511 173.736 20.2046 175.934 14.9892C176.229 14.3279 176.483 13.9973 176.703 13.9973C177.143 13.9973 178.866 18.1105 181.868 26.3414C185.09 34.6428 186.703 39.4217 186.703 40.6693C186.703 41.2557 186.519 41.551 186.154 41.551C185.42 41.551 183.881 40.1932 181.538 37.4731C181.393 37.3276 181.283 37.2526 181.209 37.2526C181.064 37.2526 180.989 37.5833 180.989 38.2446C180.989 38.6105 181.683 48.3491 183.077 67.4516C184.47 86.554 185.165 97.6505 185.165 100.737C185.165 110.07 183.736 118.296 180.879 125.425C179.78 127.995 179.046 129.317 178.681 129.392Z" fill="#FFB000"/>
<path fill-rule="evenodd" clip-rule="evenodd" d="M64.8351 225.72C49.8154 225.72 39.4505 218.336 33.7362 203.567C32.6373 200.702 32.0879 197.029 32.0879 192.546C32.0879 185.051 33.3318 178.108 35.8242 171.715C36.189 170.688 36.5934 170.172 37.0329 170.172C37.2527 170.172 37.3626 170.428 37.3626 170.944L37.2527 172.156C35.4945 179.43 34.6154 184.244 34.6154 186.594C34.6154 192.691 36.6285 198.312 40.6593 203.457C46.2285 210.29 54.2505 213.707 64.7252 213.707C73.8813 213.707 83.6263 211.538 93.956 207.204C102.233 203.752 109.705 199.414 116.374 194.199C122.308 189.57 125.275 186.228 125.275 184.169C125.275 183.874 124.066 181.269 121.648 176.344C118.646 170.613 116.448 165.027 115.055 159.591C114.47 157.753 113.793 156.505 113.024 155.844C112.255 155.183 111.868 154.486 111.868 153.75C111.868 153.234 112.418 150.298 113.516 144.933C113.736 143.976 113.991 143.5 114.286 143.5C114.651 143.5 115.055 143.72 115.494 144.161C117.033 145.85 120.294 149.196 125.275 154.191C126.079 154.998 126.483 155.624 126.483 156.065C126.483 156.651 126.009 156.946 125.055 156.946C124.031 156.946 122.492 156.616 120.44 155.954C120.585 156.616 122.233 160.143 125.385 166.535C127.947 171.75 129.231 176.234 129.231 179.981C129.231 187.476 127.582 193.132 124.286 196.954C118.936 203.126 111.174 209.113 100.989 214.919C88.0219 222.119 75.9692 225.72 64.8351 225.72Z" fill="#FF6106"/>
<path fill-rule="evenodd" clip-rule="evenodd" d="M190.769 194.97C193.991 198.202 197.877 199.82 202.418 199.82C206.299 199.82 210.075 198.387 213.736 195.521C214.76 194.494 215.275 191.223 215.275 185.712C215.275 182.406 213.846 161.17 210.989 122.008C208.132 82.7714 206.703 61.0943 206.703 56.9811C206.703 53.0883 206.079 49.9273 204.835 47.5026C204.835 46.0345 205.969 42.7281 208.242 37.5832C208.462 36.9969 208.646 36.7015 208.791 36.7015C209.231 36.7015 209.56 36.9969 209.78 37.5832C210.365 39.0513 211.903 42.7633 214.396 48.7149C216.593 55.2529 218.022 59.2603 218.681 60.7284C218.901 61.976 219.011 62.7872 219.011 63.1531C219.011 64.9915 217.363 63.9599 214.066 60.0671C213.626 59.4808 213.407 59.7012 213.407 60.7284C213.407 60.9488 214.651 79.2093 217.143 115.505C219.78 151.801 221.099 172.01 221.099 176.124C221.099 187.661 219.046 196.809 214.945 203.567C211.503 209.078 207.327 211.833 202.418 211.833C198.097 211.833 193.591 209.885 188.901 205.992C186.409 203.933 184.47 201.693 183.077 199.269L169.89 205.11C163.736 207.535 159.121 209.483 156.044 210.952C150.11 213.817 146.009 216.167 143.736 218.005C139.635 221.091 133.701 227.153 125.934 236.191C121.244 241.702 116.558 244.457 111.868 244.457C107.767 244.457 104.286 242.619 101.429 238.946C98.3516 235.274 96.8131 230.755 96.8131 225.39C96.8131 218.041 99.7802 208.417 105.714 196.513C106.299 195.266 106.813 194.64 107.253 194.64C107.472 194.64 107.582 194.75 107.582 194.97C107.582 196.147 106.229 200.336 103.516 207.535C100.879 214.734 99.5604 220.395 99.5604 224.508C99.5604 227.594 100.294 230.054 101.758 231.892C103.371 233.951 105.604 234.978 108.461 234.978C113.371 234.978 118.277 232.518 123.187 227.594C125.02 225.315 126.848 223.15 128.681 221.091L133.077 216.132C137.108 211.428 142.527 207.239 149.341 203.567C153.222 201.288 160.075 198.092 169.89 193.978L179.67 190.011C178.277 186.118 177.582 182.221 177.582 178.328C177.582 172.376 178.497 167.562 180.33 163.89C182.163 160.142 184.505 158.269 187.363 158.269C189.78 158.269 192.233 160.438 194.725 164.771C196.778 168.664 197.802 172.156 197.802 175.242C197.802 183.252 195.459 189.826 190.769 194.97ZM184.835 187.586C186.519 186.85 188.462 185.712 190.659 184.169C193.297 182.406 194.615 181.158 194.615 180.422C194.615 179.099 193.534 177.005 191.376 174.14C189.213 171.274 187.327 169.841 185.714 169.841C184.47 169.841 183.262 170.595 182.088 172.103C180.914 173.606 180.33 175.057 180.33 176.454C180.33 177.631 180.954 179.65 182.198 182.516C183.371 185.086 184.251 186.779 184.835 187.586Z" fill="#FF6106"/>
<path fill-rule="evenodd" clip-rule="evenodd" d="M231.758 178.879C231.464 178.879 231.319 178.403 231.319 177.446C231.319 176.639 231.429 175.462 231.648 173.919C232.013 170.758 232.198 167.011 232.198 162.677C232.198 158.855 231.393 145.629 229.78 123C228.167 100.371 227.363 87.3653 227.363 83.9839C227.363 80.1616 226.778 77.0051 225.604 74.5054C225.604 73.1078 226.703 69.7661 228.901 64.4758C229.196 63.8895 229.486 63.5941 229.78 63.5941C229.925 63.5941 230.185 63.9247 230.549 64.586C231.134 65.9835 232.62 69.8234 235.002 76.1057C237.38 82.388 238.791 86.2631 239.231 87.7312C239.525 88.8333 239.67 89.6798 239.67 90.2661C239.67 90.7819 239.525 91.0376 239.231 91.0376C238.497 91.0376 236.958 89.6798 234.615 86.9597L234.286 86.7392C234.066 86.7392 233.956 87.1052 233.956 87.8414C233.956 88.1368 234.651 97.8533 236.044 116.995C237.437 136.133 238.132 147.212 238.132 150.223C238.132 159.627 236.738 167.858 233.956 174.911C232.932 177.556 232.198 178.879 231.758 178.879Z" fill="#FF6106"/>
</g>
<defs>
<clipPath id="clip0_10_706">
<rect width="240" height="246" fill="white"/>
</clipPath>
</defs>
</svg>
