<svg width="266" height="266" viewBox="0 0 266 266" fill="none" xmlns="http://www.w3.org/2000/svg">
<rect width="266" height="266" rx="29" fill="#F6F6F6"/>
<path d="M53.0121 31.2924C53.0121 26.5561 56.8515 22.7167 61.5878 22.7167H209.55C210.903 22.7167 212 23.8137 212 25.1669V232.25C212 233.604 210.903 234.701 209.55 234.701H61.5878C56.8515 234.701 53.0121 230.861 53.0121 226.125V31.2924Z" fill="#5574B3"/>
<path fill-rule="evenodd" clip-rule="evenodd" d="M96.2107 102.211C98.4532 91.7043 106.445 76.3034 132.506 69.0882C158.567 76.3034 166.559 91.7043 168.801 102.211H169.276C176.042 102.211 181.527 107.696 181.527 114.462V144.281C181.527 151.047 176.042 156.532 169.276 156.532H168.665C166.244 167.016 158.064 181.965 132.506 189.041C106.948 181.965 98.7681 167.016 96.3469 156.532H94.4109C87.6448 156.532 82.1599 151.047 82.1599 144.281V114.462C82.1599 107.696 87.6448 102.211 94.4109 102.211H96.2107Z" fill="#FEFFBE"/>
<g clip-path="url(#clip0_10_108)">
<path fill-rule="evenodd" clip-rule="evenodd" d="M138.437 131.899C138.698 138.092 138.821 141.519 138.803 142.182C138.733 144.536 138.262 146.516 137.39 148.121C137.32 148.225 137.268 148.278 137.233 148.278C137.181 148.278 137.155 148.165 137.155 147.938C137.173 147.763 137.199 147.527 137.233 147.231C137.32 146.533 137.382 145.732 137.416 144.824C137.434 144.005 137.303 140.036 137.024 132.92C137.006 132.571 136.998 132.222 136.998 131.873C136.684 122.75 136.535 117.867 136.553 117.221C136.571 116.402 136.466 115.712 136.239 115.154C136.257 114.806 136.519 114.1 137.024 113.035C137.076 112.913 137.129 112.852 137.181 112.852C137.251 112.852 137.312 112.922 137.364 113.061C137.487 113.358 137.774 114.178 138.228 115.521C138.855 117.334 139.169 118.373 139.169 118.634C139.152 118.757 139.109 118.817 139.039 118.817C138.882 118.8 138.559 118.495 138.071 117.902C138.036 117.867 138.01 117.849 137.992 117.849C137.958 117.849 137.94 117.919 137.94 118.059C137.94 118.146 138.105 122.76 138.437 131.899Z" fill="#FF6106"/>
<path fill-rule="evenodd" clip-rule="evenodd" d="M106.072 117.091C106.072 117.073 106.125 117.004 106.229 116.881C106.735 116.323 106.988 115.948 106.988 115.756C106.988 115.581 106.91 115.495 106.753 115.495C106.666 115.495 106.587 115.517 106.517 115.561C106.447 115.603 106.404 115.625 106.386 115.625H106.36L106.386 115.468C106.473 115.084 106.666 114.893 106.962 114.893C107.224 114.893 107.354 115.05 107.354 115.364C107.354 115.608 107.254 115.879 107.054 116.175C106.853 116.471 106.596 116.733 106.282 116.96C106.159 117.047 106.09 117.091 106.072 117.091Z" fill="#00A2B5"/>
<path fill-rule="evenodd" clip-rule="evenodd" d="M108.506 146.734C108.506 146.716 108.558 146.647 108.663 146.525C109.168 145.967 109.421 145.591 109.421 145.4C109.421 145.225 109.343 145.138 109.186 145.138C109.099 145.138 109.02 145.16 108.95 145.204C108.88 145.247 108.837 145.269 108.819 145.269H108.793L108.819 145.112C108.906 144.728 109.099 144.536 109.395 144.536C109.657 144.536 109.788 144.693 109.788 145.007C109.788 145.251 109.687 145.522 109.487 145.818C109.286 146.115 109.029 146.376 108.715 146.603C108.592 146.69 108.523 146.734 108.506 146.734Z" fill="#00A2B5"/>
<path fill-rule="evenodd" clip-rule="evenodd" d="M150.891 132.266C150.891 132.248 150.951 132.169 151.074 132.03C151.667 131.384 151.964 130.957 151.964 130.748C151.964 130.539 151.867 130.434 151.676 130.434C151.571 130.434 151.466 130.469 151.362 130.539L151.257 130.591L151.231 130.565L151.257 130.408C151.344 129.955 151.563 129.728 151.911 129.728C152.207 129.728 152.356 129.911 152.356 130.277C152.356 130.557 152.243 130.87 152.016 131.219C151.789 131.567 151.501 131.865 151.152 132.109C150.995 132.213 150.909 132.266 150.891 132.266Z" fill="#00A2B5"/>
<path fill-rule="evenodd" clip-rule="evenodd" d="M136.658 111.308C136.658 111.256 136.745 111.107 136.919 110.864C137.757 109.66 138.175 108.857 138.175 108.457V108.378C138.123 108.064 137.974 107.907 137.73 107.907C137.469 107.907 137.268 107.977 137.129 108.116L136.919 108.273C136.919 108.256 136.893 108.247 136.841 108.247C136.859 108.195 136.867 108.09 136.867 107.933C136.937 107.131 137.277 106.686 137.887 106.599H138.044C138.463 106.599 138.707 106.887 138.777 107.462L138.803 107.724C138.803 108.143 138.672 108.622 138.411 109.163C138.097 109.843 137.652 110.453 137.076 110.994C136.849 111.204 136.71 111.308 136.658 111.308Z" fill="#00A2B5"/>
<path fill-rule="evenodd" clip-rule="evenodd" d="M112.639 134.332C112.587 134.332 112.561 134.262 112.561 134.123C112.561 133.879 112.422 133.413 112.142 132.724C111.863 132.034 111.671 131.69 111.567 131.69C111.48 131.69 111.427 131.716 111.41 131.768C111.392 131.821 111.331 131.847 111.227 131.847C111.087 131.847 110.921 131.756 110.729 131.573C110.538 131.39 110.442 131.245 110.442 131.141C110.442 131.088 110.524 130.923 110.691 130.643C110.856 130.364 110.956 130.225 110.991 130.225C111.392 130.225 111.754 130.464 112.077 130.945C112.4 131.424 112.631 132.056 112.77 132.841V132.972H112.796C112.814 132.972 112.822 132.964 112.822 132.946C112.822 132.928 112.84 132.893 112.875 132.841C112.927 132.37 113.084 131.682 113.346 130.774C113.625 130.112 113.921 129.78 114.235 129.78C114.41 129.78 114.571 129.885 114.72 130.094C114.867 130.303 114.942 130.469 114.942 130.591C114.942 130.678 114.916 130.814 114.863 130.997C114.811 131.18 114.741 131.271 114.654 131.271C114.619 131.271 114.541 131.193 114.418 131.036C114.296 130.879 114.165 130.8 114.026 130.8C113.747 130.8 113.485 131.481 113.241 132.841C113.136 133.435 113.014 133.853 112.875 134.097C112.788 134.254 112.709 134.332 112.639 134.332Z" fill="#00A2B5"/>
<path fill-rule="evenodd" clip-rule="evenodd" d="M110.232 124.05C110.162 124.05 110.128 123.972 110.128 123.815C110.128 123.571 109.993 123.104 109.723 122.415C109.452 121.726 109.264 121.381 109.16 121.381C109.073 121.381 109.016 121.408 108.99 121.46C108.964 121.512 108.898 121.538 108.793 121.538C108.671 121.538 108.514 121.447 108.322 121.264C108.131 121.081 108.035 120.937 108.035 120.832C108.035 120.78 108.117 120.618 108.284 120.348C108.449 120.077 108.549 119.942 108.584 119.942C108.985 119.942 109.347 120.178 109.67 120.649C109.993 121.12 110.215 121.748 110.337 122.533L110.363 122.585V122.663H110.389C110.407 122.663 110.42 122.651 110.429 122.625C110.437 122.599 110.45 122.567 110.468 122.533C110.52 122.062 110.677 121.373 110.939 120.466C111.2 119.803 111.497 119.471 111.828 119.471C112.003 119.471 112.164 119.576 112.313 119.785C112.46 119.995 112.535 120.16 112.535 120.283C112.535 120.387 112.509 120.51 112.456 120.649C112.404 120.858 112.334 120.963 112.247 120.963C112.212 120.963 112.134 120.884 112.011 120.727C111.889 120.57 111.758 120.492 111.619 120.492C111.34 120.492 111.078 121.172 110.834 122.533C110.625 123.545 110.424 124.05 110.232 124.05Z" fill="#00A2B5"/>
<path fill-rule="evenodd" clip-rule="evenodd" d="M132.314 127.347C134.599 128.516 136.745 128.925 138.751 128.576C139.675 128.576 140.574 128.236 141.446 127.556C141.689 127.365 141.812 126.614 141.812 125.306C141.812 124.469 141.594 121.251 141.158 115.652C140.774 110 140.582 106.686 140.582 105.709C140.582 104.785 140.434 104.035 140.137 103.459C140.137 103.111 140.407 102.3 140.949 101.026C140.983 100.887 141.027 100.817 141.079 100.817C141.132 100.817 141.21 100.913 141.315 101.105C141.454 101.401 141.794 102.282 142.335 103.747C142.37 103.834 142.388 103.904 142.388 103.956C142.929 105.369 143.251 106.25 143.356 106.599C143.442 106.895 143.486 107.088 143.486 107.175C143.486 107.559 143.076 107.314 142.257 106.442C142.152 106.303 142.1 106.355 142.1 106.599C142.1 106.651 142.301 109.155 142.702 114.108C143.033 119.044 143.199 121.992 143.199 122.951C143.199 125.742 142.71 127.914 141.733 129.466C140.809 130.74 139.815 131.394 138.751 131.428C135.629 131.638 132.995 130.975 130.849 129.44L127.343 126.902C127.204 126.763 127.038 126.614 126.846 126.457C126.637 126.37 126.515 126.326 126.48 126.326C126.428 126.326 126.472 126.449 126.611 126.693C127.152 127.705 127.422 128.437 127.422 128.89C127.422 130.495 126.864 131.708 125.747 132.527C124.858 133.121 122.956 133.922 120.044 134.934L119.52 135.17C118.055 135.798 117.087 136.329 116.616 136.766C115.587 137.498 114.148 138.963 112.299 141.161C111.183 142.417 110.058 143.045 108.924 143.045C108 143.045 107.197 142.635 106.517 141.815C105.732 140.891 105.34 139.792 105.34 138.519C105.34 136.774 106.072 134.489 107.537 131.664C107.694 131.368 107.817 131.219 107.904 131.219C107.956 131.219 107.982 131.271 107.982 131.376C107.982 131.62 107.668 132.588 107.04 134.28C106.395 135.989 106.072 137.333 106.072 138.309C106.072 139.042 106.247 139.626 106.596 140.062C106.98 140.551 107.493 140.795 108.139 140.795C109.308 140.795 110.494 140.211 111.697 139.042L112.875 137.655C113.223 137.219 113.59 136.784 113.974 136.347C115.002 135.214 116.32 134.21 117.924 133.338C118.849 132.85 120.48 132.195 122.817 131.376C124.421 130.783 125.538 130.295 126.166 129.911C126.462 129.754 126.567 129.536 126.48 129.257C125.939 127.687 123.793 125.664 120.044 123.187L110.546 116.96C110.11 116.716 109.665 116.454 109.212 116.175C109.125 116.07 109.081 115.748 109.081 115.207C109.081 114.527 109.177 113.802 109.369 113.035C109.56 112.198 109.805 111.683 110.101 111.492C112.09 110.026 116.399 108.072 123.026 105.631C129.759 103.154 134.198 101.916 136.344 101.916C136.972 101.916 137.408 102.012 137.652 102.203C137.896 102.447 138.018 102.814 138.018 103.302C138.018 104.419 137.189 105.832 135.533 107.541L134.512 108.43C134.216 108.674 133.919 108.936 133.623 109.215C132.611 110.192 131.93 110.977 131.582 111.57C131.338 111.954 131.172 112.146 131.085 112.146C131.032 112.146 131.076 111.876 131.216 111.335C131.268 111.055 131.538 110.55 132.027 109.817C132.463 109.137 132.803 108.692 133.047 108.483C134.949 106.79 136.09 105.675 136.475 105.134V104.924C136.475 104.628 135.943 104.48 134.879 104.48C133.222 104.48 129.227 105.649 122.896 107.986C116.564 110.375 112.229 112.32 109.892 113.82C109.735 113.925 109.753 114.021 109.944 114.108C112.003 115.137 114.052 116.193 116.093 117.274C120.925 119.89 125.19 122.472 128.887 125.018C130.004 125.785 131.146 126.562 132.314 127.347Z" fill="#FFB000"/>
<path fill-rule="evenodd" clip-rule="evenodd" d="M125.146 117.849C125.111 117.762 125.076 117.632 125.041 117.457L125.015 117.405C124.369 115.8 123.924 114.221 123.681 112.669C123.646 112.373 123.602 112.198 123.55 112.146C123.497 111.902 123.349 111.657 123.105 111.413L123.916 109.869C124.055 109.626 124.178 109.503 124.282 109.503C124.335 109.503 124.457 109.626 124.649 109.869L126.689 112.512C126.986 112.86 127.134 113.105 127.134 113.244C127.134 113.384 127.056 113.454 126.899 113.454C126.655 113.454 126.218 113.288 125.59 112.957C125.782 113.969 126.201 115.233 126.846 116.75C126.986 117.135 127.466 117.544 128.285 117.98C129.123 118.469 130.151 118.861 131.373 119.158C131.861 119.314 132.079 119.585 132.027 119.969L131.582 121.852C131.53 122.062 131.26 122.062 130.771 121.852C129.515 121.277 127.963 120.989 126.114 120.989C123.568 120.989 120.523 122.106 116.983 124.338C116.198 124.827 115.439 125.314 114.706 125.803L111.488 128.001C110.128 128.786 108.89 129.178 107.773 129.178C106.604 129.178 105.575 128.76 104.686 127.922C103.762 127.051 103.299 125.978 103.299 124.704C103.299 122.907 104.206 120.597 106.02 117.771C106.212 117.527 106.352 117.405 106.439 117.405C106.491 117.405 106.517 117.431 106.517 117.483C106.517 117.779 106.125 118.773 105.34 120.466C104.573 122.122 104.189 123.466 104.189 124.495C104.189 125.228 104.432 125.811 104.921 126.248C105.358 126.737 105.985 126.98 106.805 126.98C108.131 126.98 109.377 126.64 110.546 125.96C112.046 124.931 113.503 123.911 114.916 122.899C117.305 121.329 119.547 120.108 121.64 119.236C123.244 118.608 124.439 118.294 125.224 118.294C125.172 118.189 125.146 118.041 125.146 117.849Z" fill="#FFB000"/>
<path fill-rule="evenodd" clip-rule="evenodd" d="M132.393 125.855C132.393 125.821 132.48 125.707 132.655 125.515C133.544 124.556 133.989 123.911 133.989 123.579C133.989 123.283 133.85 123.134 133.57 123.134C133.413 123.134 133.278 123.169 133.165 123.239C133.051 123.309 132.986 123.352 132.969 123.37L132.89 123.318C132.908 123.3 132.925 123.221 132.942 123.082C133.082 122.42 133.413 122.088 133.937 122.088C134.373 122.088 134.591 122.358 134.591 122.899C134.591 123.3 134.425 123.762 134.094 124.286C133.762 124.809 133.327 125.262 132.785 125.646C132.576 125.785 132.445 125.855 132.393 125.855Z" fill="#00A2B5"/>
<path fill-rule="evenodd" clip-rule="evenodd" d="M103.273 134.149C103.273 134.115 103.369 133.992 103.561 133.783C104.502 132.737 104.973 132.038 104.973 131.69C104.973 131.358 104.825 131.193 104.529 131.193C104.354 131.193 104.206 131.237 104.084 131.324C103.961 131.411 103.892 131.454 103.875 131.454C103.857 131.437 103.831 131.428 103.796 131.428C103.814 131.394 103.831 131.298 103.848 131.141C104.005 130.426 104.363 130.068 104.921 130.068C105.392 130.068 105.628 130.364 105.628 130.957C105.628 131.394 105.449 131.895 105.092 132.462C104.734 133.029 104.267 133.513 103.691 133.914C103.448 134.071 103.307 134.149 103.273 134.149Z" fill="#00A2B5"/>
<path fill-rule="evenodd" clip-rule="evenodd" d="M114.235 106.442C114.322 106.058 114.489 105.631 114.732 105.16C119.477 103.363 124.352 101.541 129.358 99.6917L129.594 99.6393H129.633C129.642 99.6393 129.646 99.6571 129.646 99.6917C129.646 99.7262 129.628 99.7879 129.594 99.8748C129.419 100.293 129.293 100.537 129.215 100.607C129.136 100.678 126.786 101.575 122.163 103.302C117.436 105.081 114.793 106.128 114.235 106.442Z" fill="#00A2B5"/>
<path fill-rule="evenodd" clip-rule="evenodd" d="M132.131 118.425C132.061 118.425 132.027 118.329 132.027 118.137C132.027 117.823 131.852 117.226 131.503 116.345C131.155 115.464 130.91 115.024 130.771 115.024C130.666 115.024 130.601 115.058 130.575 115.128C130.549 115.198 130.465 115.233 130.326 115.233C130.169 115.233 129.964 115.116 129.712 114.88C129.458 114.645 129.332 114.456 129.332 114.317C129.332 114.265 129.437 114.06 129.646 113.703C129.855 113.345 129.986 113.166 130.038 113.166C130.562 113.166 131.028 113.472 131.439 114.082C131.848 114.692 132.131 115.495 132.288 116.489L132.315 116.541V116.672H132.341C132.358 116.672 132.367 116.664 132.367 116.646C132.367 116.628 132.385 116.576 132.419 116.489C132.506 115.895 132.715 115.015 133.047 113.846C133.396 113.009 133.771 112.59 134.172 112.59C134.399 112.59 134.609 112.725 134.8 112.996C134.992 113.266 135.088 113.48 135.088 113.637C135.088 113.759 135.053 113.929 134.983 114.148C134.913 114.365 134.818 114.474 134.695 114.474C134.661 114.474 134.565 114.378 134.408 114.186C134.251 113.995 134.085 113.899 133.911 113.899C133.544 113.899 133.204 114.762 132.89 116.489C132.768 117.256 132.62 117.789 132.445 118.085C132.323 118.312 132.218 118.425 132.131 118.425Z" fill="#00A2B5"/>
<path fill-rule="evenodd" clip-rule="evenodd" d="M120.175 148.984V148.958C120.175 148.94 120.245 148.836 120.384 148.644C121.046 147.772 121.378 147.197 121.378 146.917C121.378 146.638 121.256 146.499 121.012 146.499C120.873 146.499 120.742 146.551 120.619 146.656L120.462 146.76L120.41 146.734C120.428 146.7 120.436 146.629 120.436 146.525C120.506 145.897 120.794 145.583 121.3 145.583C121.631 145.583 121.815 145.801 121.849 146.237V146.368C121.849 146.682 121.744 147.048 121.535 147.467C121.273 147.955 120.925 148.382 120.489 148.749C120.332 148.888 120.227 148.966 120.175 148.984Z" fill="#00A2B5"/>
<path fill-rule="evenodd" clip-rule="evenodd" d="M128.468 133.338H128.364C128.032 133.268 127.867 133.085 127.867 132.789C127.867 132.3 128.155 131.777 128.73 131.219C129.167 130.783 129.55 130.504 129.881 130.382H129.934C129.968 130.382 129.994 130.39 130.012 130.408C130.012 130.46 129.978 130.513 129.907 130.565C129.646 130.722 129.358 130.962 129.044 131.285C128.73 131.607 128.555 131.855 128.521 132.03C128.608 131.978 128.696 131.952 128.782 131.952L128.939 131.978C129.236 132.03 129.384 132.187 129.384 132.449C129.384 132.763 129.236 133.007 128.939 133.181C128.782 133.286 128.625 133.338 128.468 133.338Z" fill="#00A2B5"/>
<path fill-rule="evenodd" clip-rule="evenodd" d="M128.861 110.55C128.442 110.55 128.233 110.323 128.233 109.869C128.233 109.451 128.416 108.971 128.782 108.43C129.149 107.889 129.48 107.532 129.777 107.358L129.855 107.332C129.873 107.332 129.885 107.34 129.895 107.358C129.903 107.375 129.907 107.392 129.907 107.41C129.907 107.445 129.881 107.488 129.829 107.541C129.602 107.75 129.366 108.042 129.123 108.418C128.879 108.792 128.756 109.076 128.756 109.268C128.861 109.163 128.992 109.111 129.149 109.111C129.515 109.111 129.698 109.268 129.698 109.582C129.698 109.878 129.607 110.113 129.424 110.288C129.241 110.463 129.052 110.55 128.861 110.55Z" fill="#00A2B5"/>
<path fill-rule="evenodd" clip-rule="evenodd" d="M109.193 133.852L109.205 133.876C109.22 133.907 109.19 134.047 109.115 134.295C108.716 135.606 108.587 136.411 108.73 136.71C108.865 136.994 109.066 137.072 109.334 136.944C109.475 136.877 109.582 136.787 109.654 136.675C109.727 136.563 109.776 136.492 109.799 136.461L109.858 136.463L109.902 136.616C110.106 137.368 109.956 137.865 109.452 138.105C109.043 138.3 108.718 138.145 108.478 137.642C108.29 137.248 108.238 136.732 108.32 136.094C108.402 135.456 108.609 134.835 108.94 134.233C109.078 133.994 109.162 133.867 109.193 133.852Z" fill="#00A2B5"/>
<path fill-rule="evenodd" clip-rule="evenodd" d="M132.262 101.994V101.968C132.262 101.95 132.315 101.881 132.419 101.759C132.995 101.148 133.283 100.738 133.283 100.529C133.283 100.337 133.196 100.241 133.021 100.241C132.916 100.241 132.812 100.276 132.707 100.346L132.576 100.372L132.602 100.189C132.707 99.7702 132.925 99.5609 133.256 99.5609C133.536 99.5609 133.675 99.7356 133.675 100.084C133.675 100.346 133.566 100.642 133.349 100.974C133.13 101.305 132.846 101.593 132.498 101.837C132.358 101.942 132.28 101.994 132.262 101.994Z" fill="#00A2B5"/>
<path fill-rule="evenodd" clip-rule="evenodd" d="M135.376 140.952C135.114 140.952 134.923 140.787 134.8 140.455C134.73 140.28 134.695 140.071 134.695 139.827C134.695 139.547 134.739 139.233 134.826 138.885C134.965 138.292 135.149 137.856 135.376 137.577L135.428 137.524C135.48 137.524 135.506 137.551 135.506 137.603L135.48 137.708C135.341 137.987 135.227 138.344 135.14 138.78C135.07 139.06 135.036 139.277 135.036 139.434C135.036 139.557 135.053 139.652 135.088 139.722C135.21 139.495 135.402 139.382 135.663 139.382C135.873 139.382 136.012 139.487 136.082 139.696C136.134 139.819 136.161 139.94 136.161 140.062C136.161 140.202 136.126 140.342 136.056 140.481C135.951 140.69 135.812 140.829 135.637 140.9L135.376 140.952Z" fill="#00A2B5"/>
<path fill-rule="evenodd" clip-rule="evenodd" d="M134.198 136.426H134.172C134.172 136.391 134.216 136.269 134.303 136.059C134.635 135.204 134.8 134.612 134.8 134.28C134.8 134.193 134.792 134.123 134.774 134.071C134.704 133.896 134.599 133.809 134.46 133.809C134.268 133.809 134.111 133.896 133.989 134.071C133.919 134.158 133.876 134.202 133.858 134.202H133.806L133.754 133.705C133.754 133.268 133.928 132.99 134.277 132.867L134.486 132.815C134.73 132.815 134.923 132.99 135.062 133.338C135.132 133.513 135.166 133.713 135.166 133.94C135.166 134.655 134.923 135.379 134.434 136.112C134.311 136.303 134.233 136.408 134.198 136.426Z" fill="#00A2B5"/>
<path fill-rule="evenodd" clip-rule="evenodd" d="M120.776 155.865C120.532 155.847 120.41 155.708 120.41 155.447C120.41 155.22 120.515 154.95 120.724 154.636C120.933 154.322 121.125 154.112 121.3 154.008H121.326L121.378 154.034L121.352 154.112C121.213 154.235 121.073 154.404 120.933 154.623C120.794 154.841 120.724 155.002 120.724 155.107C120.776 155.054 120.855 155.028 120.959 155.028C121.151 155.028 121.247 155.115 121.247 155.29C121.247 155.464 121.195 155.604 121.09 155.708C120.986 155.813 120.881 155.865 120.776 155.865Z" fill="#00A2B5"/>
<path fill-rule="evenodd" clip-rule="evenodd" d="M129.75 153.563C129.75 153.528 129.829 153.424 129.986 153.249C130.753 152.412 131.137 151.854 131.137 151.574C131.137 151.313 131.015 151.182 130.771 151.182C130.632 151.182 130.513 151.212 130.418 151.274C130.322 151.335 130.265 151.373 130.248 151.391L130.195 151.365L130.221 151.234C130.326 150.589 130.614 150.266 131.085 150.266C131.469 150.266 131.66 150.502 131.66 150.973C131.66 151.321 131.517 151.727 131.229 152.19C130.941 152.651 130.562 153.04 130.091 153.354C129.899 153.493 129.785 153.563 129.75 153.563Z" fill="#00A2B5"/>
<path fill-rule="evenodd" clip-rule="evenodd" d="M115.858 140.821C115.962 140.42 116.128 139.992 116.355 139.539C118.256 138.824 120.209 138.1 122.215 137.367C125.896 135.989 127.77 135.301 127.841 135.301C127.875 135.301 127.893 135.327 127.893 135.379L127.841 135.562C127.666 135.981 127.527 136.234 127.422 136.321C124.143 137.524 120.288 139.024 115.858 140.821Z" fill="#00A2B5"/>
<path fill-rule="evenodd" clip-rule="evenodd" d="M119.808 116.358H119.756C118.081 115.957 116.896 115.555 116.198 115.154C115.64 114.823 115.36 114.352 115.36 113.742L115.387 113.428C115.561 113.724 115.954 114.056 116.564 114.422C116.808 114.561 117.462 114.814 118.526 115.181C119.468 115.512 120.044 115.704 120.253 115.756L120.279 115.652C120.279 115.355 119.983 115.041 119.39 114.71C118.919 114.535 118.282 114.265 117.48 113.899C116.956 113.585 116.695 113.305 116.695 113.061C116.695 112.887 116.87 112.677 117.218 112.433C118.055 111.91 118.927 111.649 119.834 111.649C120.218 111.649 120.506 111.701 120.698 111.805C120.889 111.91 120.986 112.033 120.986 112.172C120.986 112.276 120.942 112.373 120.855 112.46C120.611 112.703 120.454 112.826 120.384 112.826H120.358C120.358 112.721 120.261 112.573 120.07 112.381C119.983 112.311 119.782 112.276 119.468 112.276C118.718 112.276 118.099 112.373 117.61 112.564C117.488 112.617 117.427 112.669 117.427 112.721C117.427 112.826 117.628 112.991 118.029 113.218C118.325 113.393 118.709 113.567 119.18 113.742C119.651 113.916 119.939 114.029 120.044 114.082C120.585 114.378 120.855 114.736 120.855 115.154C120.855 115.451 120.689 115.748 120.358 116.044C120.114 116.253 119.931 116.358 119.808 116.358Z" fill="#00A2B5"/>
<path fill-rule="evenodd" clip-rule="evenodd" d="M106.072 125.594H106.046C106.046 125.559 106.116 125.463 106.255 125.306C106.953 124.556 107.302 124.05 107.302 123.788C107.302 123.561 107.189 123.448 106.962 123.448C106.839 123.448 106.735 123.475 106.648 123.527C106.561 123.579 106.509 123.605 106.491 123.605H106.439L106.465 123.475C106.569 122.899 106.839 122.611 107.276 122.611C107.608 122.611 107.773 122.829 107.773 123.265C107.773 123.579 107.642 123.941 107.38 124.352C107.119 124.761 106.779 125.114 106.36 125.411C106.185 125.533 106.09 125.594 106.072 125.594Z" fill="#00A2B5"/>
<path fill-rule="evenodd" clip-rule="evenodd" d="M116.983 147.676C116.912 147.658 116.878 147.563 116.878 147.388C116.878 147.109 116.713 146.555 116.381 145.727C116.049 144.898 115.823 144.484 115.701 144.484C115.596 144.484 115.531 144.514 115.505 144.576C115.479 144.637 115.404 144.667 115.282 144.667C115.125 144.667 114.929 144.558 114.694 144.341C114.458 144.122 114.34 143.952 114.34 143.83C114.34 143.76 114.441 143.56 114.641 143.228C114.841 142.896 114.968 142.731 115.02 142.731C115.509 142.731 115.944 143.019 116.328 143.594C116.713 144.17 116.974 144.92 117.113 145.845C117.131 145.949 117.144 146.006 117.153 146.015C117.162 146.024 117.174 146.028 117.192 146.028L117.27 145.845C117.341 145.287 117.524 144.458 117.82 143.359C118.152 142.574 118.508 142.182 118.893 142.182C119.102 142.182 119.299 142.308 119.482 142.562C119.665 142.814 119.756 143.01 119.756 143.15C119.756 143.272 119.73 143.42 119.677 143.594C119.591 143.838 119.494 143.961 119.39 143.961C119.355 143.961 119.263 143.87 119.115 143.687C118.967 143.503 118.814 143.411 118.657 143.411C118.309 143.411 117.985 144.231 117.689 145.871C117.567 146.569 117.427 147.066 117.27 147.362C117.166 147.571 117.069 147.676 116.983 147.676Z" fill="#00A2B5"/>
<path fill-rule="evenodd" clip-rule="evenodd" d="M127.997 143.856C127.387 143.856 127.082 143.351 127.082 142.339C127.082 141.101 127.44 139.801 128.154 138.44C128.346 138.108 128.46 137.943 128.495 137.943C128.495 138.013 128.442 138.205 128.338 138.519C127.884 139.932 127.657 140.926 127.657 141.501C127.657 142.268 127.858 142.653 128.259 142.653C128.503 142.653 128.782 142.356 129.096 141.763L129.201 141.632C129.219 141.632 129.227 141.685 129.227 141.789C128.983 143.167 128.573 143.856 127.997 143.856Z" fill="#00A2B5"/>
<path fill-rule="evenodd" clip-rule="evenodd" d="M122.922 156.729L122.896 156.702C122.896 156.685 122.974 156.589 123.131 156.415C123.898 155.577 124.282 155.02 124.282 154.74C124.282 154.479 124.16 154.348 123.916 154.348C123.777 154.348 123.659 154.378 123.563 154.44C123.467 154.501 123.41 154.531 123.393 154.531L123.34 154.505L123.367 154.374C123.471 153.746 123.767 153.432 124.256 153.432C124.622 153.432 124.806 153.667 124.806 154.138C124.806 154.487 124.662 154.889 124.374 155.342C124.087 155.795 123.707 156.188 123.236 156.519C123.061 156.659 122.956 156.729 122.922 156.729Z" fill="#00A2B5"/>
<path fill-rule="evenodd" clip-rule="evenodd" d="M136.082 157.906L136.056 157.88C136.056 157.845 136.152 157.723 136.344 157.514C137.286 156.502 137.757 155.821 137.757 155.473C137.757 155.159 137.608 155.002 137.312 155.002C137.137 155.002 136.994 155.036 136.881 155.107C136.767 155.177 136.692 155.22 136.658 155.237L136.605 155.211L136.632 155.028C136.771 154.261 137.129 153.877 137.704 153.877C138.157 153.877 138.384 154.165 138.384 154.74C138.384 155.177 138.21 155.67 137.861 156.219C137.513 156.768 137.05 157.244 136.475 157.644C136.247 157.819 136.117 157.906 136.082 157.906Z" fill="#00A2B5"/>
<path fill-rule="evenodd" clip-rule="evenodd" d="M141.472 156.65C140.949 156.65 140.687 156.205 140.687 155.316C140.687 154.251 141.001 153.126 141.629 151.941C141.786 151.645 141.882 151.496 141.917 151.496C141.917 151.566 141.873 151.731 141.786 151.993C141.385 153.231 141.184 154.094 141.184 154.583C141.184 155.263 141.359 155.604 141.707 155.604C141.917 155.604 142.16 155.342 142.44 154.819C142.458 154.766 142.484 154.732 142.518 154.714L142.571 154.766L142.545 154.845C142.335 156.048 141.977 156.65 141.472 156.65Z" fill="#00A2B5"/>
<path fill-rule="evenodd" clip-rule="evenodd" d="M133.981 148.729C133.602 148.58 133.539 148.184 133.792 147.54C134.094 146.769 134.64 146.043 135.431 145.363C135.629 145.193 135.741 145.113 135.766 145.122C135.746 145.173 135.667 145.281 135.53 145.445C134.889 146.228 134.498 146.796 134.359 147.15C134.166 147.643 134.196 147.939 134.449 148.038C134.6 148.097 134.851 147.977 135.202 147.677C135.23 147.644 135.258 147.627 135.289 147.624L135.312 147.676L135.27 147.726C134.777 148.538 134.347 148.872 133.981 148.729Z" fill="#00A2B5"/>
<path fill-rule="evenodd" clip-rule="evenodd" d="M146.574 154.452C146.521 154.452 146.495 154.382 146.495 154.243C146.495 154.016 146.364 153.576 146.103 152.922C145.841 152.268 145.658 151.941 145.553 151.941C145.467 151.941 145.414 151.963 145.396 152.007C145.379 152.05 145.318 152.072 145.213 152.072C145.091 152.072 144.939 151.985 144.756 151.81C144.573 151.635 144.481 151.496 144.481 151.391C144.481 151.357 144.559 151.204 144.716 150.934C144.873 150.663 144.969 150.528 145.004 150.528C145.388 150.528 145.732 150.759 146.038 151.222C146.343 151.683 146.556 152.281 146.678 153.013C146.696 153.084 146.705 153.126 146.705 153.144H146.731C146.749 153.126 146.765 153.084 146.783 153.013C146.853 152.577 147.01 151.923 147.254 151.051C147.498 150.423 147.777 150.109 148.091 150.109C148.248 150.109 148.401 150.21 148.55 150.411C148.697 150.611 148.772 150.763 148.772 150.868C148.772 150.955 148.745 151.086 148.693 151.26C148.641 151.435 148.571 151.522 148.484 151.522C148.449 151.522 148.375 151.448 148.262 151.3C148.148 151.152 148.031 151.077 147.908 151.077C147.629 151.077 147.376 151.723 147.149 153.013C146.975 153.973 146.783 154.452 146.574 154.452Z" fill="#00A2B5"/>
<path fill-rule="evenodd" clip-rule="evenodd" d="M151.1 145.792C151.1 145.758 151.17 145.661 151.309 145.504C152.077 144.667 152.461 144.109 152.461 143.83C152.461 143.551 152.338 143.411 152.094 143.411C151.972 143.411 151.863 143.446 151.768 143.516C151.672 143.586 151.606 143.621 151.571 143.621L151.519 143.594L151.545 143.437C151.667 142.827 151.964 142.522 152.434 142.522C152.819 142.522 153.01 142.757 153.01 143.228C153.01 143.577 152.861 143.979 152.565 144.432C152.269 144.885 151.885 145.277 151.414 145.609C151.239 145.732 151.135 145.792 151.1 145.792Z" fill="#00A2B5"/>
<path fill-rule="evenodd" clip-rule="evenodd" d="M149.923 108.692C149.574 108.692 149.399 108.5 149.399 108.116C149.399 107.785 149.565 107.384 149.897 106.913C150.176 106.494 150.438 106.206 150.681 106.049H150.734C150.768 106.049 150.786 106.067 150.786 106.102C150.786 106.136 150.768 106.172 150.734 106.206C150.542 106.381 150.346 106.621 150.146 106.926C149.945 107.231 149.844 107.462 149.844 107.619C149.931 107.549 150.045 107.515 150.184 107.515C150.481 107.515 150.629 107.645 150.629 107.907C150.629 108.134 150.551 108.322 150.394 108.47C150.237 108.618 150.08 108.692 149.923 108.692Z" fill="#00A2B5"/>
<path fill-rule="evenodd" clip-rule="evenodd" d="M151.885 140.089C151.449 140.089 151.231 139.714 151.231 138.963C151.231 138.056 151.493 137.106 152.016 136.112L152.251 135.719L152.277 135.745C152.277 135.798 152.234 135.937 152.147 136.164C151.815 137.21 151.65 137.943 151.65 138.362C151.65 138.92 151.798 139.199 152.094 139.199C152.269 139.199 152.469 138.981 152.696 138.545L152.801 138.44V138.571C152.609 139.583 152.304 140.089 151.885 140.089Z" fill="#00A2B5"/>
<path fill-rule="evenodd" clip-rule="evenodd" d="M149.687 123.004C149.094 123.004 148.798 122.446 148.798 121.329C148.798 121.015 148.832 120.675 148.902 120.309C148.955 120.047 149.182 119.288 149.583 118.032C149.844 117.282 149.975 116.393 149.975 115.364L149.949 114.553C149.897 113.158 149.277 111.866 148.091 110.68C148.039 110.628 148.013 110.576 148.013 110.523C148.013 110.471 148.17 110.166 148.484 109.608C148.518 109.573 148.544 109.555 148.562 109.555C148.597 109.555 148.632 109.573 148.667 109.608C149.399 110.323 149.888 110.977 150.132 111.57C150.324 112.076 150.454 112.887 150.525 114.003C150.559 114.265 150.577 114.509 150.577 114.736C150.577 115.608 150.368 116.68 149.949 117.954C149.53 119.228 149.321 120.126 149.321 120.649C149.321 121.399 149.539 121.774 149.975 121.774C150.219 121.774 150.498 121.478 150.812 120.884C150.865 120.78 150.909 120.727 150.943 120.727V120.91C150.681 122.306 150.263 123.004 149.687 123.004Z" fill="#00A2B5"/>
<path fill-rule="evenodd" clip-rule="evenodd" d="M140.608 135.641C140.067 135.641 139.797 135.379 139.797 134.856C139.797 134.489 140.015 133.94 140.451 133.207C140.888 132.475 141.254 132.109 141.55 132.109C141.812 132.109 142.043 132.227 142.244 132.462C142.444 132.698 142.545 132.99 142.545 133.338C142.545 133.862 142.357 134.376 141.983 134.882C141.607 135.387 141.15 135.641 140.608 135.641ZM141.001 134.568C141.716 134.568 142.074 134.359 142.074 133.94C142.056 133.435 141.716 133.181 141.053 133.181C140.949 133.181 140.787 133.338 140.57 133.652C140.351 133.966 140.242 134.184 140.242 134.306C140.312 134.481 140.565 134.568 141.001 134.568Z" fill="#00A2B5"/>
<path fill-rule="evenodd" clip-rule="evenodd" d="M139.039 139.251C139.143 138.833 139.309 138.388 139.536 137.917C141.385 137.271 143.4 136.556 145.58 135.771C145.684 135.737 145.763 135.719 145.815 135.719C145.85 135.719 145.867 135.737 145.867 135.771C145.867 135.824 145.85 135.885 145.815 135.955C145.64 136.373 145.501 136.627 145.396 136.713C143.565 137.359 141.446 138.205 139.039 139.251Z" fill="#00A2B5"/>
<path fill-rule="evenodd" clip-rule="evenodd" d="M140.451 144.955C140.434 144.955 140.417 144.929 140.399 144.876C140.434 144.667 140.469 144.471 140.504 144.288C140.538 144.105 140.836 143.804 141.393 143.385C140.695 143.141 140.347 142.827 140.347 142.443C140.347 142.025 140.53 141.598 140.896 141.161C141.594 140.324 142.178 139.905 142.649 139.905C143.068 139.905 143.277 140.141 143.277 140.612C143.277 140.873 143.164 141.187 142.937 141.554C142.919 141.588 142.893 141.606 142.859 141.606C142.841 141.606 142.815 141.58 142.78 141.528C142.641 141.248 142.466 141.109 142.257 141.109C142.082 141.109 141.882 141.187 141.655 141.344C141.428 141.501 141.315 141.65 141.315 141.789C141.315 141.928 141.454 142.073 141.733 142.221C142.013 142.369 142.239 142.443 142.414 142.443C142.571 142.443 142.85 142.33 143.251 142.103C143.442 141.964 143.635 141.841 143.827 141.737L144.088 141.554C144.315 141.449 144.446 141.397 144.481 141.397C144.515 141.414 144.533 141.449 144.533 141.501L144.481 141.711C144.394 142.111 144.28 142.373 144.141 142.496C143.617 142.81 142.474 143.568 140.713 144.772L140.451 144.955Z" fill="#00A2B5"/>
<path fill-rule="evenodd" clip-rule="evenodd" d="M143.46 132.266C143.426 132.266 143.408 132.257 143.408 132.239C143.408 132.152 143.756 131.908 144.455 131.507L147.202 129.885C148.544 129.065 149.548 128.306 150.211 127.608C149.339 127.155 148.902 126.675 148.902 126.169C148.902 125.559 149.182 125 149.74 124.495C150.176 124.094 150.551 123.893 150.865 123.893C151.353 123.893 151.597 124.242 151.597 124.94C151.597 125.445 151.493 126.012 151.283 126.64C151.736 126.902 152.016 127.12 152.121 127.294C152.121 127.538 151.92 127.949 151.519 128.524C151.414 128.349 151.144 128.132 150.708 127.87C150.219 128.55 149.591 129.17 148.824 129.728C147.969 130.373 147.176 130.853 146.443 131.167C146.286 131.254 145.449 131.577 143.931 132.135C143.704 132.222 143.547 132.266 143.46 132.266ZM150.76 126.379C150.812 126.204 150.838 126.03 150.838 125.855C150.838 125.35 150.69 125.097 150.394 125.097C150.289 125.097 150.146 125.145 149.963 125.241C149.779 125.336 149.687 125.437 149.687 125.541C149.687 125.751 150.045 126.03 150.76 126.379Z" fill="#00A2B5"/>
<path fill-rule="evenodd" clip-rule="evenodd" d="M118.265 130.329L118.186 130.303C117.471 129.745 116.739 129.231 115.988 128.76L115.962 128.707L116.878 126.719C116.948 126.614 117.009 126.562 117.061 126.562C117.166 126.562 117.519 126.767 118.121 127.177C118.723 127.586 119.12 127.878 119.311 128.053L120.044 126.562C120.096 126.457 120.157 126.405 120.227 126.405C120.332 126.405 120.742 126.649 121.457 127.137C122.171 127.626 122.529 127.914 122.529 128.001C122.529 128.333 122.215 129.013 121.587 130.042C121.535 130.112 121.483 130.146 121.43 130.146C121.396 130.146 121.37 130.138 121.352 130.12C120.724 129.667 120.009 129.178 119.206 128.655C118.945 129.265 118.683 129.78 118.422 130.199C118.369 130.285 118.317 130.329 118.265 130.329Z" fill="#00A2B5"/>
<path fill-rule="evenodd" clip-rule="evenodd" d="M147.149 135.955L147.071 135.928C146.356 135.387 145.624 134.874 144.873 134.385L144.847 134.332C144.847 134.298 145.161 133.634 145.789 132.344C145.841 132.239 145.902 132.187 145.972 132.187C146.059 132.187 146.408 132.392 147.019 132.802C147.629 133.212 148.021 133.504 148.196 133.678L148.929 132.187C148.999 132.082 149.059 132.03 149.112 132.03C149.216 132.03 149.631 132.274 150.355 132.763C151.078 133.251 151.44 133.539 151.44 133.626C151.44 133.958 151.118 134.638 150.472 135.667C150.42 135.737 150.376 135.771 150.341 135.771L150.237 135.745C149.609 135.292 148.902 134.803 148.117 134.28C147.612 135.397 147.289 135.955 147.149 135.955Z" fill="#00A2B5"/>
<path fill-rule="evenodd" clip-rule="evenodd" d="M123.811 144.981L123.733 144.955C123.018 144.414 122.285 143.9 121.535 143.411L121.509 143.359L122.425 141.371C122.495 141.266 122.555 141.214 122.608 141.214C122.712 141.214 123.127 141.463 123.851 141.96C124.574 142.457 124.936 142.739 124.936 142.81C124.936 143.141 124.614 143.822 123.968 144.85C123.916 144.937 123.864 144.981 123.811 144.981Z" fill="#00A2B5"/>
<path fill-rule="evenodd" clip-rule="evenodd" d="M145.815 130.277C145.763 130.259 145.737 130.128 145.737 129.885C145.737 129.693 145.754 129.431 145.789 129.1C145.894 128.333 145.946 127.443 145.946 126.431C145.946 125.507 145.754 122.358 145.37 116.986C144.986 111.614 144.795 108.535 144.795 107.75C144.795 106.826 144.655 106.067 144.376 105.474C144.376 105.142 144.638 104.357 145.161 103.119C145.231 102.962 145.292 102.884 145.344 102.884C145.449 102.884 145.859 103.86 146.574 105.814C147.341 107.785 147.725 108.919 147.725 109.215C147.725 109.354 147.681 109.425 147.594 109.425C147.419 109.425 147.053 109.102 146.495 108.457C146.461 108.422 146.435 108.404 146.417 108.404C146.382 108.404 146.364 108.483 146.364 108.64C146.364 108.727 146.53 111.038 146.862 115.573C147.193 120.108 147.359 122.742 147.359 123.475C147.359 125.69 147.019 127.643 146.338 129.335C146.077 129.945 145.902 130.259 145.815 130.277Z" fill="#FFB000"/>
<path fill-rule="evenodd" clip-rule="evenodd" d="M118.709 153.144C115.133 153.144 112.666 151.391 111.305 147.885C111.043 147.205 110.913 146.333 110.913 145.269C110.913 143.49 111.209 141.842 111.802 140.324C111.889 140.08 111.985 139.958 112.09 139.958C112.142 139.958 112.168 140.018 112.168 140.141L112.142 140.429C111.724 142.155 111.514 143.298 111.514 143.856C111.514 145.303 111.994 146.638 112.953 147.859C114.279 149.481 116.189 150.292 118.683 150.292C120.863 150.292 123.183 149.777 125.643 148.749C127.613 147.929 129.393 146.899 130.98 145.661C132.393 144.563 133.099 143.769 133.099 143.281C133.099 143.21 132.812 142.592 132.236 141.423C131.521 140.062 130.998 138.736 130.666 137.446C130.527 137.01 130.366 136.713 130.183 136.556C130 136.399 129.907 136.234 129.907 136.059C129.907 135.937 130.038 135.24 130.3 133.966C130.352 133.739 130.413 133.626 130.483 133.626C130.57 133.626 130.666 133.678 130.771 133.783C131.137 134.184 131.914 134.978 133.099 136.164C133.291 136.355 133.387 136.504 133.387 136.609C133.387 136.748 133.274 136.818 133.047 136.818C132.803 136.818 132.437 136.74 131.948 136.583C131.983 136.74 132.375 137.577 133.126 139.094C133.736 140.332 134.041 141.397 134.041 142.286C134.041 144.065 133.649 145.408 132.864 146.316C131.59 147.781 129.742 149.202 127.317 150.58C124.23 152.289 121.36 153.144 118.709 153.144Z" fill="#FF6106"/>
<path fill-rule="evenodd" clip-rule="evenodd" d="M148.693 145.845C149.46 146.612 150.385 146.996 151.466 146.996C152.39 146.996 153.289 146.656 154.161 145.975C154.405 145.731 154.528 144.955 154.528 143.647C154.528 142.862 154.187 137.821 153.507 128.524C152.827 119.21 152.487 114.064 152.487 113.087C152.487 112.163 152.338 111.413 152.042 110.837C152.042 110.489 152.312 109.704 152.853 108.483C152.905 108.343 152.949 108.273 152.984 108.273C153.089 108.273 153.167 108.343 153.219 108.483C153.359 108.831 153.725 109.712 154.318 111.125C154.842 112.677 155.182 113.629 155.339 113.977C155.391 114.273 155.417 114.466 155.417 114.553C155.417 114.989 155.025 114.744 154.24 113.82C154.135 113.681 154.083 113.733 154.083 113.977C154.083 114.029 154.379 118.364 154.972 126.98C155.6 135.597 155.914 140.394 155.914 141.371C155.914 144.109 155.425 146.281 154.449 147.885C153.63 149.193 152.635 149.848 151.466 149.848C150.438 149.848 149.365 149.385 148.248 148.461C147.655 147.972 147.193 147.441 146.862 146.865L143.722 148.252C142.257 148.827 141.158 149.29 140.425 149.638C139.012 150.319 138.036 150.876 137.495 151.313C136.519 152.045 135.106 153.484 133.256 155.63C132.14 156.938 131.024 157.592 129.907 157.592C128.931 157.592 128.102 157.156 127.422 156.284C126.689 155.412 126.323 154.339 126.323 153.066C126.323 151.321 127.029 149.036 128.442 146.211C128.581 145.915 128.704 145.766 128.809 145.766C128.861 145.766 128.887 145.792 128.887 145.845C128.887 146.124 128.565 147.118 127.919 148.827C127.291 150.536 126.977 151.88 126.977 152.856C126.977 153.589 127.152 154.173 127.5 154.609C127.884 155.098 128.416 155.342 129.096 155.342C130.265 155.342 131.433 154.758 132.602 153.589C133.039 153.048 133.474 152.534 133.911 152.045L134.957 150.868C135.917 149.751 137.207 148.757 138.829 147.885C139.753 147.344 141.385 146.585 143.722 145.609L146.05 144.667C145.719 143.743 145.553 142.818 145.553 141.894C145.553 140.481 145.771 139.338 146.207 138.466C146.644 137.577 147.202 137.132 147.882 137.132C148.458 137.132 149.042 137.647 149.635 138.676C150.124 139.6 150.368 140.429 150.368 141.161C150.368 143.063 149.81 144.623 148.693 145.845ZM147.28 144.092C147.681 143.917 148.144 143.647 148.667 143.28C149.295 142.862 149.609 142.566 149.609 142.391C149.609 142.077 149.351 141.58 148.837 140.9C148.323 140.219 147.874 139.879 147.489 139.879C147.193 139.879 146.906 140.058 146.626 140.416C146.347 140.773 146.207 141.117 146.207 141.449C146.207 141.728 146.356 142.208 146.652 142.888C146.932 143.498 147.141 143.9 147.28 144.092Z" fill="#FF6106"/>
<path fill-rule="evenodd" clip-rule="evenodd" d="M158.452 142.025C158.382 142.025 158.347 141.912 158.347 141.685C158.347 141.493 158.374 141.214 158.426 140.847C158.513 140.097 158.557 139.207 158.557 138.179C158.557 137.271 158.365 134.132 157.981 128.76C157.597 123.388 157.406 120.3 157.406 119.498C157.406 118.59 157.266 117.841 156.987 117.248C156.987 116.916 157.249 116.123 157.772 114.867C157.842 114.727 157.911 114.657 157.981 114.657C158.016 114.657 158.077 114.736 158.164 114.893C158.304 115.225 158.657 116.136 159.224 117.627C159.791 119.119 160.127 120.039 160.231 120.387C160.301 120.649 160.336 120.85 160.336 120.989C160.336 121.111 160.301 121.172 160.231 121.172C160.056 121.172 159.69 120.85 159.132 120.204L159.054 120.152C159.002 120.152 158.975 120.239 158.975 120.413C158.975 120.483 159.141 122.79 159.473 127.334C159.804 131.877 159.97 134.507 159.97 135.222C159.97 137.454 159.638 139.408 158.975 141.083C158.732 141.711 158.557 142.025 158.452 142.025Z" fill="#FF6106"/>
</g>
<path d="M53.0121 227.378C53.0121 222.641 56.8515 218.802 61.5878 218.802H209.55C210.903 218.802 212 219.899 212 221.252V240.2C212 241.553 210.903 242.65 209.55 242.65H61.5878C56.8515 242.65 53.0121 238.811 53.0121 234.074V227.378Z" fill="#192847"/>
<path d="M54.9994 228.14C54.9994 224.08 58.2904 220.789 62.35 220.789H212V240.663H62.35C58.2904 240.663 54.9994 237.372 54.9994 233.312V228.14Z" fill="#FEFFBE"/>
<defs>
<clipPath id="clip0_10_108">
<rect width="57.1416" height="58.3975" fill="white" transform="translate(103.273 99.5609)"/>
</clipPath>
</defs>
</svg>
