<svg width="254" height="352" viewBox="0 0 254 352" fill="none" xmlns="http://www.w3.org/2000/svg">
<path d="M0 14.8167C0 6.63364 6.63365 0 14.8167 0H249.767C252.105 0 254 1.89533 254 4.23333V334.433C254 336.771 252.105 338.667 249.767 338.667H14.8167C6.63365 338.667 0 332.033 0 323.85V14.8167Z" fill="#5574B3"/>
<path fill-rule="evenodd" clip-rule="evenodd" d="M69.0143 127C72.597 110.215 85.3654 85.6104 127 74.0833C168.648 85.6142 181.411 110.231 184.989 127.016C196.29 127.457 205.317 136.758 205.317 148.167V192.617C205.317 204.099 196.173 213.446 184.77 213.774C180.904 230.524 167.839 254.414 127 265.72C86.1684 254.416 73.1002 230.533 69.232 213.783H67.7333C56.0433 213.783 46.5667 204.307 46.5667 192.617V148.167C46.5667 136.477 56.0433 127 67.7333 127H69.0143Z" fill="#FEFFBE"/>
<g clip-path="url(#clip0_10_104)">
<path fill-rule="evenodd" clip-rule="evenodd" d="M136.475 174.431C136.893 184.324 137.089 189.799 137.06 190.858C136.948 194.62 136.196 197.783 134.803 200.346C134.691 200.513 134.607 200.597 134.552 200.597C134.469 200.597 134.427 200.417 134.427 200.054C134.455 199.774 134.497 199.398 134.552 198.925C134.691 197.81 134.79 196.529 134.845 195.08C134.873 193.77 134.664 187.43 134.218 176.061C134.19 175.504 134.176 174.946 134.176 174.389C133.675 159.814 133.437 152.013 133.466 150.981C133.494 149.672 133.327 148.57 132.964 147.679C132.992 147.122 133.41 145.994 134.218 144.293C134.302 144.098 134.385 144.001 134.469 144.001C134.581 144.001 134.678 144.113 134.761 144.335C134.957 144.808 135.417 146.119 136.141 148.264C137.144 151.162 137.645 152.82 137.645 153.238C137.617 153.434 137.548 153.531 137.436 153.531C137.186 153.503 136.671 153.016 135.89 152.068C135.835 152.013 135.793 151.984 135.764 151.984C135.709 151.984 135.681 152.096 135.681 152.319C135.681 152.458 135.945 159.829 136.475 174.431Z" fill="#FF6106"/>
<path fill-rule="evenodd" clip-rule="evenodd" d="M84.7693 150.772C84.7693 150.744 84.8529 150.633 85.0201 150.438C85.8277 149.547 86.2323 148.946 86.2323 148.64C86.2323 148.361 86.1069 148.222 85.8561 148.222C85.7174 148.222 85.592 148.258 85.4799 148.328C85.3679 148.396 85.2994 148.431 85.2709 148.431H85.2291L85.2709 148.181C85.4097 147.567 85.7174 147.261 86.1905 147.261C86.6085 147.261 86.8175 147.512 86.8175 148.013C86.8175 148.403 86.657 148.836 86.3377 149.309C86.0166 149.782 85.6053 150.2 85.1037 150.563C84.9081 150.702 84.7978 150.772 84.7693 150.772Z" fill="#00A2B5"/>
<path fill-rule="evenodd" clip-rule="evenodd" d="M88.6567 198.131C88.6567 198.102 88.7403 197.992 88.9075 197.797C89.715 196.905 90.1196 196.305 90.1196 195.999C90.1196 195.72 89.9942 195.581 89.7434 195.581C89.6047 195.581 89.4793 195.616 89.3673 195.686C89.2552 195.755 89.1867 195.79 89.1583 195.79H89.1165L89.1583 195.539C89.297 194.926 89.6047 194.62 90.0778 194.62C90.4958 194.62 90.7048 194.871 90.7048 195.372C90.7048 195.762 90.5443 196.195 90.225 196.668C89.904 197.141 89.4926 197.559 88.9911 197.922C88.7954 198.061 88.6851 198.131 88.6567 198.131Z" fill="#00A2B5"/>
<path fill-rule="evenodd" clip-rule="evenodd" d="M156.372 175.016C156.372 174.987 156.469 174.862 156.664 174.64C157.612 173.608 158.085 172.926 158.085 172.592C158.085 172.257 157.932 172.09 157.626 172.09C157.458 172.09 157.291 172.145 157.124 172.257L156.957 172.341L156.915 172.299L156.957 172.048C157.096 171.324 157.445 170.961 158.002 170.961C158.475 170.961 158.712 171.254 158.712 171.839C158.712 172.286 158.532 172.787 158.169 173.344C157.806 173.901 157.346 174.376 156.79 174.765C156.539 174.932 156.4 175.016 156.372 175.016Z" fill="#00A2B5"/>
<path fill-rule="evenodd" clip-rule="evenodd" d="M133.633 141.535C133.633 141.451 133.772 141.214 134.051 140.824C135.388 138.901 136.057 137.619 136.057 136.978V136.853C135.973 136.351 135.736 136.101 135.347 136.101C134.929 136.101 134.607 136.213 134.385 136.435L134.051 136.686C134.051 136.657 134.009 136.644 133.925 136.644C133.954 136.56 133.967 136.393 133.967 136.142C134.079 134.86 134.623 134.149 135.597 134.011H135.848C136.517 134.011 136.906 134.47 137.018 135.39L137.06 135.808C137.06 136.477 136.851 137.243 136.433 138.107C135.932 139.194 135.221 140.169 134.302 141.033C133.939 141.367 133.716 141.535 133.633 141.535Z" fill="#00A2B5"/>
<path fill-rule="evenodd" clip-rule="evenodd" d="M95.2609 178.318C95.1773 178.318 95.1355 178.206 95.1355 177.984C95.1355 177.594 94.9131 176.848 94.4667 175.748C94.0203 174.646 93.7143 174.096 93.5471 174.096C93.4083 174.096 93.3247 174.138 93.2963 174.222C93.2679 174.305 93.1709 174.347 93.0037 174.347C92.7813 174.347 92.5155 174.202 92.2095 173.909C91.9035 173.616 91.7497 173.386 91.7497 173.219C91.7497 173.135 91.8818 172.871 92.1477 172.424C92.4118 171.978 92.5723 171.756 92.6275 171.756C93.2679 171.756 93.8464 172.138 94.363 172.906C94.878 173.672 95.2475 174.681 95.4699 175.935V176.144H95.5117C95.5401 176.144 95.5535 176.131 95.5535 176.103C95.5535 176.074 95.5819 176.019 95.6371 175.935C95.7207 175.183 95.9715 174.083 96.3895 172.633C96.8359 171.575 97.309 171.045 97.8106 171.045C98.0899 171.045 98.3473 171.212 98.5848 171.547C98.8205 171.881 98.9392 172.145 98.9392 172.341C98.9392 172.479 98.8974 172.697 98.8138 172.989C98.7302 173.282 98.6182 173.428 98.4794 173.428C98.4242 173.428 98.2988 173.302 98.1032 173.051C97.9076 172.801 97.6986 172.675 97.4762 172.675C97.0298 172.675 96.6118 173.762 96.2223 175.935C96.0551 176.883 95.8594 177.552 95.6371 177.942C95.4983 178.193 95.3729 178.318 95.2609 178.318Z" fill="#00A2B5"/>
<path fill-rule="evenodd" clip-rule="evenodd" d="M91.4154 161.891C91.3034 161.891 91.2482 161.765 91.2482 161.515C91.2482 161.125 91.0325 160.379 90.6012 159.279C90.1681 158.177 89.8688 157.627 89.7016 157.627C89.5629 157.627 89.4726 157.669 89.4308 157.753C89.389 157.836 89.2836 157.878 89.1164 157.878C88.9208 157.878 88.67 157.733 88.3641 157.44C88.0581 157.147 87.9043 156.917 87.9043 156.75C87.9043 156.666 88.0364 156.408 88.3022 155.977C88.5664 155.544 88.7269 155.328 88.7821 155.328C89.4224 155.328 90.0009 155.705 90.5176 156.457C91.0325 157.209 91.387 158.213 91.5826 159.466L91.6244 159.55V159.675H91.6662C91.6946 159.675 91.7147 159.655 91.7297 159.614C91.7431 159.572 91.7632 159.522 91.7916 159.466C91.8752 158.714 92.126 157.614 92.544 156.164C92.962 155.106 93.4352 154.576 93.9652 154.576C94.2444 154.576 94.5019 154.743 94.7393 155.078C94.975 155.412 95.0938 155.676 95.0938 155.872C95.0938 156.039 95.052 156.235 94.9684 156.457C94.8848 156.791 94.7727 156.959 94.634 156.959C94.5788 156.959 94.4534 156.833 94.2578 156.582C94.0621 156.332 93.8532 156.206 93.6308 156.206C93.1844 156.206 92.7664 157.293 92.3768 159.466C92.0424 161.083 91.7214 161.891 91.4154 161.891Z" fill="#00A2B5"/>
<path fill-rule="evenodd" clip-rule="evenodd" d="M126.694 167.158C130.344 169.025 133.771 169.679 136.977 169.122C138.453 169.122 139.889 168.579 141.282 167.492C141.672 167.186 141.867 165.987 141.867 163.897C141.867 162.56 141.519 157.418 140.822 148.473C140.209 139.445 139.903 134.149 139.903 132.59C139.903 131.113 139.665 129.914 139.192 128.995C139.192 128.438 139.623 127.142 140.488 125.107C140.543 124.885 140.613 124.773 140.697 124.773C140.78 124.773 140.906 124.927 141.073 125.233C141.295 125.706 141.839 127.114 142.703 129.455C142.758 129.593 142.787 129.705 142.787 129.789C143.651 132.046 144.166 133.454 144.333 134.011C144.472 134.484 144.542 134.792 144.542 134.93C144.542 135.544 143.887 135.153 142.578 133.76C142.411 133.538 142.327 133.621 142.327 134.011C142.327 134.094 142.648 138.094 143.288 146.007C143.818 153.894 144.083 158.602 144.083 160.135C144.083 164.594 143.302 168.064 141.742 170.543C140.265 172.578 138.677 173.623 136.977 173.678C131.989 174.013 127.781 172.954 124.353 170.502L118.752 166.447C118.53 166.225 118.264 165.987 117.958 165.736C117.624 165.598 117.428 165.527 117.373 165.527C117.289 165.527 117.359 165.723 117.582 166.113C118.446 167.729 118.878 168.9 118.878 169.624C118.878 172.187 117.986 174.125 116.202 175.434C114.781 176.382 111.743 177.663 107.09 179.279L106.254 179.656C103.913 180.659 102.367 181.508 101.614 182.205C99.9708 183.376 97.6719 185.717 94.7175 189.228C92.9335 191.234 91.1361 192.237 89.3254 192.237C87.849 192.237 86.5666 191.582 85.4798 190.273C84.2259 188.796 83.5989 187.041 83.5989 185.006C83.5989 182.219 84.7693 178.569 87.11 174.054C87.3608 173.581 87.5564 173.344 87.6952 173.344C87.7788 173.344 87.8206 173.428 87.8206 173.595C87.8206 173.984 87.319 175.531 86.3158 178.234C85.2842 180.965 84.7693 183.112 84.7693 184.672C84.7693 185.842 85.0485 186.775 85.6052 187.472C86.2189 188.253 87.0398 188.642 88.0714 188.642C89.939 188.642 91.8333 187.71 93.7561 185.842L95.6371 183.627C96.1939 182.929 96.779 182.234 97.3927 181.537C99.0362 179.726 101.141 178.122 103.704 176.73C105.181 175.949 107.787 174.904 111.521 173.595C114.084 172.647 115.868 171.868 116.871 171.254C117.344 171.003 117.512 170.655 117.373 170.209C116.508 167.701 113.081 164.469 107.09 160.512L91.9169 150.563C91.2197 150.174 90.5091 149.756 89.7852 149.309C89.6464 149.142 89.5762 148.627 89.5762 147.763C89.5762 146.676 89.73 145.519 90.036 144.293C90.3419 142.956 90.7332 142.133 91.2064 141.827C94.3831 139.486 101.267 136.365 111.855 132.464C122.611 128.507 129.704 126.529 133.131 126.529C134.134 126.529 134.832 126.682 135.221 126.988C135.611 127.378 135.806 127.963 135.806 128.744C135.806 130.528 134.482 132.785 131.835 135.515L130.205 136.937C129.732 137.326 129.257 137.744 128.784 138.191C127.167 139.751 126.08 141.005 125.524 141.953C125.134 142.566 124.868 142.872 124.729 142.872C124.646 142.872 124.716 142.441 124.938 141.576C125.022 141.13 125.453 140.322 126.234 139.152C126.931 138.065 127.475 137.355 127.864 137.02C130.902 134.317 132.726 132.534 133.34 131.67V131.336C133.34 130.862 132.491 130.625 130.79 130.625C128.144 130.625 121.762 132.493 111.646 136.226C101.531 140.043 94.6055 143.151 90.872 145.547C90.6212 145.715 90.6496 145.868 90.9556 146.007C94.2443 147.651 97.5181 149.338 100.778 151.065C108.498 155.245 115.311 159.37 121.218 163.437C123.002 164.663 124.826 165.904 126.694 167.158Z" fill="#FFB000"/>
<path fill-rule="evenodd" clip-rule="evenodd" d="M115.241 151.984C115.186 151.846 115.129 151.637 115.074 151.357L115.032 151.274C114 148.711 113.29 146.188 112.9 143.708C112.845 143.235 112.775 142.956 112.691 142.872C112.608 142.483 112.37 142.091 111.981 141.702L113.277 139.236C113.499 138.846 113.695 138.65 113.862 138.65C113.945 138.65 114.141 138.846 114.447 139.236L117.707 143.457C118.18 144.014 118.418 144.405 118.418 144.628C118.418 144.85 118.292 144.962 118.042 144.962C117.652 144.962 116.955 144.698 115.952 144.168C116.258 145.785 116.926 147.804 117.958 150.229C118.18 150.842 118.948 151.496 120.257 152.193C121.595 152.974 123.238 153.601 125.189 154.074C125.97 154.325 126.318 154.757 126.234 155.37L125.524 158.38C125.44 158.714 125.009 158.714 124.228 158.38C122.222 157.46 119.742 157 116.788 157C112.72 157 107.856 158.784 102.2 162.351C100.946 163.131 99.7335 163.911 98.5632 164.691L93.4218 168.203C91.2483 169.457 89.2703 170.084 87.4863 170.084C85.6187 170.084 83.9752 169.415 82.554 168.077C81.0777 166.684 80.3386 164.971 80.3386 162.936C80.3386 160.065 81.7882 156.373 84.6858 151.859C84.9917 151.469 85.2158 151.274 85.3546 151.274C85.4382 151.274 85.48 151.316 85.48 151.399C85.48 151.872 84.853 153.461 83.599 156.164C82.3734 158.811 81.7598 160.958 81.7598 162.601C81.7598 163.772 82.1494 164.705 82.9302 165.402C83.6274 166.183 84.6306 166.572 85.9398 166.572C88.0581 166.572 90.0495 166.029 91.9171 164.942C94.313 163.299 96.6404 161.669 98.8976 160.052C102.715 157.544 106.296 155.593 109.64 154.2C112.203 153.197 114.113 152.695 115.366 152.695C115.283 152.528 115.241 152.29 115.241 151.984Z" fill="#FFB000"/>
<path fill-rule="evenodd" clip-rule="evenodd" d="M126.819 164.775C126.819 164.72 126.958 164.538 127.237 164.232C128.659 162.698 129.369 161.669 129.369 161.138C129.369 160.665 129.147 160.428 128.7 160.428C128.45 160.428 128.234 160.483 128.053 160.595C127.871 160.707 127.767 160.776 127.739 160.804L127.614 160.72C127.642 160.692 127.669 160.567 127.697 160.344C127.92 159.286 128.45 158.756 129.286 158.756C129.983 158.756 130.331 159.187 130.331 160.052C130.331 160.692 130.066 161.431 129.536 162.267C129.006 163.103 128.311 163.827 127.446 164.441C127.112 164.663 126.903 164.775 126.819 164.775Z" fill="#00A2B5"/>
<path fill-rule="evenodd" clip-rule="evenodd" d="M80.2968 178.025C80.2968 177.97 80.4506 177.775 80.7566 177.44C82.2614 175.768 83.0137 174.653 83.0137 174.096C83.0137 173.566 82.7763 173.302 82.3032 173.302C82.0239 173.302 81.7882 173.372 81.5926 173.511C81.3969 173.65 81.2866 173.72 81.2582 173.72C81.2297 173.692 81.1879 173.678 81.1328 173.678C81.1612 173.623 81.1879 173.469 81.2164 173.219C81.4672 172.077 82.039 171.505 82.9301 171.505C83.6825 171.505 84.0587 171.978 84.0587 172.926C84.0587 173.623 83.7728 174.424 83.2027 175.33C82.6309 176.235 81.8852 177.009 80.9656 177.649C80.576 177.9 80.352 178.025 80.2968 178.025Z" fill="#00A2B5"/>
<path fill-rule="evenodd" clip-rule="evenodd" d="M97.8107 133.76C97.9495 133.146 98.2153 132.464 98.6049 131.712C106.184 128.841 113.974 125.93 121.971 122.976L122.347 122.892H122.41C122.424 122.892 122.431 122.92 122.431 122.976C122.431 123.031 122.402 123.129 122.347 123.268C122.068 123.937 121.867 124.327 121.742 124.439C121.616 124.551 117.861 125.985 110.476 128.744C102.924 131.586 98.7019 133.258 97.8107 133.76Z" fill="#00A2B5"/>
<path fill-rule="evenodd" clip-rule="evenodd" d="M126.401 152.904C126.289 152.904 126.234 152.75 126.234 152.444C126.234 151.943 125.955 150.988 125.398 149.582C124.842 148.174 124.45 147.47 124.228 147.47C124.061 147.47 123.957 147.525 123.915 147.637C123.873 147.749 123.74 147.804 123.517 147.804C123.267 147.804 122.939 147.617 122.536 147.241C122.131 146.865 121.929 146.564 121.929 146.342C121.929 146.258 122.096 145.93 122.431 145.36C122.765 144.788 122.974 144.502 123.058 144.502C123.893 144.502 124.639 144.991 125.295 145.965C125.948 146.94 126.401 148.222 126.652 149.811L126.694 149.894V150.103H126.736C126.764 150.103 126.778 150.09 126.778 150.062C126.778 150.033 126.806 149.95 126.861 149.811C127 148.863 127.334 147.457 127.864 145.589C128.421 144.252 129.021 143.583 129.662 143.583C130.025 143.583 130.359 143.798 130.665 144.231C130.971 144.663 131.125 145.004 131.125 145.255C131.125 145.45 131.07 145.721 130.958 146.071C130.846 146.418 130.693 146.592 130.498 146.592C130.443 146.592 130.289 146.438 130.038 146.133C129.787 145.827 129.523 145.673 129.244 145.673C128.659 145.673 128.115 147.052 127.614 149.811C127.418 151.036 127.182 151.887 126.903 152.361C126.707 152.723 126.54 152.904 126.401 152.904Z" fill="#00A2B5"/>
<path fill-rule="evenodd" clip-rule="evenodd" d="M107.299 201.726V201.684C107.299 201.655 107.411 201.488 107.634 201.182C108.692 199.79 109.222 198.87 109.222 198.423C109.222 197.977 109.026 197.755 108.637 197.755C108.414 197.755 108.205 197.838 108.01 198.006L107.759 198.173L107.675 198.131C107.704 198.076 107.717 197.964 107.717 197.797C107.829 196.793 108.289 196.292 109.097 196.292C109.627 196.292 109.919 196.64 109.974 197.337V197.546C109.974 198.047 109.807 198.632 109.473 199.301C109.055 200.082 108.498 200.764 107.801 201.349C107.55 201.572 107.383 201.697 107.299 201.726Z" fill="#00A2B5"/>
<path fill-rule="evenodd" clip-rule="evenodd" d="M120.55 176.73H120.382C119.852 176.618 119.588 176.325 119.588 175.852C119.588 175.071 120.048 174.235 120.968 173.344C121.665 172.647 122.277 172.202 122.807 172.006H122.89C122.946 172.006 122.987 172.02 123.016 172.048C123.016 172.132 122.961 172.215 122.849 172.299C122.431 172.55 121.971 172.933 121.469 173.449C120.968 173.964 120.688 174.36 120.633 174.64C120.772 174.556 120.912 174.514 121.051 174.514L121.302 174.556C121.775 174.64 122.013 174.891 122.013 175.308C122.013 175.81 121.775 176.2 121.302 176.479C121.051 176.646 120.8 176.73 120.55 176.73Z" fill="#00A2B5"/>
<path fill-rule="evenodd" clip-rule="evenodd" d="M121.176 140.322C120.508 140.322 120.173 139.96 120.173 139.236C120.173 138.567 120.466 137.801 121.051 136.937C121.636 136.072 122.166 135.502 122.639 135.223L122.765 135.181C122.793 135.181 122.813 135.194 122.828 135.223C122.842 135.251 122.848 135.278 122.848 135.307C122.848 135.362 122.807 135.432 122.723 135.516C122.36 135.85 121.984 136.316 121.594 136.917C121.205 137.515 121.009 137.968 121.009 138.274C121.176 138.107 121.385 138.023 121.636 138.023C122.221 138.023 122.514 138.274 122.514 138.776C122.514 139.249 122.369 139.625 122.076 139.904C121.783 140.184 121.482 140.322 121.176 140.322Z" fill="#00A2B5"/>
<path fill-rule="evenodd" clip-rule="evenodd" d="M89.7556 177.55L89.7736 177.588C89.7973 177.638 89.7505 177.862 89.63 178.258C88.9928 180.353 88.7867 181.638 89.0147 182.117C89.2305 182.57 89.5527 182.694 89.9798 182.49C90.2062 182.382 90.3772 182.24 90.492 182.061C90.6084 181.882 90.686 181.769 90.7236 181.719L90.8171 181.721L90.8872 181.965C91.2137 183.167 90.9735 183.962 90.169 184.345C89.5155 184.656 88.9959 184.409 88.6125 183.605C88.3126 182.976 88.2295 182.152 88.3603 181.132C88.491 180.112 88.8224 179.121 89.3514 178.16C89.5711 177.777 89.7058 177.574 89.7556 177.55Z" fill="#00A2B5"/>
<path fill-rule="evenodd" clip-rule="evenodd" d="M126.61 126.654V126.612C126.61 126.584 126.694 126.473 126.861 126.278C127.781 125.303 128.241 124.648 128.241 124.313C128.241 124.007 128.102 123.853 127.823 123.853C127.655 123.853 127.488 123.909 127.321 124.021L127.112 124.062L127.154 123.77C127.321 123.101 127.669 122.767 128.199 122.767C128.645 122.767 128.868 123.046 128.868 123.603C128.868 124.021 128.694 124.494 128.346 125.024C127.996 125.554 127.543 126.014 126.987 126.403C126.764 126.57 126.639 126.654 126.61 126.654Z" fill="#00A2B5"/>
<path fill-rule="evenodd" clip-rule="evenodd" d="M131.585 188.893C131.167 188.893 130.861 188.629 130.665 188.099C130.553 187.82 130.498 187.485 130.498 187.096C130.498 186.649 130.568 186.148 130.707 185.591C130.929 184.643 131.222 183.948 131.585 183.501L131.668 183.418C131.752 183.418 131.794 183.459 131.794 183.543L131.752 183.71C131.529 184.157 131.347 184.727 131.208 185.424C131.096 185.87 131.041 186.218 131.041 186.469C131.041 186.665 131.07 186.817 131.125 186.929C131.32 186.566 131.626 186.385 132.044 186.385C132.379 186.385 132.601 186.553 132.713 186.887C132.797 187.083 132.839 187.276 132.839 187.472C132.839 187.694 132.783 187.919 132.671 188.141C132.504 188.475 132.282 188.698 132.003 188.81L131.585 188.893Z" fill="#00A2B5"/>
<path fill-rule="evenodd" clip-rule="evenodd" d="M129.704 181.662H129.662C129.662 181.607 129.732 181.411 129.871 181.077C130.401 179.711 130.665 178.764 130.665 178.234C130.665 178.096 130.652 177.984 130.623 177.9C130.511 177.621 130.344 177.482 130.122 177.482C129.816 177.482 129.565 177.621 129.369 177.9C129.257 178.039 129.189 178.109 129.16 178.109H129.077L128.993 177.315C128.993 176.618 129.272 176.173 129.829 175.977L130.163 175.894C130.553 175.894 130.861 176.173 131.083 176.73C131.195 177.009 131.25 177.328 131.25 177.691C131.25 178.833 130.861 179.99 130.08 181.16C129.884 181.466 129.759 181.634 129.704 181.662Z" fill="#00A2B5"/>
<path fill-rule="evenodd" clip-rule="evenodd" d="M108.261 212.719C107.871 212.69 107.675 212.468 107.675 212.05C107.675 211.687 107.843 211.256 108.177 210.754C108.511 210.253 108.817 209.918 109.097 209.751H109.138L109.222 209.793L109.18 209.918C108.958 210.114 108.734 210.385 108.511 210.734C108.289 211.082 108.177 211.34 108.177 211.507C108.261 211.423 108.386 211.381 108.553 211.381C108.859 211.381 109.013 211.52 109.013 211.799C109.013 212.079 108.929 212.301 108.762 212.468C108.595 212.635 108.428 212.719 108.261 212.719Z" fill="#00A2B5"/>
<path fill-rule="evenodd" clip-rule="evenodd" d="M122.598 209.041C122.598 208.985 122.723 208.818 122.974 208.539C124.199 207.201 124.813 206.31 124.813 205.864C124.813 205.446 124.617 205.237 124.228 205.237C124.005 205.237 123.817 205.285 123.664 205.384C123.511 205.481 123.42 205.543 123.392 205.571L123.308 205.529L123.35 205.32C123.517 204.289 123.977 203.774 124.729 203.774C125.343 203.774 125.649 204.15 125.649 204.902C125.649 205.459 125.42 206.108 124.96 206.847C124.5 207.584 123.893 208.205 123.141 208.706C122.835 208.929 122.653 209.041 122.598 209.041Z" fill="#00A2B5"/>
<path fill-rule="evenodd" clip-rule="evenodd" d="M100.402 188.684C100.569 188.044 100.834 187.36 101.196 186.636C104.234 185.494 107.354 184.337 110.559 183.167C116.44 180.965 119.434 179.865 119.546 179.865C119.602 179.865 119.63 179.906 119.63 179.99L119.546 180.283C119.267 180.951 119.045 181.356 118.878 181.495C113.639 183.418 107.48 185.813 100.402 188.684Z" fill="#00A2B5"/>
<path fill-rule="evenodd" clip-rule="evenodd" d="M106.714 149.602H106.63C103.955 148.962 102.061 148.319 100.946 147.679C100.054 147.149 99.6081 146.397 99.6081 145.422L99.6499 144.92C99.9291 145.394 100.556 145.924 101.531 146.509C101.92 146.731 102.965 147.136 104.666 147.721C106.171 148.251 107.09 148.557 107.425 148.64L107.466 148.473C107.466 148 106.993 147.499 106.045 146.969C105.293 146.689 104.276 146.258 102.994 145.673C102.158 145.171 101.74 144.725 101.74 144.335C101.74 144.056 102.019 143.722 102.576 143.332C103.913 142.496 105.306 142.078 106.756 142.078C107.369 142.078 107.829 142.162 108.135 142.329C108.441 142.496 108.595 142.692 108.595 142.914C108.595 143.081 108.525 143.235 108.386 143.374C107.996 143.763 107.746 143.959 107.634 143.959H107.592C107.592 143.792 107.438 143.554 107.132 143.248C106.993 143.136 106.672 143.081 106.171 143.081C104.972 143.081 103.984 143.235 103.203 143.541C103.007 143.625 102.91 143.708 102.91 143.792C102.91 143.959 103.231 144.223 103.872 144.586C104.345 144.865 104.958 145.143 105.711 145.422C106.463 145.701 106.923 145.882 107.09 145.965C107.955 146.438 108.386 147.01 108.386 147.679C108.386 148.152 108.122 148.627 107.592 149.1C107.202 149.435 106.91 149.602 106.714 149.602Z" fill="#00A2B5"/>
<path fill-rule="evenodd" clip-rule="evenodd" d="M84.7693 164.357H84.7275C84.7275 164.302 84.8395 164.148 85.0619 163.897C86.1771 162.698 86.7339 161.891 86.7339 161.473C86.7339 161.11 86.5533 160.929 86.1905 160.929C85.9949 160.929 85.8277 160.971 85.6889 161.055C85.5501 161.138 85.4665 161.18 85.4381 161.18H85.3545L85.3963 160.971C85.5635 160.052 85.9949 159.592 86.6921 159.592C87.2221 159.592 87.4863 159.94 87.4863 160.637C87.4863 161.138 87.2773 161.717 86.8593 162.372C86.4413 163.026 85.8979 163.591 85.2291 164.064C84.9499 164.26 84.7977 164.357 84.7693 164.357Z" fill="#00A2B5"/>
<path fill-rule="evenodd" clip-rule="evenodd" d="M102.2 199.636C102.088 199.607 102.032 199.455 102.032 199.176C102.032 198.729 101.768 197.845 101.238 196.522C100.708 195.198 100.347 194.536 100.151 194.536C99.9843 194.536 99.8806 194.585 99.8388 194.683C99.797 194.78 99.6783 194.829 99.4827 194.829C99.2319 194.829 98.9192 194.655 98.543 194.307C98.1668 193.958 97.9779 193.687 97.9779 193.491C97.9779 193.379 98.1384 193.06 98.4594 192.53C98.7788 192 98.9811 191.736 99.0647 191.736C99.8455 191.736 100.541 192.195 101.155 193.115C101.768 194.035 102.186 195.233 102.409 196.71C102.437 196.877 102.457 196.967 102.472 196.982C102.486 196.996 102.506 197.002 102.534 197.002L102.659 196.71C102.771 195.819 103.064 194.494 103.537 192.739C104.067 191.485 104.637 190.858 105.251 190.858C105.585 190.858 105.9 191.06 106.192 191.465C106.485 191.868 106.63 192.182 106.63 192.404C106.63 192.6 106.589 192.836 106.505 193.115C106.366 193.505 106.212 193.7 106.045 193.7C105.99 193.7 105.843 193.555 105.607 193.262C105.37 192.97 105.126 192.822 104.875 192.822C104.318 192.822 103.801 194.132 103.328 196.752C103.133 197.867 102.91 198.661 102.659 199.134C102.492 199.469 102.338 199.636 102.2 199.636Z" fill="#00A2B5"/>
<path fill-rule="evenodd" clip-rule="evenodd" d="M119.797 193.533C118.822 193.533 118.334 192.725 118.334 191.109C118.334 189.131 118.906 187.054 120.048 184.881C120.354 184.35 120.536 184.086 120.591 184.086C120.591 184.198 120.508 184.504 120.341 185.006C119.617 187.263 119.254 188.851 119.254 189.771C119.254 190.997 119.575 191.61 120.215 191.61C120.605 191.61 121.051 191.137 121.553 190.189L121.72 189.98C121.748 189.98 121.762 190.064 121.762 190.231C121.372 192.433 120.717 193.533 119.797 193.533Z" fill="#00A2B5"/>
<path fill-rule="evenodd" clip-rule="evenodd" d="M111.688 214.098L111.646 214.056C111.646 214.028 111.772 213.876 112.022 213.597C113.248 212.259 113.862 211.368 113.862 210.922C113.862 210.504 113.666 210.295 113.276 210.295C113.054 210.295 112.865 210.343 112.713 210.442C112.559 210.539 112.469 210.587 112.44 210.587L112.357 210.545L112.399 210.336C112.566 209.333 113.039 208.832 113.82 208.832C114.405 208.832 114.698 209.208 114.698 209.96C114.698 210.517 114.469 211.159 114.009 211.883C113.549 212.607 112.942 213.234 112.19 213.764C111.91 213.986 111.743 214.098 111.688 214.098Z" fill="#00A2B5"/>
<path fill-rule="evenodd" clip-rule="evenodd" d="M132.713 215.979L132.671 215.937C132.671 215.882 132.825 215.687 133.131 215.352C134.636 213.735 135.388 212.649 135.388 212.092C135.388 211.59 135.151 211.34 134.678 211.34C134.398 211.34 134.169 211.395 133.989 211.507C133.807 211.619 133.688 211.687 133.633 211.716L133.549 211.674L133.591 211.381C133.813 210.156 134.385 209.542 135.305 209.542C136.029 209.542 136.391 210.002 136.391 210.922C136.391 211.619 136.112 212.406 135.555 213.284C134.999 214.162 134.26 214.921 133.34 215.561C132.977 215.84 132.768 215.979 132.713 215.979Z" fill="#00A2B5"/>
<path fill-rule="evenodd" clip-rule="evenodd" d="M141.324 213.973C140.488 213.973 140.07 213.262 140.07 211.841C140.07 210.141 140.571 208.343 141.575 206.449C141.825 205.976 141.979 205.738 142.034 205.738C142.034 205.85 141.964 206.115 141.825 206.533C141.185 208.511 140.864 209.89 140.864 210.671C140.864 211.758 141.143 212.301 141.7 212.301C142.034 212.301 142.424 211.883 142.87 211.047C142.899 210.963 142.941 210.908 142.996 210.88L143.079 210.963L143.038 211.089C142.703 213.011 142.131 213.973 141.324 213.973Z" fill="#00A2B5"/>
<path fill-rule="evenodd" clip-rule="evenodd" d="M129.357 201.318C128.751 201.08 128.65 200.447 129.054 199.418C129.536 198.187 130.409 197.027 131.673 195.94C131.989 195.669 132.168 195.541 132.208 195.556C132.176 195.637 132.05 195.809 131.831 196.072C130.806 197.323 130.182 198.23 129.961 198.796C129.653 199.583 129.701 200.056 130.104 200.214C130.346 200.309 130.747 200.116 131.307 199.638C131.351 199.585 131.397 199.557 131.445 199.552L131.482 199.636L131.416 199.715C130.629 201.013 129.942 201.547 129.357 201.318Z" fill="#00A2B5"/>
<path fill-rule="evenodd" clip-rule="evenodd" d="M149.475 210.462C149.391 210.462 149.349 210.35 149.349 210.127C149.349 209.765 149.14 209.062 148.722 208.017C148.304 206.972 148.012 206.449 147.845 206.449C147.706 206.449 147.622 206.484 147.594 206.554C147.565 206.623 147.468 206.658 147.301 206.658C147.106 206.658 146.863 206.519 146.571 206.24C146.278 205.961 146.131 205.738 146.131 205.571C146.131 205.516 146.256 205.272 146.507 204.841C146.758 204.408 146.912 204.192 146.967 204.192C147.58 204.192 148.13 204.561 148.619 205.3C149.105 206.038 149.446 206.992 149.642 208.163C149.67 208.275 149.684 208.343 149.684 208.372H149.726C149.754 208.343 149.781 208.275 149.809 208.163C149.921 207.466 150.172 206.421 150.562 205.028C150.951 204.025 151.397 203.523 151.899 203.523C152.15 203.523 152.394 203.684 152.631 204.005C152.867 204.324 152.986 204.568 152.986 204.735C152.986 204.874 152.944 205.083 152.86 205.362C152.777 205.641 152.665 205.78 152.526 205.78C152.471 205.78 152.352 205.661 152.172 205.426C151.989 205.188 151.802 205.07 151.606 205.07C151.16 205.07 150.757 206.101 150.394 208.163C150.115 209.696 149.809 210.462 149.475 210.462Z" fill="#00A2B5"/>
<path fill-rule="evenodd" clip-rule="evenodd" d="M156.706 196.626C156.706 196.571 156.818 196.417 157.04 196.166C158.266 194.829 158.88 193.938 158.88 193.491C158.88 193.045 158.684 192.822 158.294 192.822C158.099 192.822 157.925 192.878 157.773 192.99C157.619 193.102 157.514 193.157 157.458 193.157L157.375 193.115L157.417 192.864C157.612 191.889 158.085 191.401 158.838 191.401C159.451 191.401 159.757 191.777 159.757 192.53C159.757 193.087 159.52 193.729 159.047 194.453C158.574 195.177 157.96 195.804 157.208 196.334C156.928 196.529 156.761 196.626 156.706 196.626Z" fill="#00A2B5"/>
<path fill-rule="evenodd" clip-rule="evenodd" d="M154.825 137.355C154.268 137.355 153.989 137.049 153.989 136.435C153.989 135.905 154.253 135.265 154.783 134.512C155.23 133.843 155.648 133.384 156.037 133.133H156.121C156.176 133.133 156.204 133.161 156.204 133.217C156.204 133.272 156.176 133.329 156.121 133.384C155.815 133.663 155.5 134.046 155.181 134.534C154.86 135.021 154.7 135.39 154.7 135.641C154.838 135.529 155.021 135.474 155.243 135.474C155.716 135.474 155.954 135.683 155.954 136.101C155.954 136.463 155.828 136.763 155.577 137C155.327 137.236 155.076 137.355 154.825 137.355Z" fill="#00A2B5"/>
<path fill-rule="evenodd" clip-rule="evenodd" d="M157.96 187.514C157.263 187.514 156.915 186.915 156.915 185.716C156.915 184.267 157.333 182.749 158.169 181.16L158.545 180.533L158.587 180.575C158.587 180.659 158.517 180.881 158.378 181.244C157.848 182.916 157.584 184.086 157.584 184.755C157.584 185.646 157.821 186.093 158.294 186.093C158.574 186.093 158.893 185.745 159.256 185.048L159.423 184.881V185.089C159.117 186.706 158.629 187.514 157.96 187.514Z" fill="#00A2B5"/>
<path fill-rule="evenodd" clip-rule="evenodd" d="M154.449 160.219C153.501 160.219 153.028 159.328 153.028 157.544C153.028 157.042 153.083 156.499 153.195 155.914C153.278 155.496 153.641 154.283 154.282 152.277C154.7 151.078 154.909 149.657 154.909 148.014L154.867 146.718C154.783 144.489 153.793 142.426 151.899 140.531C151.815 140.448 151.774 140.364 151.774 140.281C151.774 140.197 152.024 139.709 152.526 138.818C152.581 138.762 152.623 138.734 152.651 138.734C152.707 138.734 152.763 138.762 152.819 138.818C153.989 139.96 154.77 141.005 155.159 141.953C155.465 142.76 155.674 144.056 155.786 145.84C155.842 146.258 155.87 146.648 155.87 147.01C155.87 148.403 155.536 150.117 154.867 152.152C154.198 154.186 153.864 155.621 153.864 156.457C153.864 157.656 154.211 158.254 154.909 158.254C155.298 158.254 155.745 157.781 156.246 156.833C156.33 156.666 156.4 156.582 156.455 156.582V156.875C156.037 159.104 155.368 160.219 154.449 160.219Z" fill="#00A2B5"/>
<path fill-rule="evenodd" clip-rule="evenodd" d="M139.944 180.408C139.08 180.408 138.649 179.99 138.649 179.154C138.649 178.569 138.996 177.691 139.694 176.521C140.391 175.35 140.976 174.765 141.449 174.765C141.867 174.765 142.237 174.954 142.558 175.33C142.877 175.706 143.038 176.173 143.038 176.73C143.038 177.566 142.738 178.388 142.14 179.196C141.54 180.003 140.809 180.408 139.944 180.408ZM140.571 178.694C141.713 178.694 142.285 178.36 142.285 177.691C142.257 176.883 141.713 176.479 140.655 176.479C140.488 176.479 140.23 176.73 139.883 177.231C139.533 177.733 139.359 178.081 139.359 178.276C139.471 178.555 139.874 178.694 140.571 178.694Z" fill="#00A2B5"/>
<path fill-rule="evenodd" clip-rule="evenodd" d="M137.437 186.176C137.604 185.507 137.868 184.797 138.231 184.045C141.185 183.013 144.404 181.871 147.886 180.617C148.054 180.562 148.179 180.533 148.263 180.533C148.318 180.533 148.346 180.562 148.346 180.617C148.346 180.701 148.318 180.798 148.263 180.91C147.983 181.578 147.761 181.983 147.594 182.122C144.668 183.153 141.282 184.504 137.437 186.176Z" fill="#00A2B5"/>
<path fill-rule="evenodd" clip-rule="evenodd" d="M139.694 195.289C139.665 195.289 139.638 195.247 139.61 195.163C139.665 194.829 139.722 194.516 139.777 194.224C139.832 193.931 140.307 193.449 141.198 192.781C140.083 192.391 139.526 191.889 139.526 191.276C139.526 190.607 139.819 189.925 140.404 189.228C141.519 187.89 142.452 187.221 143.205 187.221C143.874 187.221 144.208 187.597 144.208 188.35C144.208 188.768 144.027 189.269 143.665 189.855C143.636 189.91 143.594 189.938 143.539 189.938C143.511 189.938 143.469 189.896 143.414 189.813C143.191 189.366 142.912 189.144 142.578 189.144C142.299 189.144 141.979 189.269 141.616 189.52C141.254 189.771 141.073 190.008 141.073 190.231C141.073 190.453 141.295 190.684 141.742 190.921C142.188 191.157 142.549 191.276 142.829 191.276C143.079 191.276 143.526 191.095 144.166 190.732C144.472 190.51 144.78 190.314 145.086 190.147L145.504 189.855C145.867 189.687 146.076 189.604 146.131 189.604C146.186 189.632 146.214 189.687 146.214 189.771L146.131 190.105C145.992 190.746 145.81 191.164 145.587 191.359C144.751 191.861 142.926 193.073 140.112 194.996L139.694 195.289Z" fill="#00A2B5"/>
<path fill-rule="evenodd" clip-rule="evenodd" d="M144.501 175.016C144.445 175.016 144.417 175.002 144.417 174.974C144.417 174.835 144.974 174.444 146.089 173.804L150.478 171.212C152.623 169.903 154.226 168.691 155.285 167.576C153.892 166.852 153.195 166.084 153.195 165.277C153.195 164.302 153.641 163.409 154.532 162.601C155.23 161.961 155.828 161.64 156.33 161.64C157.111 161.64 157.5 162.197 157.5 163.312C157.5 164.12 157.333 165.026 156.999 166.029C157.723 166.447 158.169 166.795 158.336 167.074C158.336 167.464 158.015 168.119 157.375 169.039C157.208 168.759 156.776 168.412 156.079 167.994C155.298 169.08 154.295 170.07 153.069 170.961C151.703 171.993 150.436 172.759 149.266 173.26C149.015 173.399 147.677 173.916 145.253 174.807C144.89 174.946 144.639 175.016 144.501 175.016ZM156.163 165.611C156.246 165.332 156.288 165.054 156.288 164.775C156.288 163.967 156.051 163.563 155.577 163.563C155.41 163.563 155.181 163.64 154.889 163.794C154.596 163.946 154.449 164.106 154.449 164.273C154.449 164.608 155.021 165.054 156.163 165.611Z" fill="#00A2B5"/>
<path fill-rule="evenodd" clip-rule="evenodd" d="M104.248 171.923L104.122 171.881C102.98 170.99 101.81 170.167 100.611 169.415L100.569 169.331L102.032 166.154C102.144 165.987 102.241 165.904 102.325 165.904C102.492 165.904 103.057 166.231 104.019 166.887C104.98 167.54 105.614 168.007 105.92 168.286L107.09 165.904C107.174 165.736 107.271 165.653 107.383 165.653C107.55 165.653 108.205 166.042 109.347 166.823C110.489 167.604 111.061 168.064 111.061 168.203C111.061 168.733 110.559 169.819 109.556 171.463C109.473 171.575 109.389 171.63 109.306 171.63C109.25 171.63 109.209 171.617 109.18 171.588C108.177 170.864 107.035 170.084 105.753 169.248C105.335 170.222 104.917 171.045 104.499 171.714C104.415 171.852 104.331 171.923 104.248 171.923Z" fill="#00A2B5"/>
<path fill-rule="evenodd" clip-rule="evenodd" d="M150.394 180.91L150.269 180.868C149.127 180.003 147.957 179.182 146.758 178.402L146.716 178.318C146.716 178.263 147.218 177.203 148.221 175.141C148.304 174.974 148.401 174.89 148.513 174.89C148.652 174.89 149.211 175.218 150.185 175.874C151.16 176.527 151.787 176.994 152.066 177.273L153.237 174.89C153.349 174.723 153.446 174.64 153.529 174.64C153.696 174.64 154.359 175.029 155.516 175.81C156.671 176.591 157.249 177.051 157.249 177.189C157.249 177.719 156.734 178.806 155.703 180.45C155.619 180.562 155.549 180.617 155.494 180.617L155.327 180.575C154.323 179.851 153.195 179.07 151.941 178.234C151.133 180.018 150.617 180.91 150.394 180.91Z" fill="#00A2B5"/>
<path fill-rule="evenodd" clip-rule="evenodd" d="M113.109 195.33L112.984 195.289C111.842 194.424 110.672 193.603 109.473 192.822L109.431 192.739L110.894 189.562C111.006 189.395 111.103 189.311 111.187 189.311C111.354 189.311 112.016 189.709 113.173 190.503C114.328 191.298 114.907 191.749 114.907 191.861C114.907 192.391 114.392 193.478 113.36 195.121C113.276 195.26 113.193 195.33 113.109 195.33Z" fill="#00A2B5"/>
<path fill-rule="evenodd" clip-rule="evenodd" d="M148.263 171.839C148.179 171.811 148.137 171.602 148.137 171.212C148.137 170.906 148.166 170.488 148.221 169.958C148.388 168.733 148.472 167.311 148.472 165.695C148.472 164.218 148.166 159.187 147.552 150.605C146.938 142.023 146.632 137.104 146.632 135.85C146.632 134.374 146.41 133.161 145.964 132.213C145.964 131.683 146.382 130.429 147.218 128.451C147.33 128.201 147.427 128.075 147.51 128.075C147.677 128.075 148.333 129.635 149.475 132.757C150.7 135.905 151.314 137.717 151.314 138.191C151.314 138.413 151.244 138.525 151.105 138.525C150.826 138.525 150.24 138.01 149.349 136.978C149.294 136.923 149.252 136.895 149.224 136.895C149.169 136.895 149.14 137.02 149.14 137.271C149.14 137.41 149.404 141.103 149.934 148.348C150.464 155.593 150.729 159.801 150.729 160.971C150.729 164.511 150.185 167.631 149.098 170.334C148.68 171.309 148.401 171.811 148.263 171.839Z" fill="#FFB000"/>
<path fill-rule="evenodd" clip-rule="evenodd" d="M104.958 208.372C99.2452 208.372 95.3027 205.571 93.1292 199.97C92.7112 198.883 92.5022 197.491 92.5022 195.79C92.5022 192.948 92.9753 190.314 93.9233 187.89C94.0621 187.501 94.2159 187.305 94.3831 187.305C94.4667 187.305 94.5085 187.402 94.5085 187.597L94.4667 188.057C93.7979 190.816 93.4636 192.642 93.4636 193.533C93.4636 195.845 94.2293 197.977 95.7625 199.928C97.8809 202.52 100.932 203.816 104.917 203.816C108.399 203.816 112.106 202.993 116.035 201.349C119.184 200.04 122.026 198.395 124.562 196.417C126.819 194.662 127.948 193.394 127.948 192.613C127.948 192.501 127.488 191.513 126.569 189.646C125.427 187.472 124.591 185.354 124.061 183.292C123.838 182.595 123.581 182.122 123.288 181.871C122.996 181.62 122.848 181.356 122.848 181.077C122.848 180.881 123.057 179.768 123.475 177.733C123.559 177.37 123.656 177.189 123.768 177.189C123.907 177.189 124.061 177.273 124.228 177.44C124.813 178.081 126.054 179.35 127.948 181.244C128.254 181.55 128.408 181.787 128.408 181.955C128.408 182.177 128.227 182.289 127.864 182.289C127.475 182.289 126.89 182.164 126.109 181.913C126.164 182.164 126.791 183.501 127.99 185.926C128.965 187.903 129.453 189.604 129.453 191.025C129.453 193.867 128.826 196.013 127.572 197.462C125.537 199.803 122.584 202.073 118.71 204.275C113.778 207.006 109.193 208.372 104.958 208.372Z" fill="#FF6106"/>
<path fill-rule="evenodd" clip-rule="evenodd" d="M152.86 196.71C154.086 197.935 155.564 198.549 157.291 198.549C158.768 198.549 160.204 198.005 161.596 196.919C161.986 196.529 162.182 195.289 162.182 193.199C162.182 191.945 161.638 183.891 160.552 169.039C159.465 154.158 158.921 145.937 158.921 144.377C158.921 142.901 158.684 141.702 158.211 140.782C158.211 140.225 158.642 138.971 159.507 137.02C159.59 136.798 159.66 136.686 159.716 136.686C159.883 136.686 160.008 136.798 160.092 137.02C160.314 137.577 160.899 138.985 161.847 141.242C162.683 143.722 163.227 145.241 163.477 145.798C163.561 146.271 163.603 146.579 163.603 146.718C163.603 147.415 162.976 147.024 161.722 145.547C161.555 145.325 161.471 145.409 161.471 145.798C161.471 145.882 161.944 152.807 162.892 166.572C163.895 180.338 164.397 188.002 164.397 189.562C164.397 193.938 163.616 197.407 162.056 199.97C160.747 202.06 159.159 203.105 157.291 203.105C155.648 203.105 153.934 202.366 152.15 200.89C151.202 200.109 150.464 199.259 149.934 198.34L144.919 200.555C142.578 201.475 140.822 202.214 139.652 202.771C137.395 203.857 135.835 204.749 134.97 205.446C133.41 206.616 131.153 208.915 128.199 212.343C126.415 214.433 124.632 215.478 122.848 215.478C121.289 215.478 119.964 214.78 118.878 213.388C117.707 211.995 117.122 210.281 117.122 208.246C117.122 205.459 118.251 201.809 120.508 197.295C120.73 196.822 120.926 196.584 121.093 196.584C121.177 196.584 121.218 196.626 121.218 196.71C121.218 197.156 120.703 198.745 119.672 201.475C118.669 204.205 118.167 206.352 118.167 207.912C118.167 209.082 118.446 210.015 119.003 210.712C119.617 211.493 120.466 211.883 121.553 211.883C123.42 211.883 125.286 210.95 127.154 209.082C127.851 208.218 128.547 207.397 129.244 206.616L130.916 204.735C132.449 202.951 134.511 201.363 137.102 199.97C138.578 199.106 141.185 197.893 144.919 196.334L148.639 194.829C148.109 193.352 147.845 191.874 147.845 190.398C147.845 188.141 148.192 186.315 148.889 184.922C149.587 183.501 150.478 182.791 151.565 182.791C152.484 182.791 153.417 183.613 154.365 185.257C155.146 186.733 155.536 188.057 155.536 189.228C155.536 192.266 154.644 194.759 152.86 196.71ZM150.603 193.909C151.244 193.63 151.983 193.199 152.819 192.613C153.822 191.945 154.323 191.471 154.323 191.192C154.323 190.691 153.912 189.896 153.091 188.81C152.269 187.723 151.551 187.179 150.938 187.179C150.464 187.179 150.005 187.465 149.558 188.037C149.112 188.607 148.889 189.157 148.889 189.687C148.889 190.134 149.127 190.9 149.6 191.986C150.047 192.961 150.381 193.603 150.603 193.909Z" fill="#FF6106"/>
<path fill-rule="evenodd" clip-rule="evenodd" d="M168.452 190.607C168.34 190.607 168.284 190.426 168.284 190.064C168.284 189.758 168.326 189.311 168.41 188.726C168.549 187.527 168.619 186.106 168.619 184.463C168.619 183.013 168.313 177.997 167.699 169.415C167.086 160.833 166.78 155.9 166.78 154.618C166.78 153.168 166.557 151.971 166.111 151.023C166.111 150.493 166.529 149.226 167.365 147.219C167.477 146.997 167.587 146.885 167.699 146.885C167.754 146.885 167.853 147.01 167.992 147.261C168.214 147.791 168.779 149.247 169.686 151.63C170.59 154.013 171.127 155.482 171.294 156.039C171.406 156.457 171.461 156.778 171.461 157C171.461 157.196 171.406 157.293 171.294 157.293C171.015 157.293 170.43 156.778 169.538 155.746L169.413 155.663C169.329 155.663 169.288 155.802 169.288 156.081C169.288 156.193 169.552 159.878 170.082 167.138C170.612 174.396 170.876 178.597 170.876 179.739C170.876 183.306 170.346 186.427 169.288 189.102C168.898 190.105 168.619 190.607 168.452 190.607Z" fill="#FF6106"/>
</g>
<path d="M0 328.083C0 319.9 6.63365 313.267 14.8167 313.267H249.767C252.105 313.267 254 315.162 254 317.5V347.133C254 349.471 252.105 351.367 249.767 351.367H14.8167C6.63365 351.367 0 344.733 0 336.55V328.083Z" fill="#192847"/>
<path d="M3.17499 329.142C3.17499 322.128 8.86097 316.442 15.875 316.442H254V348.192H15.875C8.86095 348.192 3.17499 342.506 3.17499 335.492V329.142Z" fill="#FEFFBE"/>
<defs>
<clipPath id="clip0_10_104">
<rect width="91.2898" height="93.2962" fill="white" transform="translate(80.2968 122.767)"/>
</clipPath>
</defs>
</svg>
