<svg width="700" height="400" viewBox="0 0 700 400" fill="none" xmlns="http://www.w3.org/2000/svg">
<rect width="700" height="400" fill="white"/>
<path d="M328.56 232.64L311.92 218.4L319.6 216.16L339.12 232V232.64H328.56ZM282.48 191.2C282.48 185.333 283.547 180.16 285.68 175.68C287.867 171.2 290.96 167.707 294.96 165.2C299.013 162.693 303.813 161.44 309.36 161.44C314.907 161.44 319.68 162.693 323.68 165.2C327.733 167.707 330.827 171.2 332.96 175.68C335.147 180.16 336.24 185.333 336.24 191.2C336.24 197.067 335.147 202.24 332.96 206.72C330.827 211.2 327.733 214.693 323.68 217.2C319.68 219.707 314.907 220.96 309.36 220.96C303.76 220.96 298.96 219.707 294.96 217.2C290.96 214.693 287.867 211.2 285.68 206.72C283.547 202.24 282.48 197.067 282.48 191.2ZM290.48 191.2C290.48 196.107 291.253 200.267 292.8 203.68C294.347 207.04 296.533 209.6 299.36 211.36C302.187 213.067 305.52 213.92 309.36 213.92C313.2 213.92 316.533 213.067 319.36 211.36C322.187 209.6 324.373 207.04 325.92 203.68C327.467 200.267 328.24 196.107 328.24 191.2C328.24 186.293 327.467 182.16 325.92 178.8C324.373 175.387 322.187 172.827 319.36 171.12C316.533 169.36 313.2 168.48 309.36 168.48C305.52 168.48 302.187 169.36 299.36 171.12C296.533 172.827 294.347 175.387 292.8 178.8C291.253 182.16 290.48 186.293 290.48 191.2ZM368.232 220.96C365.459 220.96 362.845 220.667 360.392 220.08C357.992 219.547 355.885 218.587 354.072 217.2C352.312 215.76 350.925 213.813 349.912 211.36C348.899 208.907 348.392 205.813 348.392 202.08V190.24C348.392 189.173 348.365 187.787 348.312 186.08C348.312 184.373 348.259 182.693 348.152 181.04C348.099 179.387 347.965 178.08 347.752 177.12L347.912 176.48H355.752V201.44C355.752 204.96 356.259 207.68 357.272 209.6C358.339 211.467 359.859 212.773 361.832 213.52C363.859 214.213 366.285 214.56 369.112 214.56C370.819 214.56 372.552 214.427 374.312 214.16C376.125 213.84 377.699 213.493 379.032 213.12L377.672 215.04C377.459 214.293 377.325 213.36 377.272 212.24C377.219 211.12 377.192 209.973 377.192 208.8V190.24C377.192 189.173 377.165 187.787 377.112 186.08C377.112 184.373 377.059 182.693 376.952 181.04C376.899 179.387 376.765 178.08 376.552 177.12L376.712 176.48H384.552V204.32C384.552 205.387 384.552 206.773 384.552 208.48C384.605 210.187 384.659 211.867 384.712 213.52C384.819 215.173 384.979 216.48 385.192 217.44L385.032 218.08C383.645 218.613 381.885 219.093 379.752 219.52C377.672 219.947 375.565 220.293 373.432 220.56C371.352 220.827 369.619 220.96 368.232 220.96ZM399.899 220V192.48C399.899 191.413 399.872 190.027 399.819 188.32C399.819 186.613 399.765 184.933 399.659 183.28C399.605 181.627 399.472 180.32 399.259 179.36L399.419 178.72C400.805 178.187 402.512 177.733 404.539 177.36C406.619 176.987 408.672 176.693 410.699 176.48C412.779 176.267 414.512 176.16 415.899 176.16C417.179 176.16 418.219 176.187 419.019 176.24C419.819 176.293 420.485 176.373 421.019 176.48V182.88H420.379C419.685 182.773 418.859 182.693 417.899 182.64C416.939 182.587 416.059 182.56 415.259 182.56C413.605 182.56 411.872 182.693 410.059 182.96C408.245 183.227 406.672 183.493 405.339 183.76L406.779 181.76C407.099 183.52 407.259 185.707 407.259 188.32V220H399.899ZM444.864 220.96C438.624 220.96 433.931 219.84 430.784 217.6C427.691 215.307 426.144 211.84 426.144 207.2C426.144 204.107 426.891 201.547 428.384 199.52C429.931 197.493 432.091 195.973 434.864 194.96C437.691 193.947 441.024 193.44 444.864 193.44C447.851 193.44 450.331 193.707 452.304 194.24C454.331 194.72 456.064 195.2 457.504 195.68V201.44C456.064 200.96 454.278 200.533 452.144 200.16C450.011 199.733 448.011 199.52 446.144 199.52C441.824 199.52 438.598 200.08 436.464 201.2C434.384 202.32 433.344 204.32 433.344 207.2C433.344 209.92 434.358 211.893 436.384 213.12C438.411 214.293 441.344 214.88 445.184 214.88C447.318 214.88 449.371 214.72 451.344 214.4C453.318 214.027 455.158 213.547 456.864 212.96L455.424 215.12C455.318 214.693 455.211 214.213 455.104 213.68C455.051 213.147 454.998 212.587 454.944 212C454.891 211.413 454.838 210.8 454.784 210.16C454.784 209.52 454.784 208.853 454.784 208.16V193.76C454.784 190.347 454.304 187.813 453.344 186.16C452.438 184.453 451.051 183.333 449.184 182.8C447.371 182.213 445.078 181.92 442.304 181.92C440.224 181.92 438.091 182.187 435.904 182.72C433.771 183.253 432.064 183.84 430.784 184.48H430.144V177.92C432.064 177.12 434.198 176.533 436.544 176.16C438.944 175.733 441.184 175.52 443.264 175.52C445.931 175.52 448.384 175.76 450.624 176.24C452.918 176.72 454.918 177.6 456.624 178.88C458.384 180.107 459.744 181.893 460.704 184.24C461.664 186.587 462.144 189.653 462.144 193.44V204C462.144 205.067 462.144 206.453 462.144 208.16C462.198 209.867 462.251 211.547 462.304 213.2C462.411 214.853 462.571 216.16 462.784 217.12L462.624 217.76C460.864 218.4 458.918 218.96 456.784 219.44C454.651 219.92 452.518 220.293 450.384 220.56C448.304 220.827 446.464 220.96 444.864 220.96ZM476.852 220V192.48C476.852 191.413 476.825 190.027 476.772 188.32C476.772 186.613 476.719 184.933 476.612 183.28C476.559 181.627 476.425 180.32 476.212 179.36L476.372 178.72C477.759 178.187 479.519 177.68 481.652 177.2C483.785 176.72 485.945 176.32 488.132 176C490.319 175.68 492.212 175.52 493.812 175.52C496.479 175.52 498.959 175.813 501.252 176.4C503.545 176.933 505.572 177.92 507.332 179.36C509.145 180.747 510.532 182.667 511.492 185.12C512.505 187.52 513.012 190.613 513.012 194.4V220H505.652V195.04C505.652 191.52 505.145 188.827 504.132 186.96C503.119 185.04 501.652 183.733 499.732 183.04C497.812 182.293 495.519 181.92 492.852 181.92C491.145 181.92 489.305 182.107 487.332 182.48C485.412 182.853 483.732 183.307 482.292 183.84L483.572 181.6C483.785 182.4 483.945 183.413 484.052 184.64C484.159 185.813 484.212 187.04 484.212 188.32V220H476.852ZM544.653 220L551.053 181.6C551.586 178.4 552.359 175.573 553.373 173.12C554.439 170.667 555.853 168.587 557.613 166.88C559.373 165.173 561.639 163.893 564.413 163.04C567.186 162.187 570.573 161.76 574.573 161.76C576.493 161.76 578.413 161.867 580.333 162.08C582.306 162.24 584.333 162.56 586.413 163.04L586.573 164C586.413 165.067 586.279 166.4 586.173 168C586.119 169.6 586.093 171.2 586.093 172.8C586.093 174.4 586.093 175.733 586.093 176.8V220H578.413V172.64C578.413 171.573 578.413 170.587 578.413 169.68C578.466 168.72 578.573 167.813 578.733 166.96L580.013 169.28C579.319 168.96 578.466 168.747 577.453 168.64C576.493 168.533 575.426 168.48 574.253 168.48C570.733 168.48 567.933 168.96 565.853 169.92C563.826 170.88 562.279 172.32 561.213 174.24C560.199 176.16 559.426 178.613 558.893 181.6L552.493 220H544.653ZM552.653 202.4V195.68H581.613V202.4H552.653ZM605.941 200.8V194.08H618.421C621.621 194.08 624.235 193.413 626.261 192.08C628.288 190.693 629.781 188.88 630.741 186.64C631.701 184.347 632.181 181.813 632.181 179.04C632.181 175.36 631.221 172.8 629.301 171.36C627.381 169.867 624.821 169.12 621.621 169.12H605.941V162.4H621.941C627.381 162.4 631.781 163.787 635.141 166.56C638.501 169.28 640.181 173.44 640.181 179.04C640.181 181.653 639.755 184.267 638.901 186.88C638.101 189.44 636.821 191.787 635.061 193.92C633.301 196 631.035 197.68 628.261 198.96C625.541 200.187 622.261 200.8 618.421 200.8H605.941ZM601.461 220V162.4H609.141V220H601.461ZM651.071 162.4H658.751V220H651.071V162.4Z" fill="black"/>
<path d="M33 62.5924C33 57.8561 36.8395 54.0167 41.5757 54.0167H241.562C242.915 54.0167 244.012 55.1137 244.012 56.4669V332.916C244.012 334.269 242.915 335.366 241.562 335.366H41.5757C36.8395 335.366 33 331.527 33 326.79V62.5924Z" fill="#5574B3"/>
<path fill-rule="evenodd" clip-rule="evenodd" d="M186.678 159.523C183.702 145.579 173.094 125.138 138.506 115.562C103.918 125.138 93.3104 145.579 90.3341 159.523H83.9366C77.1705 159.523 71.6855 165.008 71.6855 171.774V219.367C71.6855 226.134 77.1705 231.618 83.9365 231.618H90.5149C93.7284 245.533 104.585 265.374 138.506 274.765C172.427 265.374 183.284 245.533 186.497 231.618H191.317C198.083 231.618 203.568 226.134 203.568 219.367V171.774C203.568 165.008 198.083 159.523 191.317 159.523H186.678Z" fill="#FEFFBE"/>
<g clip-path="url(#clip0_10_110)">
<path fill-rule="evenodd" clip-rule="evenodd" d="M146.378 198.926C146.725 207.145 146.887 211.694 146.864 212.573C146.771 215.698 146.146 218.326 144.989 220.456C144.895 220.594 144.826 220.664 144.78 220.664C144.711 220.664 144.676 220.514 144.676 220.212C144.7 219.98 144.734 219.668 144.78 219.275C144.895 218.348 144.977 217.284 145.023 216.08C145.047 214.993 144.873 209.725 144.502 200.28C144.479 199.818 144.468 199.354 144.468 198.891C144.051 186.783 143.854 180.302 143.877 179.445C143.901 178.358 143.762 177.442 143.461 176.702C143.484 176.239 143.831 175.302 144.502 173.889C144.572 173.727 144.641 173.646 144.711 173.646C144.804 173.646 144.884 173.739 144.954 173.924C145.116 174.317 145.498 175.406 146.1 177.188C146.933 179.595 147.35 180.973 147.35 181.32C147.326 181.483 147.269 181.563 147.176 181.563C146.968 181.54 146.54 181.136 145.891 180.348C145.846 180.302 145.811 180.279 145.787 180.279C145.741 180.279 145.718 180.372 145.718 180.556C145.718 180.672 145.937 186.796 146.378 198.926Z" fill="#FF6106"/>
<path fill-rule="evenodd" clip-rule="evenodd" d="M103.423 179.272C103.423 179.248 103.492 179.156 103.631 178.994C104.302 178.253 104.638 177.755 104.638 177.501C104.638 177.269 104.534 177.153 104.325 177.153C104.21 177.153 104.106 177.183 104.013 177.241C103.92 177.298 103.863 177.327 103.839 177.327H103.805L103.839 177.119C103.955 176.609 104.21 176.355 104.603 176.355C104.951 176.355 105.124 176.563 105.124 176.98C105.124 177.303 104.991 177.663 104.726 178.056C104.459 178.449 104.117 178.797 103.7 179.098C103.538 179.213 103.446 179.272 103.423 179.272Z" fill="#00A2B5"/>
<path fill-rule="evenodd" clip-rule="evenodd" d="M106.652 218.615C106.652 218.591 106.722 218.5 106.86 218.337C107.531 217.597 107.867 217.098 107.867 216.844C107.867 216.612 107.763 216.497 107.555 216.497C107.44 216.497 107.335 216.526 107.242 216.584C107.149 216.641 107.092 216.67 107.069 216.67H107.034L107.069 216.462C107.184 215.952 107.44 215.698 107.833 215.698C108.18 215.698 108.354 215.907 108.354 216.323C108.354 216.647 108.22 217.007 107.955 217.4C107.688 217.793 107.347 218.14 106.93 218.441C106.767 218.557 106.676 218.615 106.652 218.615Z" fill="#00A2B5"/>
<path fill-rule="evenodd" clip-rule="evenodd" d="M162.907 199.412C162.907 199.389 162.987 199.284 163.15 199.1C163.937 198.243 164.33 197.676 164.33 197.398C164.33 197.12 164.203 196.981 163.948 196.981C163.809 196.981 163.671 197.027 163.532 197.12L163.393 197.19L163.358 197.155L163.393 196.947C163.508 196.345 163.798 196.044 164.261 196.044C164.654 196.044 164.851 196.287 164.851 196.773C164.851 197.144 164.701 197.561 164.4 198.023C164.098 198.486 163.716 198.88 163.254 199.204C163.046 199.343 162.93 199.412 162.907 199.412Z" fill="#00A2B5"/>
<path fill-rule="evenodd" clip-rule="evenodd" d="M144.016 171.597C144.016 171.528 144.131 171.331 144.363 171.007C145.475 169.41 146.03 168.344 146.03 167.812V167.708C145.961 167.291 145.764 167.083 145.44 167.083C145.093 167.083 144.826 167.176 144.641 167.361L144.363 167.569C144.363 167.546 144.329 167.535 144.259 167.535C144.283 167.465 144.294 167.326 144.294 167.118C144.387 166.052 144.838 165.462 145.648 165.347H145.857C146.412 165.347 146.736 165.729 146.829 166.493L146.864 166.84C146.864 167.396 146.69 168.032 146.343 168.75C145.926 169.653 145.336 170.463 144.572 171.181C144.27 171.458 144.086 171.597 144.016 171.597Z" fill="#00A2B5"/>
<path fill-rule="evenodd" clip-rule="evenodd" d="M112.139 202.155C112.069 202.155 112.034 202.062 112.034 201.878C112.034 201.554 111.85 200.935 111.479 200.021C111.108 199.105 110.854 198.648 110.715 198.648C110.6 198.648 110.53 198.683 110.506 198.752C110.483 198.822 110.402 198.857 110.263 198.857C110.079 198.857 109.858 198.736 109.604 198.493C109.349 198.25 109.222 198.058 109.222 197.919C109.222 197.85 109.331 197.63 109.552 197.259C109.772 196.888 109.905 196.704 109.951 196.704C110.483 196.704 110.963 197.022 111.393 197.659C111.82 198.295 112.127 199.134 112.312 200.176V200.35H112.347C112.371 200.35 112.382 200.339 112.382 200.315C112.382 200.291 112.405 200.246 112.451 200.176C112.521 199.551 112.729 198.637 113.076 197.433C113.447 196.554 113.84 196.113 114.257 196.113C114.489 196.113 114.703 196.252 114.9 196.53C115.096 196.808 115.194 197.027 115.194 197.19C115.194 197.305 115.16 197.486 115.09 197.729C115.021 197.972 114.928 198.093 114.812 198.093C114.767 198.093 114.662 197.988 114.5 197.78C114.337 197.572 114.164 197.468 113.979 197.468C113.608 197.468 113.261 198.37 112.937 200.176C112.798 200.964 112.636 201.519 112.451 201.843C112.336 202.051 112.232 202.155 112.139 202.155Z" fill="#00A2B5"/>
<path fill-rule="evenodd" clip-rule="evenodd" d="M108.944 188.508C108.851 188.508 108.805 188.404 108.805 188.196C108.805 187.872 108.626 187.253 108.267 186.339C107.908 185.423 107.659 184.967 107.52 184.967C107.405 184.967 107.33 185.001 107.295 185.071C107.26 185.14 107.173 185.175 107.034 185.175C106.872 185.175 106.663 185.054 106.409 184.811C106.155 184.568 106.027 184.376 106.027 184.237C106.027 184.168 106.137 183.954 106.358 183.596C106.577 183.236 106.71 183.057 106.756 183.057C107.288 183.057 107.769 183.369 108.198 183.994C108.626 184.619 108.92 185.453 109.083 186.494L109.118 186.564V186.668H109.152C109.176 186.668 109.193 186.651 109.205 186.617C109.216 186.582 109.233 186.54 109.256 186.494C109.326 185.869 109.534 184.955 109.881 183.751C110.229 182.872 110.622 182.432 111.062 182.432C111.294 182.432 111.508 182.57 111.705 182.848C111.901 183.126 112 183.346 112 183.508C112 183.647 111.965 183.809 111.896 183.994C111.826 184.272 111.733 184.411 111.618 184.411C111.572 184.411 111.468 184.307 111.305 184.098C111.143 183.89 110.969 183.786 110.784 183.786C110.413 183.786 110.066 184.689 109.743 186.494C109.465 187.838 109.198 188.508 108.944 188.508Z" fill="#00A2B5"/>
<path fill-rule="evenodd" clip-rule="evenodd" d="M138.252 192.884C141.284 194.435 144.131 194.978 146.794 194.516C148.021 194.516 149.214 194.065 150.371 193.162C150.695 192.907 150.857 191.912 150.857 190.175C150.857 189.064 150.568 184.793 149.989 177.362C149.479 169.861 149.225 165.462 149.225 164.166C149.225 162.94 149.028 161.944 148.635 161.18C148.635 160.717 148.993 159.641 149.711 157.95C149.757 157.766 149.815 157.673 149.885 157.673C149.954 157.673 150.058 157.8 150.197 158.055C150.382 158.448 150.833 159.617 151.552 161.562C151.597 161.677 151.621 161.77 151.621 161.84C152.339 163.715 152.767 164.884 152.906 165.347C153.021 165.74 153.079 165.996 153.079 166.111C153.079 166.621 152.535 166.296 151.447 165.139C151.308 164.954 151.239 165.023 151.239 165.347C151.239 165.416 151.506 168.739 152.038 175.313C152.478 181.865 152.697 185.776 152.697 187.05C152.697 190.755 152.049 193.637 150.753 195.697C149.526 197.387 148.207 198.255 146.794 198.301C142.651 198.579 139.155 197.7 136.307 195.662L131.654 192.294C131.469 192.109 131.248 191.912 130.994 191.703C130.716 191.588 130.554 191.53 130.508 191.53C130.439 191.53 130.497 191.692 130.682 192.016C131.4 193.359 131.758 194.331 131.758 194.933C131.758 197.062 131.018 198.672 129.536 199.759C128.355 200.547 125.831 201.611 121.966 202.954L121.271 203.267C119.327 204.1 118.042 204.806 117.417 205.385C116.051 206.357 114.142 208.302 111.687 211.219C110.205 212.885 108.712 213.719 107.208 213.719C105.981 213.719 104.916 213.174 104.013 212.087C102.971 210.86 102.45 209.402 102.45 207.711C102.45 205.396 103.423 202.364 105.367 198.613C105.576 198.22 105.738 198.023 105.853 198.023C105.923 198.023 105.958 198.093 105.958 198.232C105.958 198.555 105.541 199.84 104.707 202.086C103.85 204.354 103.423 206.138 103.423 207.434C103.423 208.406 103.655 209.181 104.117 209.76C104.627 210.409 105.309 210.733 106.166 210.733C107.717 210.733 109.291 209.957 110.888 208.406L112.451 206.566C112.914 205.986 113.4 205.408 113.91 204.829C115.275 203.325 117.024 201.993 119.153 200.836C120.38 200.187 122.545 199.319 125.647 198.232C127.776 197.444 129.258 196.797 130.091 196.287C130.485 196.079 130.623 195.79 130.508 195.419C129.79 193.335 126.943 190.65 121.966 187.363L109.361 179.098C108.781 178.774 108.191 178.427 107.59 178.056C107.474 177.917 107.416 177.49 107.416 176.771C107.416 175.869 107.544 174.907 107.798 173.889C108.052 172.778 108.377 172.095 108.77 171.84C111.409 169.896 117.128 167.303 125.924 164.062C134.86 160.774 140.752 159.131 143.599 159.131C144.433 159.131 145.012 159.259 145.336 159.513C145.659 159.837 145.822 160.323 145.822 160.972C145.822 162.454 144.722 164.329 142.523 166.597L141.169 167.778C140.776 168.101 140.381 168.449 139.988 168.819C138.645 170.115 137.742 171.157 137.28 171.945C136.956 172.454 136.735 172.709 136.62 172.709C136.55 172.709 136.609 172.35 136.793 171.632C136.863 171.261 137.221 170.59 137.87 169.618C138.449 168.715 138.9 168.125 139.224 167.847C141.748 165.601 143.263 164.12 143.773 163.402V163.124C143.773 162.731 143.067 162.534 141.655 162.534C139.456 162.534 134.154 164.086 125.751 167.187C117.347 170.358 111.594 172.941 108.492 174.931C108.284 175.07 108.308 175.198 108.562 175.313C111.294 176.678 114.014 178.08 116.722 179.515C123.135 182.987 128.795 186.414 133.703 189.793C135.185 190.811 136.7 191.842 138.252 192.884Z" fill="#FFB000"/>
<path fill-rule="evenodd" clip-rule="evenodd" d="M128.737 180.279C128.691 180.163 128.644 179.99 128.598 179.758L128.564 179.688C127.707 177.559 127.116 175.463 126.793 173.403C126.747 173.01 126.688 172.778 126.619 172.709C126.55 172.385 126.352 172.06 126.029 171.736L127.105 169.688C127.29 169.364 127.452 169.201 127.591 169.201C127.661 169.201 127.823 169.364 128.077 169.688L130.786 173.195C131.179 173.657 131.376 173.982 131.376 174.167C131.376 174.352 131.272 174.445 131.064 174.445C130.74 174.445 130.161 174.225 129.328 173.785C129.582 175.128 130.137 176.806 130.994 178.82C131.179 179.33 131.817 179.873 132.904 180.452C134.015 181.101 135.381 181.622 137.002 182.015C137.65 182.223 137.939 182.582 137.87 183.091L137.28 185.592C137.21 185.869 136.852 185.869 136.203 185.592C134.536 184.828 132.476 184.446 130.022 184.446C126.643 184.446 122.602 185.928 117.903 188.89C116.861 189.539 115.854 190.186 114.882 190.835L110.611 193.752C108.805 194.794 107.162 195.315 105.68 195.315C104.128 195.315 102.763 194.759 101.582 193.648C100.356 192.491 99.7418 191.067 99.7418 189.377C99.7418 186.992 100.946 183.925 103.353 180.174C103.607 179.851 103.794 179.688 103.909 179.688C103.978 179.688 104.013 179.723 104.013 179.793C104.013 180.186 103.492 181.505 102.45 183.751C101.432 185.95 100.922 187.733 100.922 189.099C100.922 190.071 101.246 190.846 101.895 191.425C102.474 192.074 103.307 192.398 104.395 192.398C106.155 192.398 107.809 191.946 109.361 191.043C111.351 189.678 113.285 188.324 115.16 186.981C118.331 184.897 121.306 183.276 124.084 182.119C126.213 181.286 127.8 180.869 128.841 180.869C128.772 180.73 128.737 180.533 128.737 180.279Z" fill="#FFB000"/>
<path fill-rule="evenodd" clip-rule="evenodd" d="M138.356 190.905C138.356 190.859 138.471 190.707 138.703 190.453C139.884 189.179 140.474 188.324 140.474 187.883C140.474 187.49 140.29 187.293 139.919 187.293C139.71 187.293 139.531 187.339 139.381 187.432C139.23 187.525 139.144 187.582 139.12 187.606L139.016 187.536C139.039 187.513 139.062 187.408 139.085 187.224C139.27 186.344 139.71 185.904 140.405 185.904C140.984 185.904 141.273 186.262 141.273 186.981C141.273 187.513 141.053 188.127 140.613 188.821C140.173 189.516 139.595 190.117 138.877 190.627C138.599 190.811 138.425 190.905 138.356 190.905Z" fill="#00A2B5"/>
<path fill-rule="evenodd" clip-rule="evenodd" d="M99.707 201.912C99.707 201.867 99.8348 201.704 100.089 201.426C101.339 200.037 101.964 199.111 101.964 198.648C101.964 198.208 101.767 197.988 101.374 197.988C101.142 197.988 100.946 198.047 100.784 198.162C100.621 198.277 100.529 198.336 100.506 198.336C100.482 198.312 100.447 198.301 100.402 198.301C100.425 198.255 100.447 198.127 100.471 197.919C100.679 196.97 101.154 196.495 101.895 196.495C102.52 196.495 102.832 196.888 102.832 197.676C102.832 198.255 102.595 198.92 102.121 199.673C101.646 200.425 101.027 201.068 100.263 201.6C99.939 201.808 99.7529 201.912 99.707 201.912Z" fill="#00A2B5"/>
<path fill-rule="evenodd" clip-rule="evenodd" d="M114.257 165.139C114.372 164.629 114.593 164.062 114.917 163.437C121.213 161.052 127.684 158.634 134.328 156.179L134.64 156.11H134.693C134.704 156.11 134.71 156.134 134.71 156.179C134.71 156.225 134.686 156.307 134.64 156.423C134.408 156.978 134.242 157.302 134.138 157.395C134.033 157.488 130.914 158.68 124.779 160.971C118.504 163.333 114.997 164.722 114.257 165.139Z" fill="#00A2B5"/>
<path fill-rule="evenodd" clip-rule="evenodd" d="M138.009 181.043C137.916 181.043 137.87 180.915 137.87 180.661C137.87 180.244 137.638 179.451 137.175 178.283C136.713 177.113 136.388 176.528 136.203 176.528C136.064 176.528 135.978 176.574 135.943 176.667C135.909 176.76 135.797 176.806 135.613 176.806C135.404 176.806 135.132 176.651 134.797 176.338C134.461 176.026 134.293 175.775 134.293 175.591C134.293 175.521 134.432 175.249 134.71 174.775C134.988 174.3 135.161 174.063 135.231 174.063C135.925 174.063 136.545 174.468 137.089 175.278C137.632 176.088 138.009 177.153 138.217 178.473L138.252 178.542V178.716H138.287C138.31 178.716 138.321 178.705 138.321 178.681C138.321 178.658 138.345 178.588 138.391 178.473C138.506 177.685 138.784 176.517 139.224 174.966C139.687 173.854 140.185 173.299 140.717 173.299C141.019 173.299 141.297 173.478 141.551 173.838C141.805 174.196 141.933 174.48 141.933 174.688C141.933 174.85 141.887 175.075 141.794 175.366C141.701 175.655 141.574 175.799 141.412 175.799C141.366 175.799 141.238 175.671 141.03 175.417C140.822 175.163 140.602 175.035 140.37 175.035C139.884 175.035 139.433 176.181 139.016 178.473C138.853 179.491 138.657 180.198 138.425 180.591C138.263 180.893 138.124 181.043 138.009 181.043Z" fill="#00A2B5"/>
<path fill-rule="evenodd" clip-rule="evenodd" d="M122.139 221.601V221.567C122.139 221.543 122.232 221.404 122.417 221.15C123.296 219.993 123.737 219.229 123.737 218.858C123.737 218.487 123.574 218.303 123.251 218.303C123.066 218.303 122.892 218.372 122.73 218.511L122.521 218.65L122.452 218.615C122.476 218.569 122.487 218.476 122.487 218.337C122.58 217.504 122.962 217.087 123.633 217.087C124.073 217.087 124.316 217.376 124.362 217.955V218.129C124.362 218.546 124.223 219.032 123.945 219.587C123.598 220.236 123.135 220.803 122.556 221.289C122.348 221.474 122.209 221.578 122.139 221.601Z" fill="#00A2B5"/>
<path fill-rule="evenodd" clip-rule="evenodd" d="M133.147 200.836H133.008C132.568 200.743 132.349 200.5 132.349 200.107C132.349 199.458 132.731 198.763 133.495 198.023C134.074 197.444 134.582 197.074 135.022 196.912H135.092C135.138 196.912 135.172 196.923 135.196 196.947C135.196 197.016 135.15 197.086 135.057 197.155C134.71 197.363 134.328 197.681 133.911 198.111C133.495 198.538 133.263 198.868 133.217 199.1C133.332 199.03 133.449 198.995 133.564 198.995L133.772 199.03C134.165 199.1 134.363 199.308 134.363 199.655C134.363 200.072 134.165 200.396 133.772 200.628C133.564 200.766 133.356 200.836 133.147 200.836Z" fill="#00A2B5"/>
<path fill-rule="evenodd" clip-rule="evenodd" d="M133.668 170.59C133.113 170.59 132.835 170.289 132.835 169.688C132.835 169.132 133.078 168.496 133.564 167.778C134.05 167.06 134.49 166.586 134.883 166.354L134.988 166.319C135.011 166.319 135.028 166.33 135.04 166.354C135.052 166.378 135.057 166.4 135.057 166.423C135.057 166.469 135.022 166.528 134.953 166.597C134.652 166.875 134.339 167.262 134.015 167.761C133.692 168.258 133.529 168.635 133.529 168.889C133.668 168.75 133.842 168.68 134.05 168.68C134.536 168.68 134.779 168.889 134.779 169.306C134.779 169.699 134.658 170.011 134.415 170.243C134.172 170.475 133.922 170.59 133.668 170.59Z" fill="#00A2B5"/>
<path fill-rule="evenodd" clip-rule="evenodd" d="M107.565 201.518L107.58 201.549C107.6 201.59 107.561 201.777 107.461 202.106C106.931 203.846 106.76 204.914 106.949 205.311C107.129 205.688 107.396 205.791 107.751 205.622C107.939 205.532 108.081 205.414 108.177 205.265C108.273 205.116 108.338 205.022 108.369 204.981L108.447 204.982L108.505 205.185C108.776 206.184 108.577 206.844 107.908 207.162C107.366 207.421 106.934 207.216 106.615 206.548C106.366 206.025 106.297 205.341 106.406 204.493C106.514 203.646 106.79 202.823 107.229 202.024C107.412 201.706 107.524 201.537 107.565 201.518Z" fill="#00A2B5"/>
<path fill-rule="evenodd" clip-rule="evenodd" d="M138.182 159.235V159.201C138.182 159.177 138.252 159.085 138.391 158.923C139.155 158.113 139.537 157.568 139.537 157.291C139.537 157.036 139.421 156.909 139.189 156.909C139.051 156.909 138.912 156.955 138.773 157.048L138.599 157.082L138.634 156.839C138.773 156.284 139.062 156.006 139.502 156.006C139.873 156.006 140.058 156.238 140.058 156.7C140.058 157.048 139.913 157.441 139.624 157.881C139.334 158.321 138.957 158.703 138.495 159.027C138.31 159.166 138.206 159.235 138.182 159.235Z" fill="#00A2B5"/>
<path fill-rule="evenodd" clip-rule="evenodd" d="M142.315 210.941C141.967 210.941 141.713 210.721 141.551 210.281C141.458 210.049 141.412 209.771 141.412 209.448C141.412 209.077 141.47 208.66 141.585 208.198C141.77 207.41 142.013 206.832 142.315 206.461L142.384 206.392C142.454 206.392 142.488 206.427 142.488 206.496L142.454 206.635C142.269 207.006 142.117 207.479 142.002 208.059C141.909 208.43 141.863 208.718 141.863 208.927C141.863 209.089 141.887 209.216 141.933 209.309C142.095 209.007 142.349 208.857 142.697 208.857C142.974 208.857 143.159 208.996 143.252 209.274C143.322 209.437 143.356 209.598 143.356 209.76C143.356 209.945 143.311 210.131 143.218 210.316C143.079 210.594 142.894 210.778 142.662 210.871L142.315 210.941Z" fill="#00A2B5"/>
<path fill-rule="evenodd" clip-rule="evenodd" d="M140.752 204.933H140.717C140.717 204.888 140.776 204.725 140.891 204.447C141.331 203.312 141.551 202.526 141.551 202.086C141.551 201.971 141.54 201.878 141.516 201.808C141.423 201.576 141.284 201.461 141.099 201.461C140.845 201.461 140.637 201.576 140.474 201.808C140.381 201.923 140.324 201.982 140.301 201.982H140.231L140.162 201.322C140.162 200.743 140.394 200.373 140.856 200.211L141.134 200.141C141.458 200.141 141.713 200.373 141.898 200.836C141.991 201.068 142.037 201.333 142.037 201.635C142.037 202.583 141.713 203.544 141.065 204.517C140.902 204.771 140.798 204.91 140.752 204.933Z" fill="#00A2B5"/>
<path fill-rule="evenodd" clip-rule="evenodd" d="M122.938 230.734C122.614 230.711 122.452 230.526 122.452 230.179C122.452 229.877 122.591 229.519 122.869 229.102C123.146 228.685 123.401 228.408 123.633 228.269H123.667L123.737 228.303L123.702 228.408C123.517 228.57 123.331 228.795 123.146 229.085C122.962 229.374 122.869 229.588 122.869 229.727C122.938 229.658 123.042 229.623 123.181 229.623C123.435 229.623 123.563 229.738 123.563 229.97C123.563 230.202 123.494 230.387 123.355 230.526C123.216 230.665 123.077 230.734 122.938 230.734Z" fill="#00A2B5"/>
<path fill-rule="evenodd" clip-rule="evenodd" d="M134.849 227.678C134.849 227.632 134.953 227.494 135.161 227.262C136.179 226.15 136.689 225.41 136.689 225.039C136.689 224.692 136.527 224.518 136.203 224.518C136.018 224.518 135.861 224.559 135.735 224.641C135.607 224.721 135.532 224.773 135.509 224.796L135.439 224.761L135.474 224.588C135.613 223.731 135.995 223.303 136.62 223.303C137.13 223.303 137.384 223.616 137.384 224.241C137.384 224.703 137.193 225.242 136.811 225.856C136.429 226.469 135.925 226.984 135.3 227.401C135.046 227.585 134.895 227.678 134.849 227.678Z" fill="#00A2B5"/>
<path fill-rule="evenodd" clip-rule="evenodd" d="M116.41 210.767C116.549 210.235 116.768 209.667 117.07 209.066C119.593 208.117 122.185 207.156 124.848 206.184C129.733 204.354 132.221 203.44 132.314 203.44C132.36 203.44 132.383 203.475 132.383 203.544L132.314 203.787C132.082 204.343 131.897 204.679 131.758 204.795C127.406 206.392 122.289 208.382 116.41 210.767Z" fill="#00A2B5"/>
<path fill-rule="evenodd" clip-rule="evenodd" d="M121.653 178.299H121.584C119.361 177.767 117.788 177.234 116.861 176.702C116.121 176.262 115.75 175.637 115.75 174.827L115.785 174.41C116.017 174.803 116.538 175.244 117.347 175.73C117.671 175.914 118.539 176.251 119.952 176.737C121.202 177.177 121.966 177.431 122.244 177.501L122.278 177.362C122.278 176.969 121.885 176.552 121.098 176.112C120.473 175.88 119.628 175.521 118.563 175.035C117.868 174.618 117.521 174.248 117.521 173.924C117.521 173.692 117.753 173.414 118.215 173.091C119.327 172.396 120.484 172.049 121.688 172.049C122.198 172.049 122.58 172.118 122.834 172.257C123.088 172.396 123.216 172.559 123.216 172.743C123.216 172.882 123.158 173.01 123.042 173.125C122.719 173.449 122.51 173.611 122.417 173.611H122.382C122.382 173.473 122.255 173.275 122.001 173.021C121.885 172.928 121.619 172.882 121.202 172.882C120.206 172.882 119.385 173.01 118.736 173.264C118.574 173.334 118.493 173.403 118.493 173.473C118.493 173.611 118.76 173.831 119.292 174.132C119.685 174.364 120.195 174.595 120.82 174.827C121.445 175.059 121.827 175.209 121.966 175.278C122.684 175.671 123.042 176.146 123.042 176.702C123.042 177.095 122.823 177.49 122.382 177.883C122.059 178.16 121.816 178.299 121.653 178.299Z" fill="#00A2B5"/>
<path fill-rule="evenodd" clip-rule="evenodd" d="M103.423 190.557H103.388C103.388 190.511 103.481 190.384 103.666 190.175C104.592 189.179 105.055 188.508 105.055 188.161C105.055 187.86 104.905 187.71 104.603 187.71C104.441 187.71 104.302 187.745 104.187 187.814C104.071 187.883 104.002 187.918 103.978 187.918H103.909L103.944 187.745C104.082 186.981 104.441 186.599 105.02 186.599C105.46 186.599 105.68 186.888 105.68 187.467C105.68 187.883 105.506 188.364 105.159 188.909C104.812 189.452 104.36 189.921 103.805 190.314C103.573 190.477 103.446 190.557 103.423 190.557Z" fill="#00A2B5"/>
<path fill-rule="evenodd" clip-rule="evenodd" d="M117.903 219.865C117.81 219.842 117.764 219.715 117.764 219.483C117.764 219.112 117.545 218.378 117.104 217.279C116.664 216.179 116.364 215.629 116.201 215.629C116.063 215.629 115.976 215.669 115.942 215.751C115.907 215.832 115.808 215.872 115.646 215.872C115.438 215.872 115.178 215.727 114.865 215.438C114.553 215.148 114.396 214.923 114.396 214.761C114.396 214.668 114.529 214.402 114.796 213.962C115.061 213.522 115.229 213.302 115.299 213.302C115.947 213.302 116.525 213.684 117.035 214.448C117.545 215.212 117.892 216.208 118.077 217.434C118.1 217.573 118.117 217.648 118.129 217.661C118.141 217.672 118.157 217.678 118.181 217.678L118.285 217.434C118.378 216.694 118.621 215.594 119.014 214.136C119.454 213.094 119.928 212.573 120.438 212.573C120.716 212.573 120.977 212.741 121.22 213.077C121.463 213.412 121.584 213.673 121.584 213.858C121.584 214.02 121.549 214.216 121.48 214.448C121.364 214.772 121.237 214.934 121.098 214.934C121.052 214.934 120.93 214.813 120.734 214.57C120.537 214.327 120.334 214.205 120.125 214.205C119.663 214.205 119.234 215.293 118.841 217.469C118.678 218.396 118.493 219.055 118.285 219.449C118.146 219.726 118.018 219.865 117.903 219.865Z" fill="#00A2B5"/>
<path fill-rule="evenodd" clip-rule="evenodd" d="M132.522 214.795C131.712 214.795 131.307 214.124 131.307 212.781C131.307 211.138 131.782 209.413 132.731 207.607C132.985 207.167 133.136 206.947 133.182 206.947C133.182 207.041 133.113 207.295 132.974 207.711C132.372 209.587 132.071 210.906 132.071 211.67C132.071 212.688 132.337 213.198 132.869 213.198C133.193 213.198 133.564 212.805 133.981 212.017L134.12 211.844C134.143 211.844 134.154 211.913 134.154 212.052C133.831 213.881 133.286 214.795 132.522 214.795Z" fill="#00A2B5"/>
<path fill-rule="evenodd" clip-rule="evenodd" d="M125.786 231.88L125.751 231.845C125.751 231.822 125.855 231.695 126.063 231.463C127.081 230.352 127.591 229.612 127.591 229.241C127.591 228.894 127.429 228.72 127.105 228.72C126.92 228.72 126.763 228.76 126.637 228.842C126.509 228.923 126.434 228.963 126.411 228.963L126.341 228.928L126.376 228.755C126.515 227.921 126.908 227.505 127.557 227.505C128.043 227.505 128.286 227.817 128.286 228.442C128.286 228.905 128.095 229.438 127.713 230.04C127.332 230.641 126.827 231.162 126.202 231.602C125.97 231.787 125.831 231.88 125.786 231.88Z" fill="#00A2B5"/>
<path fill-rule="evenodd" clip-rule="evenodd" d="M143.252 233.443L143.218 233.408C143.218 233.362 143.345 233.2 143.599 232.922C144.85 231.579 145.475 230.676 145.475 230.213C145.475 229.797 145.277 229.588 144.884 229.588C144.652 229.588 144.462 229.634 144.312 229.727C144.161 229.82 144.062 229.877 144.016 229.901L143.947 229.866L143.981 229.623C144.166 228.605 144.641 228.095 145.405 228.095C146.007 228.095 146.308 228.477 146.308 229.241C146.308 229.82 146.076 230.474 145.614 231.204C145.151 231.933 144.537 232.563 143.773 233.095C143.472 233.327 143.298 233.443 143.252 233.443Z" fill="#00A2B5"/>
<path fill-rule="evenodd" clip-rule="evenodd" d="M150.406 231.776C149.711 231.776 149.364 231.186 149.364 230.005C149.364 228.592 149.781 227.099 150.614 225.525C150.822 225.132 150.95 224.935 150.996 224.935C150.996 225.028 150.938 225.248 150.822 225.595C150.29 227.238 150.024 228.384 150.024 229.033C150.024 229.935 150.256 230.387 150.718 230.387C150.996 230.387 151.32 230.04 151.69 229.345C151.714 229.276 151.749 229.23 151.795 229.206L151.864 229.276L151.829 229.38C151.552 230.977 151.077 231.776 150.406 231.776Z" fill="#00A2B5"/>
<path fill-rule="evenodd" clip-rule="evenodd" d="M140.464 221.263C139.961 221.065 139.877 220.539 140.212 219.684C140.613 218.661 141.338 217.698 142.389 216.795C142.651 216.57 142.799 216.463 142.833 216.476C142.806 216.544 142.702 216.686 142.52 216.905C141.668 217.944 141.15 218.698 140.966 219.168C140.71 219.821 140.75 220.214 141.084 220.345C141.286 220.424 141.619 220.265 142.084 219.867C142.121 219.823 142.159 219.8 142.199 219.796L142.23 219.866L142.175 219.931C141.52 221.009 140.95 221.453 140.464 221.263Z" fill="#00A2B5"/>
<path fill-rule="evenodd" clip-rule="evenodd" d="M157.177 228.859C157.108 228.859 157.073 228.766 157.073 228.581C157.073 228.28 156.899 227.696 156.552 226.828C156.205 225.96 155.962 225.525 155.823 225.525C155.707 225.525 155.638 225.555 155.614 225.613C155.591 225.67 155.51 225.699 155.371 225.699C155.209 225.699 155.007 225.584 154.764 225.352C154.521 225.12 154.399 224.935 154.399 224.796C154.399 224.75 154.503 224.548 154.712 224.189C154.92 223.829 155.048 223.65 155.094 223.65C155.603 223.65 156.06 223.957 156.466 224.571C156.87 225.184 157.153 225.977 157.316 226.949C157.34 227.042 157.351 227.099 157.351 227.123H157.385C157.409 227.099 157.431 227.042 157.455 226.949C157.548 226.37 157.756 225.502 158.08 224.345C158.404 223.511 158.774 223.095 159.191 223.095C159.399 223.095 159.602 223.228 159.799 223.495C159.995 223.76 160.094 223.963 160.094 224.102C160.094 224.217 160.059 224.391 159.99 224.623C159.92 224.855 159.827 224.97 159.712 224.97C159.666 224.97 159.568 224.871 159.417 224.675C159.266 224.478 159.111 224.379 158.948 224.379C158.577 224.379 158.242 225.237 157.941 226.949C157.709 228.223 157.455 228.859 157.177 228.859Z" fill="#00A2B5"/>
<path fill-rule="evenodd" clip-rule="evenodd" d="M163.184 217.365C163.184 217.319 163.278 217.191 163.462 216.983C164.48 215.872 164.99 215.132 164.99 214.761C164.99 214.39 164.828 214.205 164.504 214.205C164.341 214.205 164.197 214.251 164.071 214.344C163.943 214.437 163.855 214.483 163.809 214.483L163.74 214.448L163.775 214.24C163.937 213.43 164.33 213.024 164.955 213.024C165.465 213.024 165.719 213.337 165.719 213.962C165.719 214.424 165.522 214.958 165.129 215.559C164.736 216.161 164.226 216.682 163.601 217.122C163.369 217.284 163.23 217.365 163.184 217.365Z" fill="#00A2B5"/>
<path fill-rule="evenodd" clip-rule="evenodd" d="M161.622 168.125C161.159 168.125 160.927 167.871 160.927 167.361C160.927 166.921 161.147 166.389 161.587 165.764C161.958 165.208 162.305 164.826 162.629 164.618H162.698C162.744 164.618 162.768 164.641 162.768 164.687C162.768 164.733 162.744 164.78 162.698 164.826C162.444 165.058 162.183 165.376 161.918 165.782C161.651 166.186 161.518 166.493 161.518 166.701C161.633 166.608 161.784 166.562 161.969 166.562C162.362 166.562 162.559 166.736 162.559 167.083C162.559 167.385 162.455 167.633 162.247 167.83C162.039 168.026 161.83 168.125 161.622 168.125Z" fill="#00A2B5"/>
<path fill-rule="evenodd" clip-rule="evenodd" d="M164.226 209.795C163.647 209.795 163.358 209.298 163.358 208.302C163.358 207.097 163.705 205.836 164.4 204.517L164.712 203.996L164.747 204.031C164.747 204.1 164.689 204.285 164.573 204.586C164.133 205.975 163.914 206.947 163.914 207.503C163.914 208.243 164.111 208.614 164.504 208.614C164.736 208.614 165.001 208.325 165.303 207.746L165.442 207.607V207.781C165.187 209.124 164.782 209.795 164.226 209.795Z" fill="#00A2B5"/>
<path fill-rule="evenodd" clip-rule="evenodd" d="M161.309 187.119C160.522 187.119 160.129 186.379 160.129 184.897C160.129 184.48 160.175 184.029 160.268 183.543C160.337 183.196 160.638 182.189 161.17 180.522C161.518 179.526 161.691 178.345 161.691 176.98L161.657 175.903C161.587 174.052 160.765 172.338 159.191 170.764C159.122 170.695 159.087 170.625 159.087 170.556C159.087 170.486 159.295 170.081 159.712 169.34C159.758 169.294 159.793 169.271 159.816 169.271C159.862 169.271 159.909 169.294 159.955 169.34C160.927 170.289 161.576 171.157 161.9 171.945C162.154 172.616 162.327 173.692 162.421 175.174C162.466 175.521 162.49 175.845 162.49 176.146C162.49 177.303 162.212 178.727 161.657 180.418C161.101 182.108 160.823 183.3 160.823 183.994C160.823 184.99 161.112 185.487 161.691 185.487C162.015 185.487 162.386 185.094 162.802 184.307C162.872 184.168 162.93 184.098 162.976 184.098V184.341C162.629 186.193 162.073 187.119 161.309 187.119Z" fill="#00A2B5"/>
<path fill-rule="evenodd" clip-rule="evenodd" d="M149.26 203.892C148.542 203.892 148.183 203.544 148.183 202.85C148.183 202.364 148.472 201.635 149.051 200.662C149.631 199.69 150.117 199.204 150.51 199.204C150.857 199.204 151.164 199.361 151.431 199.673C151.696 199.986 151.829 200.373 151.829 200.836C151.829 201.53 151.581 202.214 151.083 202.885C150.585 203.556 149.978 203.892 149.26 203.892ZM149.781 202.468C150.729 202.468 151.204 202.19 151.204 201.635C151.181 200.964 150.729 200.627 149.85 200.627C149.711 200.627 149.497 200.836 149.208 201.253C148.918 201.669 148.774 201.958 148.774 202.121C148.867 202.353 149.201 202.468 149.781 202.468Z" fill="#00A2B5"/>
<path fill-rule="evenodd" clip-rule="evenodd" d="M147.176 208.684C147.315 208.128 147.535 207.538 147.836 206.913C150.29 206.056 152.964 205.107 155.857 204.065C155.996 204.019 156.101 203.996 156.17 203.996C156.216 203.996 156.239 204.019 156.239 204.065C156.239 204.135 156.216 204.215 156.17 204.308C155.938 204.864 155.753 205.2 155.614 205.315C153.184 206.172 150.371 207.295 147.176 208.684Z" fill="#00A2B5"/>
<path fill-rule="evenodd" clip-rule="evenodd" d="M149.051 216.254C149.028 216.254 149.005 216.219 148.982 216.15C149.028 215.872 149.075 215.612 149.121 215.369C149.167 215.126 149.561 214.726 150.301 214.17C149.375 213.847 148.912 213.43 148.912 212.92C148.912 212.365 149.156 211.798 149.642 211.219C150.568 210.107 151.343 209.552 151.968 209.552C152.524 209.552 152.802 209.864 152.802 210.489C152.802 210.837 152.652 211.253 152.35 211.74C152.327 211.785 152.292 211.809 152.246 211.809C152.222 211.809 152.188 211.774 152.142 211.705C151.957 211.334 151.725 211.149 151.447 211.149C151.215 211.149 150.95 211.253 150.649 211.462C150.347 211.67 150.197 211.867 150.197 212.052C150.197 212.237 150.382 212.429 150.753 212.626C151.124 212.822 151.424 212.92 151.656 212.92C151.864 212.92 152.235 212.77 152.767 212.469C153.021 212.284 153.277 212.122 153.531 211.983L153.878 211.74C154.18 211.601 154.353 211.531 154.399 211.531C154.445 211.555 154.468 211.601 154.468 211.67L154.399 211.948C154.284 212.48 154.132 212.827 153.948 212.99C153.253 213.406 151.736 214.413 149.399 216.011L149.051 216.254Z" fill="#00A2B5"/>
<path fill-rule="evenodd" clip-rule="evenodd" d="M153.045 199.412C152.999 199.412 152.975 199.401 152.975 199.377C152.975 199.262 153.438 198.937 154.364 198.405L158.01 196.252C159.793 195.165 161.125 194.158 162.004 193.231C160.847 192.63 160.268 191.992 160.268 191.321C160.268 190.511 160.638 189.77 161.379 189.099C161.958 188.567 162.455 188.3 162.872 188.3C163.521 188.3 163.844 188.763 163.844 189.689C163.844 190.36 163.705 191.113 163.428 191.946C164.029 192.293 164.4 192.582 164.539 192.814C164.539 193.138 164.272 193.682 163.74 194.446C163.601 194.214 163.243 193.926 162.664 193.578C162.015 194.481 161.182 195.303 160.163 196.044C159.029 196.901 157.976 197.537 157.003 197.954C156.795 198.069 155.684 198.498 153.67 199.239C153.368 199.354 153.16 199.412 153.045 199.412ZM162.733 191.599C162.803 191.367 162.837 191.136 162.837 190.904C162.837 190.234 162.64 189.897 162.247 189.897C162.108 189.897 161.918 189.961 161.675 190.089C161.432 190.216 161.309 190.349 161.309 190.488C161.309 190.766 161.784 191.136 162.733 191.599Z" fill="#00A2B5"/>
<path fill-rule="evenodd" clip-rule="evenodd" d="M119.604 196.842L119.5 196.808C118.552 196.067 117.579 195.384 116.583 194.759L116.549 194.69L117.764 192.05C117.857 191.912 117.938 191.842 118.007 191.842C118.146 191.842 118.616 192.114 119.414 192.659C120.213 193.202 120.739 193.589 120.993 193.821L121.966 191.842C122.035 191.703 122.116 191.634 122.209 191.634C122.348 191.634 122.892 191.957 123.841 192.606C124.79 193.255 125.265 193.637 125.265 193.752C125.265 194.192 124.848 195.095 124.015 196.461C123.945 196.554 123.876 196.599 123.806 196.599C123.76 196.599 123.726 196.588 123.702 196.565C122.869 195.963 121.92 195.315 120.855 194.62C120.507 195.43 120.16 196.113 119.813 196.669C119.743 196.784 119.674 196.842 119.604 196.842Z" fill="#00A2B5"/>
<path fill-rule="evenodd" clip-rule="evenodd" d="M157.941 204.308L157.837 204.274C156.888 203.556 155.916 202.874 154.92 202.225L154.885 202.155C154.885 202.11 155.302 201.229 156.135 199.516C156.205 199.377 156.285 199.308 156.378 199.308C156.494 199.308 156.958 199.58 157.767 200.125C158.577 200.668 159.098 201.055 159.33 201.287L160.302 199.308C160.395 199.169 160.476 199.1 160.545 199.1C160.684 199.1 161.234 199.423 162.196 200.072C163.155 200.721 163.636 201.103 163.636 201.218C163.636 201.658 163.208 202.561 162.351 203.926C162.282 204.019 162.223 204.065 162.177 204.065L162.039 204.031C161.205 203.429 160.268 202.78 159.226 202.086C158.555 203.568 158.126 204.308 157.941 204.308Z" fill="#00A2B5"/>
<path fill-rule="evenodd" clip-rule="evenodd" d="M126.966 216.289L126.862 216.254C125.913 215.536 124.941 214.854 123.945 214.205L123.91 214.136L125.126 211.496C125.219 211.358 125.299 211.288 125.369 211.288C125.508 211.288 126.058 211.619 127.019 212.278C127.979 212.938 128.459 213.313 128.459 213.406C128.459 213.847 128.032 214.75 127.175 216.115C127.105 216.23 127.036 216.289 126.966 216.289Z" fill="#00A2B5"/>
<path fill-rule="evenodd" clip-rule="evenodd" d="M156.17 196.773C156.101 196.749 156.066 196.576 156.066 196.252C156.066 195.998 156.089 195.651 156.135 195.21C156.274 194.192 156.344 193.012 156.344 191.668C156.344 190.442 156.089 186.262 155.58 179.133C155.07 172.003 154.816 167.917 154.816 166.875C154.816 165.648 154.631 164.641 154.26 163.854C154.26 163.413 154.607 162.372 155.302 160.728C155.395 160.52 155.475 160.416 155.545 160.416C155.684 160.416 156.228 161.712 157.177 164.305C158.195 166.921 158.705 168.426 158.705 168.819C158.705 169.004 158.647 169.097 158.531 169.097C158.299 169.097 157.813 168.669 157.073 167.812C157.027 167.766 156.992 167.743 156.969 167.743C156.923 167.743 156.899 167.847 156.899 168.055C156.899 168.171 157.119 171.239 157.559 177.258C157.999 183.276 158.219 186.772 158.219 187.745C158.219 190.685 157.767 193.277 156.864 195.523C156.517 196.333 156.285 196.749 156.17 196.773Z" fill="#FFB000"/>
<path fill-rule="evenodd" clip-rule="evenodd" d="M120.195 227.123C115.449 227.123 112.173 224.796 110.368 220.143C110.02 219.24 109.847 218.083 109.847 216.671C109.847 214.309 110.24 212.122 111.027 210.107C111.143 209.784 111.27 209.621 111.409 209.621C111.479 209.621 111.514 209.702 111.514 209.864L111.479 210.246C110.923 212.538 110.645 214.055 110.645 214.795C110.645 216.716 111.282 218.487 112.555 220.108C114.315 222.261 116.85 223.338 120.16 223.338C123.053 223.338 126.133 222.654 129.397 221.289C132.012 220.201 134.374 218.835 136.481 217.191C138.356 215.733 139.294 214.68 139.294 214.031C139.294 213.938 138.912 213.117 138.148 211.566C137.199 209.76 136.504 208 136.064 206.288C135.879 205.709 135.666 205.315 135.422 205.107C135.179 204.899 135.057 204.679 135.057 204.447C135.057 204.285 135.231 203.36 135.578 201.669C135.647 201.368 135.728 201.218 135.821 201.218C135.936 201.218 136.064 201.287 136.203 201.426C136.689 201.958 137.72 203.012 139.294 204.586C139.548 204.84 139.676 205.038 139.676 205.177C139.676 205.361 139.526 205.454 139.224 205.454C138.901 205.454 138.414 205.35 137.766 205.142C137.812 205.35 138.332 206.461 139.328 208.475C140.138 210.119 140.544 211.531 140.544 212.712C140.544 215.073 140.023 216.855 138.981 218.06C137.291 220.004 134.838 221.89 131.619 223.72C127.522 225.988 123.713 227.123 120.195 227.123Z" fill="#FF6106"/>
<path fill-rule="evenodd" clip-rule="evenodd" d="M159.99 217.434C161.008 218.453 162.236 218.962 163.671 218.962C164.897 218.962 166.09 218.511 167.247 217.608C167.571 217.284 167.733 216.254 167.733 214.518C167.733 213.476 167.282 206.785 166.379 194.446C165.476 182.084 165.025 175.255 165.025 173.959C165.025 172.732 164.828 171.736 164.435 170.972C164.435 170.51 164.793 169.468 165.511 167.847C165.58 167.662 165.639 167.569 165.685 167.569C165.824 167.569 165.928 167.662 165.997 167.847C166.182 168.31 166.668 169.479 167.456 171.354C168.15 173.414 168.602 174.677 168.81 175.139C168.879 175.532 168.914 175.788 168.914 175.903C168.914 176.482 168.393 176.157 167.351 174.931C167.213 174.746 167.143 174.816 167.143 175.139C167.143 175.209 167.536 180.962 168.324 192.398C169.157 203.833 169.574 210.201 169.574 211.496C169.574 215.131 168.925 218.014 167.629 220.143C166.542 221.879 165.222 222.747 163.671 222.747C162.305 222.747 160.881 222.133 159.399 220.907C158.612 220.258 157.999 219.553 157.559 218.789L153.392 220.629C151.447 221.393 149.989 222.007 149.017 222.47C147.141 223.372 145.846 224.113 145.127 224.692C143.831 225.664 141.956 227.574 139.502 230.422C138.02 232.158 136.539 233.026 135.057 233.026C133.761 233.026 132.661 232.447 131.758 231.29C130.786 230.133 130.3 228.709 130.3 227.019C130.3 224.703 131.237 221.671 133.113 217.921C133.297 217.528 133.46 217.33 133.599 217.33C133.668 217.33 133.703 217.365 133.703 217.434C133.703 217.805 133.275 219.125 132.418 221.393C131.585 223.661 131.168 225.445 131.168 226.741C131.168 227.713 131.4 228.488 131.862 229.067C132.372 229.716 133.078 230.04 133.981 230.04C135.532 230.04 137.082 229.265 138.634 227.713C139.213 226.995 139.791 226.313 140.37 225.664L141.759 224.102C143.033 222.62 144.745 221.3 146.898 220.143C148.125 219.425 150.29 218.418 153.392 217.122L156.483 215.872C156.042 214.645 155.823 213.417 155.823 212.191C155.823 210.316 156.112 208.799 156.691 207.642C157.27 206.461 158.01 205.871 158.913 205.871C159.677 205.871 160.452 206.554 161.24 207.92C161.889 209.146 162.212 210.246 162.212 211.219C162.212 213.742 161.472 215.813 159.99 217.434ZM158.115 215.108C158.647 214.876 159.261 214.518 159.955 214.031C160.788 213.476 161.205 213.083 161.205 212.851C161.205 212.434 160.863 211.774 160.181 210.871C159.498 209.969 158.902 209.517 158.392 209.517C157.999 209.517 157.617 209.755 157.246 210.23C156.876 210.703 156.691 211.16 156.691 211.601C156.691 211.971 156.888 212.608 157.281 213.511C157.652 214.32 157.93 214.854 158.115 215.108Z" fill="#FF6106"/>
<path fill-rule="evenodd" clip-rule="evenodd" d="M172.942 212.365C172.849 212.365 172.803 212.215 172.803 211.913C172.803 211.659 172.838 211.288 172.907 210.802C173.023 209.806 173.081 208.625 173.081 207.26C173.081 206.056 172.827 201.889 172.317 194.759C171.807 187.629 171.553 183.532 171.553 182.466C171.553 181.262 171.368 180.268 170.998 179.48C170.998 179.04 171.345 177.987 172.039 176.32C172.132 176.135 172.224 176.042 172.317 176.042C172.363 176.042 172.445 176.146 172.56 176.355C172.745 176.795 173.214 178.005 173.967 179.984C174.719 181.963 175.165 183.184 175.304 183.647C175.397 183.994 175.442 184.261 175.442 184.446C175.442 184.608 175.397 184.689 175.304 184.689C175.072 184.689 174.585 184.261 173.845 183.404L173.741 183.334C173.671 183.334 173.637 183.45 173.637 183.682C173.637 183.775 173.856 186.836 174.296 192.867C174.737 198.897 174.956 202.387 174.956 203.336C174.956 206.299 174.516 208.892 173.637 211.114C173.313 211.948 173.081 212.365 172.942 212.365Z" fill="#FF6106"/>
</g>
<path d="M33 322.841C33 318.104 36.8395 314.265 41.5757 314.265H241.562C242.915 314.265 244.012 315.362 244.012 316.715V343.466C244.012 344.82 242.915 345.917 241.562 345.917H41.5757C36.8395 345.917 33 342.077 33 337.341V322.841Z" fill="#192847"/>
<path d="M35.6376 324.253C35.6376 320.193 38.9286 316.902 42.9882 316.902H242.184C242.46 316.902 242.684 317.126 242.684 317.402V342.779C242.684 343.055 242.46 343.279 242.184 343.279H42.9882C38.9286 343.279 35.6376 339.988 35.6376 335.928V324.253Z" fill="#FEFFBE"/>
<defs>
<clipPath id="clip0_10_110">
<rect width="75.8395" height="77.5063" fill="white" transform="translate(99.707 156.006)"/>
</clipPath>
</defs>
</svg>
